<svg xmlns="http://www.w3.org/2000/svg" width="23.982" height="24.715" viewBox="0 0 23.982 24.715">
  <g id="balcony" transform="translate(-3.796)">
    <g id="Сгруппировать_44" data-name="Сгруппировать 44" transform="translate(3.796)">
      <path id="Контур_22" data-name="Контур 22" d="M25.7,11.8a2.078,2.078,0,0,0-2.075,2.075,2.055,2.055,0,0,0,.127.692H22.128V5.3A5.288,5.288,0,0,0,20.3,1.311c-.015-.02-.021-.045-.038-.064a.674.674,0,0,0-.249-.168A5.27,5.27,0,0,0,16.824,0H14.672a5.31,5.31,0,0,0-5.3,5.3v9.265H7.82a2.053,2.053,0,0,0,.127-.692A2.075,2.075,0,1,0,5.18,15.825v8.2a.692.692,0,0,0,.692.692H25.7a.692.692,0,0,0,.692-.692v-8.2A2.07,2.07,0,0,0,25.7,11.8ZM5.871,13.185a.692.692,0,1,1-.692.692A.693.693,0,0,1,5.871,13.185Zm.692,10.146V15.952h4.064v7.379Zm5.447-.186V15.952h3.046v7.379H12.01v-.186Zm7.127.186h-2.7V15.952h3.228v7.379h-.531Zm5.874,0H21.052V15.952h3.959Zm.692-8.763a.692.692,0,1,1,.692-.692A.693.693,0,0,1,25.7,14.569ZM19.727,2.678a3.905,3.905,0,0,1,.959,1.975H17.568ZM18.615,1.82,16.44,3.81V1.384h.384A3.887,3.887,0,0,1,18.615,1.82Zm-3.942-.437h.384V3.774L12.907,1.808A3.893,3.893,0,0,1,14.672,1.384ZM11.788,2.659l2.18,1.994H10.811A3.9,3.9,0,0,1,11.788,2.659ZM10.752,6.037h9.992v8.532H10.752Z" transform="translate(-3.796 0)"/>
    </g>
  </g>
</svg>
