<svg id="Layer_1" data-name="Layer 1" xmlns="http://www.w3.org/2000/svg" viewBox="0 0 2065.17 331.73"><defs><style>.cls-1{fill:#0098da;}.cls-2{fill:#fefefe;}</style></defs><title>restork22</title><g id="Слой_1"><g id="_2002368902624" data-name=" 2002368902624"><path class="cls-1" d="M995.15,1986l-67-97.56c29.45-10,66-44.74,66-94.7,0-30.49-10-57.57-27.56-74.67-19.95-20-42.76-30.41-94.54-30.41H752.37c-10.92,0-13.3,5.23-13.3,13.78v285c0,11,4.75,13.86,13.3,13.86h47c8.55,0,13.77-2.85,13.77-13.86V1755.16h63.19c24.71,0,43.71,15.68,43.71,40.46,0,22.33-21.85,38.56-45.13,38.56h-9.5c-10.93,0-13.78,5.23-13.78,13.78v38.09c0,13.3,1,18.53,5.22,24.23l51.31,76.65c6.66,10,12.36,14.33,23.76,14.33H988c9,0,11.4-8.63,7.13-15.28Zm286.95-51.24H1130.55V1872h127.32c10.93,0,13.78-5.22,13.78-13.78v-37c0-8.55-2.85-13.78-13.78-13.78H1130.55v-51.79H1274c10.93,0,13.78-5.22,13.78-13.77v-39.44c0-8.55-2.85-13.77-13.78-13.77H1069.26c-10.93,0-13.78,5.22-13.78,13.77v285.06c0,8.55,2.85,13.78,13.78,13.78H1282.1c10.93,0,13.78-5.23,13.78-13.78v-39c0-8.55-2.85-13.78-13.78-13.78Zm218.55-115c-19-7.6-88.84-18-88.84-47,0-21.38,26.13-27.56,41.8-27.56,14.26,0,31.36,4.28,40.39,12.83,5.7,5.7,8.07,9.5,10,14.25,2.38,6.18,3.8,12.83,12.83,12.83h46.56c10.93,0,13.78-1.9,13.78-13.3,0-62.72-66-90.27-126.38-90.27-59.38,2.37-115.44,32.78-115.44,94.54,0,60.34,44.18,79.34,92.16,94.55,40.39,12.82,82.67,13.3,82.67,39.9s-20.9,32.31-46.56,32.31c-17.58,0-37.06-4.27-46.56-15.68-6.17-7.12-8.55-13.3-9-19.48-1-11.87-6.17-13.3-17.1-13.3h-46.08c-10.93,0-13.78,2.38-13.78,13.3,0,66.52,68.41,100.72,127.8,100.72,73.16,0,126.38-32.3,126.38-99.77,0-64.61-50.36-78.39-84.57-88.84Zm351.57-131.13H1631.78c-10.93,0-13.78,5.23-13.78,13.78v39.44c0,8.55,2.85,13.77,13.78,13.77h73.16v231.85c0,10.93,5.23,13.78,13.78,13.78h47c8.55,0,13.78-2.85,13.78-13.78V1755.63h72.69c10.93,0,13.78-5.22,13.78-13.77v-39.44c0-8.55-2.85-13.78-13.78-13.78Zm306.91,100.25c0-75.06-71.26-107.37-127.8-107.37s-126.85,32.31-126.85,107.37V1901c0,75.07,70.31,107.37,126.85,107.37s127.8-32.3,127.8-107.37V1788.89Zm-74.59,105.47c0,30.41-21.85,48-53.21,48-30.88,0-52.73-17.58-52.73-48v-98.82c0-30.4,21.85-48,52.73-48,31.36,0,53.21,17.58,53.21,48ZM2476,1986l-67-97.56c29.46-10,66-44.74,66-94.7,0-30.49-10-57.57-27.56-74.67-20-20-42.75-30.41-94.54-30.41H2233.25c-10.93,0-13.31,5.23-13.31,13.78v285c0,11,4.75,13.86,13.31,13.86h47c8.55,0,13.78-2.85,13.78-13.86V1755.16h63.19c24.7,0,43.71,15.68,43.71,40.46,0,22.33-21.86,38.56-45.14,38.56h-9.5c-10.93,0-13.78,5.23-13.78,13.78v38.09c0,13.3.95,18.53,5.23,24.23l51.31,76.65c6.65,10,12.35,14.33,23.75,14.33h56.06C2477.92,2001.26,2480.3,1992.63,2476,1986Zm320.69-297.34h-64.14c-10.92,0-14.25,1-23.75,11.41l-98.35,108.32V1702.42c0-10.92-5.22-13.78-13.3-13.78h-47c-9,0-13.78,2.86-13.78,13.78v285.06c0,10.93,4.75,13.78,13.78,13.78h47c8.08,0,13.3-2.85,13.3-13.78v-84.57l29.46-30.88c25.65,42.76,67.94,114,67.94,114,6.17,10,12.35,15.21,23.75,15.21h58c9,0,10.93-9,7.13-15.21l-102.15-168.18L2801.46,1702c4.28-4.28,4.28-13.31-4.75-13.31Z" transform="translate(-739.07 -1676.65)"/><path class="cls-1" d="M2026.84,1676.65a165.73,165.73,0,1,1-165.72,165.73,165.73,165.73,0,0,1,165.72-165.73Z" transform="translate(-739.07 -1676.65)"/><path class="cls-2" d="M1924.92,1851.6c-26.15-21.48,4.14-39.48,19.07-54.87,5.25-5.41,11-9.79,16.1-15.08l48.54-45.82c6.32-5.36,12.4-7.34,18.21-7.09,5.82-.25,11.9,1.73,18.22,7.09l48.54,45.82c5.14,5.29,10.84,9.67,16.1,15.08,14.93,15.39,45.21,33.39,19.07,54.87-2.26-1-67.41-65.64-76.07-73.74-4.93-4.62-21.28-22.3-25.86-24.47-4.57,2.17-20.92,19.85-25.86,24.47-8.66,8.1-73.8,72.73-76.06,73.74Zm181.78,66.53c2-6.42,1-42.94,1.07-54.6.09-9.06-1.33-8-5.95-12.63-5-5-71.12-71.61-75-74.05-3.85,2.44-70,69.06-75,74.05-4.62,4.61-6,3.57-5.94,12.63.12,11.66-.91,48.18,1.07,54.6C1956.6,1955.79,2097.07,1956.29,2106.7,1918.13Z" transform="translate(-739.07 -1676.65)"/><polygon class="cls-1" points="1233.9 210.9 1251.44 193.36 1271.56 213.48 1327.66 157.39 1345.2 174.93 1289.1 231.02 1271.56 248.56 1254.02 231.02 1233.9 210.9"/></g></g></svg>