<svg viewBox="0 0 730 118" fill="none" xmlns="http://www.w3.org/2000/svg">
<path d="M91.0656 109.608L67.4336 75.1936C77.825 71.6739 90.7304 59.411 90.7304 41.7847C90.7304 31.0301 87.2107 21.4768 81.0094 15.443C73.9701 8.40372 65.9251 4.71642 47.6564 4.71642H5.42031C1.56551 4.71642 0.727417 6.56012 0.727417 9.57692V110.111C0.727417 113.994 2.40351 114.999 5.42031 114.999H22.0131C25.0299 114.999 26.8736 113.994 26.8736 110.111V28.1809H49.1648C57.8802 28.1809 64.5843 33.7118 64.5843 42.4551C64.5843 50.3325 56.8746 56.0589 48.662 56.0589H45.3099C41.455 56.0589 40.4494 57.9025 40.4494 60.9194V74.3556C40.4494 79.0485 40.7846 80.8921 42.2931 82.9034L60.3942 109.943C62.7407 113.491 64.7519 114.999 68.7744 114.999H88.5516C91.736 114.999 92.5741 111.955 91.0656 109.608ZM192.298 91.5349H138.833V69.4113H183.75C187.605 69.4113 188.611 67.5677 188.611 64.5508V51.4777C188.611 48.4609 187.605 46.6173 183.75 46.6173H138.833V28.3485H189.449C193.304 28.3485 194.309 26.5049 194.309 23.488V9.57692C194.309 6.56012 193.304 4.71642 189.449 4.71642H117.212C113.357 4.71642 112.351 6.56012 112.351 9.57692V110.139C112.351 113.156 113.357 114.999 117.212 114.999H192.298C196.153 114.999 197.159 113.156 197.159 110.139V96.3954C197.159 93.3786 196.153 91.5349 192.298 91.5349V91.5349ZM269.396 50.9749C262.691 48.2933 238.054 44.606 238.054 34.3822C238.054 26.8401 247.272 24.6612 252.803 24.6612C257.831 24.6612 263.865 26.1697 267.049 29.1865C269.06 31.1977 269.898 32.5386 270.569 34.2146C271.407 36.3935 271.91 38.7399 275.094 38.7399H291.519C295.374 38.7399 296.38 38.0695 296.38 34.047C296.38 11.9234 273.083 2.20239 251.797 2.20239C230.847 3.04039 211.07 13.767 211.07 35.5554C211.07 56.8411 226.657 63.5452 243.585 68.9085C257.831 73.4338 272.748 73.6014 272.748 82.9872C272.748 92.373 265.373 94.3842 256.323 94.3842C250.121 94.3842 243.249 92.8758 239.897 88.8533C237.718 86.3392 236.88 84.1604 236.713 81.9815C236.378 77.7915 234.534 77.2887 230.679 77.2887H214.422C210.567 77.2887 209.561 78.1267 209.561 81.9815C209.561 105.446 233.696 117.513 254.646 117.513C280.457 117.513 299.229 106.116 299.229 82.3168C299.229 59.5227 281.463 54.6622 269.396 50.9749ZM393.422 4.71642H315.654C311.799 4.71642 310.794 6.56012 310.794 9.57692V23.488C310.794 26.5049 311.799 28.3485 315.654 28.3485H341.465V110.139C341.465 113.994 343.309 114.999 346.326 114.999H362.918C365.935 114.999 367.779 113.994 367.779 110.139V28.3485H393.422C397.277 28.3485 398.282 26.5049 398.282 23.488V9.57692C398.282 6.56012 397.277 4.71642 393.422 4.71642ZM501.694 40.0807C501.694 13.5994 476.553 2.20239 456.609 2.20239C436.664 2.20239 411.858 13.5994 411.858 40.0807V79.6351C411.858 106.116 436.664 117.513 456.609 117.513C476.553 117.513 501.694 106.116 501.694 79.6351V40.0807ZM475.38 77.2887C475.38 88.0153 467.67 94.2166 456.609 94.2166C445.714 94.2166 438.005 88.0153 438.005 77.2887V42.4272C438.005 31.7006 445.714 25.4992 456.609 25.4992C467.67 25.4992 475.38 31.7006 475.38 42.4272V77.2887ZM613.485 109.608L589.853 75.1936C600.245 71.6739 613.15 59.411 613.15 41.7847C613.15 31.0301 609.63 21.4768 603.429 15.443C596.39 8.40372 588.345 4.71642 570.076 4.71642H527.84C523.985 4.71642 523.147 6.56012 523.147 9.57692V110.111C523.147 113.994 524.823 114.999 527.84 114.999H544.433C547.449 114.999 549.293 113.994 549.293 110.111V28.1809H571.584C580.3 28.1809 587.004 33.7118 587.004 42.4551C587.004 50.3325 579.294 56.0589 571.081 56.0589H567.729C563.874 56.0589 562.869 57.9025 562.869 60.9194V74.3556C562.869 79.0485 563.204 80.8921 564.713 82.9034L582.814 109.943C585.16 113.491 587.171 114.999 591.194 114.999H610.971C614.155 114.999 614.994 111.955 613.485 109.608V109.608ZM726.617 4.71642H703.991C700.136 4.71642 698.963 5.05162 695.611 8.73892L660.917 46.9525V9.57692C660.917 5.72202 659.073 4.71642 656.224 4.71642H639.631C636.447 4.71642 634.771 5.72202 634.771 9.57692V110.139C634.771 113.994 636.447 114.999 639.631 114.999H656.224C659.073 114.999 660.917 113.994 660.917 110.139V80.3055L671.308 69.4113C680.359 84.4956 695.275 109.636 695.275 109.636C697.454 113.156 699.633 114.999 703.656 114.999H724.103C727.288 114.999 727.958 111.815 726.617 109.636L690.583 50.3045L728.293 9.40931C729.802 7.90091 729.802 4.71642 726.617 4.71642V4.71642Z" fill="#007bff"/>
<path fill-rule="evenodd" clip-rule="evenodd" d="M455.026 0.486633C487.315 0.486633 513.49 26.6621 513.49 58.9512C513.49 91.2403 487.315 117.416 455.026 117.416C422.737 117.416 396.561 91.2403 396.561 58.9512C396.561 26.6621 422.737 0.486633 455.026 0.486633Z" fill="#007bff"/>
<path fill-rule="evenodd" clip-rule="evenodd" d="M419.069 62.2046C409.846 54.6241 420.528 48.2749 425.797 42.8457C427.65 40.9364 429.664 39.3924 431.477 37.528L448.6 21.3621C450.831 19.4703 452.975 18.7743 455.026 18.8602C457.076 18.7743 459.221 19.4703 461.451 21.3621L478.574 37.528C480.388 39.3924 482.401 40.9364 484.254 42.8457C489.523 48.2749 500.206 54.6241 490.982 62.2046C490.185 61.848 467.203 39.0485 464.149 36.1911C462.406 34.561 456.641 28.3219 455.026 27.5571C453.41 28.3219 447.645 34.561 445.902 36.1911C442.848 39.0485 419.866 61.848 419.069 62.2046ZM483.197 85.6739C483.896 83.4078 483.531 70.5262 483.573 66.4121C483.607 63.215 483.107 63.583 481.477 61.9569C479.712 60.1962 456.385 36.6952 455.026 35.8315C453.666 36.6952 430.339 60.1962 428.574 61.9569C426.945 63.583 426.445 63.215 426.478 66.4121C426.521 70.5262 426.155 83.4078 426.855 85.6739C430.245 98.9597 479.8 99.1373 483.197 85.6739V85.6739Z" fill="#FEFEFE"/>
<path fill-rule="evenodd" clip-rule="evenodd" d="M436.019 74.8874L442.207 68.699L449.306 75.798L469.095 56.0092L475.284 62.1976L455.495 81.9864L449.306 88.1748L443.118 81.9864L436.019 74.8874Z" fill="#007bff"/>
</svg>
