<svg xmlns="http://www.w3.org/2000/svg" width="25.542" height="19.256" viewBox="0 0 25.542 19.256">
  <g id="Page-1" transform="translate(0.264 0.25)">
    <g id="_037---Sheet" data-name="037---Sheet" transform="translate(0.003)">
      <path id="Shape" d="M24.927,10.028,23.688,3.956A5.021,5.021,0,0,0,18.8,0H6.623A5.02,5.02,0,0,0,1.736,3.955L.127,11.485a.241.241,0,0,0,0,.03,6.025,6.025,0,0,0,6.081,7.237H22.713a2.292,2.292,0,0,0,2.281-2.516,2.327,2.327,0,0,0-1.762-1.993,4.151,4.151,0,0,0,1.695-4.205s0-.007,0-.011ZM2.551,4.129A4.183,4.183,0,0,1,6.623.833H18.8a4.182,4.182,0,0,1,4.072,3.292l.736,3.605a4.145,4.145,0,0,0-2.77-1.063H6.044A5.99,5.99,0,0,0,1.669,8.547c-.029.03-.053.064-.083.095Zm18.287,10.04H6.044a1.461,1.461,0,0,1-1.451-1.605,1.517,1.517,0,0,1,1.535-1.312h14.71a.417.417,0,0,0,0-.833H6.128a2.358,2.358,0,0,0-2.364,2.064A2.294,2.294,0,0,0,6.044,15H22.633a1.514,1.514,0,0,1,1.532,1.314,1.448,1.448,0,0,1-.372,1.125,1.463,1.463,0,0,1-1.079.478H6.208A5.289,5.289,0,0,1,.842,12.973,5.214,5.214,0,0,1,6.044,7.5H20.838a3.334,3.334,0,0,1,0,6.668Z" transform="translate(-0.003)" stroke="#000" stroke-width="0.5"/>
      <path id="Shape-2" data-name="Shape" d="M8.382,7.13a.413.413,0,0,0,.087.009.417.417,0,0,0,.407-.33,2.508,2.508,0,0,1,2.442-1.975H14.7A.417.417,0,0,0,14.7,4h-3.38A3.346,3.346,0,0,0,8.06,6.635a.417.417,0,0,0,.321.494Z" transform="translate(-4.697 -2.333)" stroke="#000" stroke-width="0.5"/>
      <circle id="Oval" cx="0.776" cy="0.776" r="0.776" transform="translate(10.864 1.552)" stroke="#000" stroke-width="0.5"/>
    </g>
  </g>
</svg>
