<?xml version="1.0" encoding="UTF-8"?>
<!DOCTYPE svg PUBLIC "-//W3C//DTD SVG 1.1//EN" "http://www.w3.org/Graphics/SVG/1.1/DTD/svg11.dtd">
<!-- Creator: CorelDRAW 2017 -->
<svg xmlns="http://www.w3.org/2000/svg" xml:space="preserve" width="1250mm" height="1300mm" version="1.1" style="shape-rendering:geometricPrecision; text-rendering:geometricPrecision; image-rendering:optimizeQuality; fill-rule:evenodd; clip-rule:evenodd"
viewBox="0 0 125000 130000"
 xmlns:xlink="http://www.w3.org/1999/xlink">
 <defs>
  <style type="text/css">
   <![CDATA[
    .fil1 {fill:#0098DA}
    .fil2 {fill:#FEFEFE}
    .fil0 {fill:#0098DA;fill-rule:nonzero}
   ]]>
  </style>
 </defs>
 <g id="Слой_x0020_1">
  <metadata id="CorelCorpID_0Corel-Layer"/>
  <g id="_2002368902624">
   <path class="fil0" d="M35106.56 70060.82l-2363.2 -3441.46c1039.14,-351.97 2329.68,-1578.26 2329.68,-3340.89 0,-1075.46 -351.97,-2030.79 -972.1,-2634.17 -703.93,-703.93 -1508.43,-1072.66 -3335.3,-1072.66l-4223.61 0c-385.48,0 -469.29,184.37 -469.29,486.05l0 10053.41c0,388.28 167.61,488.84 469.29,488.84l1659.28 0c301.68,0 486.05,-100.56 486.05,-488.84l0 -8193.01 2229.12 0c871.54,0 1541.95,553.09 1541.95,1427.42 0,787.74 -770.97,1360.38 -1592.23,1360.38l-335.21 0c-385.49,0 -486.05,184.36 -486.05,486.05l0 1343.62c0,469.29 33.52,653.65 184.37,854.78l1810.11 2704c234.65,354.76 435.77,505.6 838.02,505.6l1977.72 0c318.44,0 402.25,-304.48 251.4,-539.12zm10123.24 -1807.33l-5346.54 0 0 -2212.36 4491.77 0c385.48,0 486.04,-184.36 486.04,-486.05l0 -1307.31c0,-301.68 -100.56,-486.04 -486.04,-486.04l-4491.77 0 0 -1826.88 5061.62 0c385.48,0 486.05,-184.36 486.05,-486.05l0 -1391.11c0,-301.68 -100.57,-486.05 -486.05,-486.05l-7223.71 0c-385.48,0 -486.05,184.37 -486.05,486.05l0 10056.2c0,301.69 100.57,486.05 486.05,486.05l7508.63 0c385.49,0 486.05,-184.36 486.05,-486.05l0 -1374.35c0,-301.68 -100.56,-486.05 -486.05,-486.05zm7709.76 -4056c-670.42,-268.16 -3134.18,-636.89 -3134.18,-1659.27 0,-754.21 921.81,-972.1 1474.9,-972.1 502.81,0 1106.19,150.85 1424.63,452.53 201.13,201.12 284.93,335.21 351.97,502.81 83.8,217.89 134.08,452.53 452.53,452.53l1642.51 0c385.49,0 486.05,-67.04 486.05,-469.29 0,-2212.36 -2329.69,-3184.46 -4458.25,-3184.46 -2095.04,83.8 -4072.76,1156.46 -4072.76,3335.3 0,2128.57 1558.71,2798.98 3251.51,3335.31 1424.62,452.53 2916.29,469.29 2916.29,1407.87 0,938.58 -737.45,1139.7 -1642.51,1139.7 -620.13,0 -1307.3,-150.84 -1642.51,-553.09 -217.89,-251.41 -301.69,-469.29 -318.45,-687.18 -33.52,-419 -217.88,-469.28 -603.37,-469.28l-1625.75 0c-385.49,0 -486.05,83.8 -486.05,469.28 0,2346.45 2413.49,3553.19 4508.53,3553.19 2581.09,0 4458.25,-1139.7 4458.25,-3519.66 0,-2279.41 -1776.6,-2765.46 -2983.34,-3134.19l0 0zm12402.64 -4625.85l-7776.79 0c-385.49,0 -486.05,184.37 -486.05,486.05l0 1391.11c0,301.69 100.56,486.05 486.05,486.05l2581.09 0 0 8179.04c0,385.49 184.36,486.05 486.05,486.05l1659.27 0c301.69,0 486.05,-100.56 486.05,-486.05l0 -8179.04 2564.33 0c385.49,0 486.05,-184.36 486.05,-486.05l0 -1391.11c0,-301.68 -100.56,-486.05 -486.05,-486.05zm10827.18 3536.43c0,-2648.13 -2514.05,-3787.83 -4508.53,-3787.83 -1994.48,0 -4475.01,1139.7 -4475.01,3787.83l0 3955.44c0,2648.13 2480.53,3787.83 4475.01,3787.83 1994.48,0 4508.53,-1139.7 4508.53,-3787.83l0 -3955.44zm-2631.38 3720.8c0,1072.66 -770.97,1692.79 -1877.15,1692.79 -1089.43,0 -1860.4,-620.13 -1860.4,-1692.79l0 -3486.15c0,-1072.66 770.97,-1692.8 1860.4,-1692.8 1106.18,0 1877.15,620.14 1877.15,1692.8l0 3486.15zm13810.51 3231.95l-2363.2 -3441.46c1039.14,-351.97 2329.68,-1578.26 2329.68,-3340.89 0,-1075.46 -351.97,-2030.79 -972.1,-2634.17 -703.93,-703.93 -1508.43,-1072.66 -3335.3,-1072.66l-4223.61 0c-385.48,0 -469.29,184.37 -469.29,486.05l0 10053.41c0,388.28 167.61,488.84 469.29,488.84l1659.28 0c301.68,0 486.05,-100.56 486.05,-488.84l0 -8193.01 2229.12 0c871.54,0 1541.95,553.09 1541.95,1427.42 0,787.74 -770.97,1360.38 -1592.23,1360.38l-335.21 0c-385.49,0 -486.05,184.36 -486.05,486.05l0 1343.62c0,469.29 33.52,653.65 184.37,854.78l1810.11 2704c234.65,354.76 435.77,505.6 838.02,505.6l1977.72 0c318.44,0 402.25,-304.48 251.4,-539.12zm11313.23 -10489.18l-2262.65 0c-385.49,0 -502.81,33.52 -838.02,402.25l-3469.38 3821.36 0 -3737.56c0,-385.49 -184.37,-486.05 -469.29,-486.05l-1659.28 0c-318.44,0 -486.05,100.56 -486.05,486.05l0 10056.2c0,385.49 167.61,486.05 486.05,486.05l1659.28 0c284.92,0 469.29,-100.56 469.29,-486.05l0 -2983.34 1039.14 -1089.42c905.05,1508.43 2396.72,4022.48 2396.72,4022.48 217.89,351.97 435.77,536.33 838.02,536.33l2044.76 0c318.45,0 385.49,-318.45 251.41,-536.33l-3603.48 -5933.16 3771.08 -4089.52c150.84,-150.84 150.84,-469.29 -167.6,-469.29z"/>
   <g>
    <path class="fil1" d="M71502.56 59148.66c3228.91,0 5846.46,2617.55 5846.46,5846.46 0,3228.91 -2617.55,5846.46 -5846.46,5846.46 -3228.91,0 -5846.46,-2617.55 -5846.46,-5846.46 0,-3228.91 2617.55,-5846.46 5846.46,-5846.46z"/>
    <path class="fil2" d="M67906.93 65320.46c-922.37,-758.05 145.9,-1392.97 672.8,-1935.89 185.29,-190.93 386.64,-345.33 568,-531.77l1712.26 -1616.59c223.07,-189.18 437.55,-258.78 642.57,-250.19 205.02,-8.59 419.5,61.01 642.57,250.19l1712.26 1616.59c181.36,186.44 382.71,340.84 568,531.77 526.9,542.92 1595.17,1177.84 672.8,1935.89 -79.66,-35.66 -2377.85,-2315.61 -2683.31,-2601.35 -174.26,-163.01 -750.8,-786.92 -912.32,-863.4 -161.52,76.48 -738.06,700.39 -912.32,863.4 -305.47,285.74 -2603.65,2565.69 -2683.31,2601.35zm6412.73 2346.93c69.98,-226.61 33.4,-1514.78 37.68,-1926.19 3.32,-319.71 -46.67,-282.9 -209.64,-445.51 -176.46,-176.07 -2509.19,-2526.17 -2645.14,-2612.54 -135.95,86.37 -2468.68,2436.47 -2645.14,2612.54 -162.97,162.61 -212.96,125.8 -209.64,445.51 4.28,411.41 -32.3,1699.58 37.68,1926.19 339.05,1328.58 5294.54,1346.34 5634.2,0z"/>
    <polygon class="fil1" points="69601.9,66588.74 70220.74,65969.9 70930.63,66679.8 72909.52,64700.92 73528.35,65319.76 71549.47,67298.64 70930.63,67917.48 70311.8,67298.64 "/>
   </g>
  </g>
 </g>
</svg>
