<svg xmlns="http://www.w3.org/2000/svg" width="10.466" height="13.955" viewBox="0 0 10.466 13.955">
  <g id="sort" transform="translate(-14 -8)">
    <path id="Контур_121" data-name="Контур 121" d="M19.063,10.206,17.028,8.171a.581.581,0,0,0-.822,0l-2.035,2.035a.581.581,0,0,0,.822.822l1.043-1.043V21.374a.581.581,0,0,0,1.163,0V9.985l1.043,1.043a.581.581,0,0,0,.822-.822Z" transform="translate(0 0)"/>
    <path id="Контур_122" data-name="Контур 122" d="M37.063,18.927a.581.581,0,0,0-.822,0L35.2,19.97V8.581a.581.581,0,1,0-1.163,0V19.97l-1.043-1.043a.581.581,0,0,0-.822.822l2.035,2.035a.581.581,0,0,0,.822,0l2.035-2.035a.581.581,0,0,0,0-.822Z" transform="translate(-12.767)"/>
  </g>
</svg>
