<svg id="swimming-pool" xmlns="http://www.w3.org/2000/svg" width="34.396" height="34.396" viewBox="0 0 34.396 34.396">
  <path id="Контур_1" data-name="Контур 1" d="M32.515,5.194V3.023a3.023,3.023,0,1,0-6.046,0V4.97H23.244V3.023a3.023,3.023,0,1,0-6.046,0V4.97H3.023A3.027,3.027,0,0,0,0,7.993v23.38A3.027,3.027,0,0,0,3.023,34.4h28.35A3.027,3.027,0,0,0,34.4,31.373V7.993a3.027,3.027,0,0,0-1.881-2.8ZM28.484,3.023a1.008,1.008,0,1,1,2.015,0V4.97H28.484ZM19.214,13.57V11.353h7.255v1.88a3.749,3.749,0,0,0-1.176-.2,5.44,5.44,0,0,0-2.483.782,3.869,3.869,0,0,1-1.565.561,3.869,3.869,0,0,1-1.565-.561c-.151-.078-.308-.157-.468-.235C19.213,13.577,19.214,13.574,19.214,13.57Zm7.255-4.232H19.214V6.985h7.255ZM19.214,3.023a1.008,1.008,0,1,1,2.015,0V4.97H19.214Zm13.167,28.35a1.009,1.009,0,0,1-1.008,1.008H3.023a1.009,1.009,0,0,1-1.008-1.008V7.993A1.009,1.009,0,0,1,3.023,6.985H17.2v6.048a5.44,5.44,0,0,0-2.483.782,3.868,3.868,0,0,1-1.565.561,3.869,3.869,0,0,1-1.565-.561A5.44,5.44,0,0,0,9.1,13.033a10.827,10.827,0,0,0-4.27,1.338l-.216.105a1.008,1.008,0,1,0,.876,1.815l.227-.111A9.507,9.507,0,0,1,9.1,15.048a3.869,3.869,0,0,1,1.565.561,5.439,5.439,0,0,0,2.483.782,5.44,5.44,0,0,0,2.483-.782,3.869,3.869,0,0,1,1.565-.561,3.869,3.869,0,0,1,1.565.561,5.439,5.439,0,0,0,2.483.782,5.44,5.44,0,0,0,2.483-.782,3.869,3.869,0,0,1,1.565-.561,3.869,3.869,0,0,1,1.565.561,5.439,5.439,0,0,0,2.483.782,1.008,1.008,0,1,0,0-2.015,2.249,2.249,0,0,1-.857-.218V6.985h2.889a1.009,1.009,0,0,1,1.008,1.008Z"/>
  <path id="Контур_2" data-name="Контур 2" d="M268.647,294a5.408,5.408,0,0,0-2.432.75,4.07,4.07,0,0,1-1.489.539,3.342,3.342,0,0,1-1.927-.553,4.617,4.617,0,0,0-2.412-.71,8.2,8.2,0,0,0-3.895,1.4,1.008,1.008,0,1,0,1.028,1.733,6.543,6.543,0,0,1,2.9-1.121,2.76,2.76,0,0,1,1.424.47,5.351,5.351,0,0,0,2.74.8q.109,0,.222,0a5.66,5.66,0,0,0,2.311-.751,3.831,3.831,0,0,1,1.529-.537,1.008,1.008,0,0,0,0-2.016Z" transform="translate(-238.8 -274.249)"/>
  <path id="Контур_3" data-name="Контур 3" d="M81.836,391.123l-.312.158a3.868,3.868,0,0,1-1.565.561,3.868,3.868,0,0,1-1.565-.561,5.44,5.44,0,0,0-2.483-.782,10.23,10.23,0,0,0-4.514,1.458,1.008,1.008,0,1,0,.932,1.787,8.84,8.84,0,0,1,3.582-1.229,3.869,3.869,0,0,1,1.565.561,4.331,4.331,0,0,0,4.966,0l.294-.149a1.008,1.008,0,1,0-.9-1.8Z" transform="translate(-66.096 -364.265)"/>
</svg>
