<svg xmlns="http://www.w3.org/2000/svg" width="107.805" height="107.805" viewBox="0 0 107.805 107.805">
  <g id="sydney-opera-house" transform="translate(-1 -1)" opacity="0.203">
    <path id="Контур_78" data-name="Контур 78" d="M108.3,53.673,56.132,1.509a1.739,1.739,0,0,0-2.459,0L1.509,53.673a1.739,1.739,0,0,0,1.229,2.968h8.694V98.372H9.694a1.739,1.739,0,0,0-1.739,1.739v6.955a1.739,1.739,0,0,0,1.739,1.739h90.417a1.739,1.739,0,0,0,1.739-1.739v-6.955a1.739,1.739,0,0,0-1.739-1.739H98.372V56.641h8.694a1.739,1.739,0,0,0,1.229-2.968Zm-9.923,51.654H11.433V101.85h86.94ZM46.209,98.372H25.343v-31.3H46.209Zm3.478,0V65.335A1.739,1.739,0,0,0,47.947,63.6H23.6a1.739,1.739,0,0,0-1.739,1.739V98.372H14.91V55.622L54.9,15.63,94.895,55.622v42.75ZM97.354,53.164,56.132,11.942a1.739,1.739,0,0,0-2.459,0L12.452,53.164H6.936L54.9,5.2l47.966,47.966Z" fill="#077bff"/>
    <path id="Контур_79" data-name="Контур 79" d="M49.343,31.172A12.172,12.172,0,1,0,37.172,43.343,12.172,12.172,0,0,0,49.343,31.172Zm-20.866,0a8.694,8.694,0,1,1,8.694,8.694,8.694,8.694,0,0,1-8.694-8.694Z" transform="translate(17.731 13.298)" fill="#077bff"/>
    <path id="Контур_80" data-name="Контур 80" d="M67.515,37H32.739A1.739,1.739,0,0,0,31,38.739V63.082a1.739,1.739,0,0,0,1.739,1.739H67.515a1.739,1.739,0,0,0,1.739-1.739V38.739A1.739,1.739,0,0,0,67.515,37ZM65.776,49.172H51.866V40.478h13.91ZM48.388,40.478v8.694H34.478V40.478ZM34.478,52.649h13.91v8.694H34.478Zm17.388,8.694V52.649h13.91v8.694Z" transform="translate(22.164 26.597)" fill="#077bff"/>
    <rect id="Прямоугольник_210" data-name="Прямоугольник 210" width="3" height="7" transform="translate(28.903 77.903)" fill="#077bff"/>
  </g>
</svg>
