<svg id="Layer_1" data-name="Layer 1" xmlns="http://www.w3.org/2000/svg" viewBox="0 0 160.32 193.4"><title>user</title><path d="M184,102.8a46,46,0,0,0-46,46,5.89,5.89,0,0,0,6,6h10.8c23,0,46.4,0,63.2-15v.2a22.82,22.82,0,0,0,2.2-2.2,6,6,0,0,1,8.4-.6,6.1,6.1,0,0,1,.4,8.8l-2.8,2.8a5.17,5.17,0,0,0,1.8,8.4,22.87,22.87,0,0,0,6.4,1.4,6.06,6.06,0,0,1,5.4,6v13.6c.2,21-15.8,39.2-37,40.8A40.12,40.12,0,0,1,160,179.2a6,6,0,1,0-12-.2,52,52,0,0,0,104,2.6V145a28,28,0,0,0-24.8-27.8l-.8-1.2A31.37,31.37,0,0,0,201,102.8ZM200,241a91.68,91.68,0,0,0-79.4,46.2,6.12,6.12,0,0,0,2.2,8.2,5.64,5.64,0,0,0,3,.8,5.8,5.8,0,0,0,5.2-3,79.32,79.32,0,0,1,138,0,6,6,0,1,0,10.4-6A91.68,91.68,0,0,0,200,241Z" transform="translate(-119.84 -102.8)"/></svg>