<svg id="user" xmlns="http://www.w3.org/2000/svg" width="25.086" height="25.086" viewBox="0 0 25.086 25.086">
  <path id="Контур_36" data-name="Контур 36" d="M12.543,0A12.543,12.543,0,1,0,25.086,12.543,12.557,12.557,0,0,0,12.543,0Zm0,23.616A11.073,11.073,0,1,1,23.616,12.543,11.086,11.086,0,0,1,12.543,23.616Z" fill="#077bff"/>
  <path id="Контур_37" data-name="Контур 37" d="M156.145,70.289A5.145,5.145,0,1,0,151,65.145,5.15,5.15,0,0,0,156.145,70.289Zm0-8.819a3.675,3.675,0,1,1-3.675,3.675A3.679,3.679,0,0,1,156.145,61.47Z" transform="translate(-143.602 -57.06)" fill="#077bff"/>
  <path id="Контур_38" data-name="Контур 38" d="M97.116,301.737A5.149,5.149,0,0,0,93.262,300H84.443a5.149,5.149,0,0,0-3.853,1.737l-.348.394.26.457a9.605,9.605,0,0,0,16.7,0l.26-.457Zm-8.263,4.241a8.157,8.157,0,0,1-6.78-3.64,3.678,3.678,0,0,1,2.371-.867h8.819a3.678,3.678,0,0,1,2.371.867A8.157,8.157,0,0,1,88.852,305.978Z" transform="translate(-76.31 -285.301)" fill="#077bff"/>
</svg>
