<svg xmlns="http://www.w3.org/2000/svg" width="50.085" height="50.085" viewBox="0 0 50.085 50.085">
  <g id="Filled_outline" data-name="Filled outline" transform="translate(-16 -16)">
    <path id="Контур_301" data-name="Контур 301" d="M317.426,220.521a5.212,5.212,0,0,0,4.944-3.564l.482-1.445h-.835a1.669,1.669,0,0,1-1.669-1.669V208h-6.678v5.843A1.669,1.669,0,0,1,312,215.513l.482,1.445A5.212,5.212,0,0,0,317.426,220.521Z" transform="translate(-265.114 -171.966)" fill="#e0e0de"/>
    <path id="Контур_302" data-name="Контур 302" d="M192,381.437h5.843l3.3-11.236-5.805-1.179Z" transform="translate(-157.636 -316.187)" fill="#e0e0de"/>
    <path id="Контур_303" data-name="Контур 303" d="M246.566,280h-2.5l-.482,1.445a5.212,5.212,0,0,1-9.888,0L233.21,280h-3.479a4.174,4.174,0,0,0-4.03,3.089l-1.67,6.2,5.805,1.179.869-2.955V301.7h15.025V290.852h5.008v-6.678A4.174,4.174,0,0,0,246.566,280Z" transform="translate(-186.324 -236.453)" fill="#5faaff"/>
    <path id="Контур_304" data-name="Контур 304" d="M334.678,208v4.227a7.523,7.523,0,0,1-6.678,0V208Z" transform="translate(-279.445 -171.966)" fill="#dbdbd9"/>
    <path id="Контур_305" data-name="Контур 305" d="M432,394.852h1.669a3.339,3.339,0,0,0,3.339-3.339V384H432Z" transform="translate(-372.593 -329.602)" fill="#e0e0de"/>
    <path id="Контур_306" data-name="Контур 306" d="M288.186,337.669V336H273.16v1.669a5.9,5.9,0,0,0,0,8.347v5.843h15.025v-5.843A5.9,5.9,0,0,0,288.186,337.669Z" transform="translate(-228.779 -286.61)" fill="#5faaff"/>
    <path id="Контур_307" data-name="Контур 307" d="M288,420.174h6.678l6.226,2.49a11.863,11.863,0,0,0,4.407.849,2.723,2.723,0,0,0,.474-5.4L293.843,416H290.5l-2.5.835Z" transform="translate(-243.619 -358.263)" fill="#e0e0de"/>
    <path id="Контур_308" data-name="Контур 308" d="M432,64a5.843,5.843,0,0,1,5.843,5.843V83.2A5.843,5.843,0,0,1,432,77.356Z" transform="translate(-372.593 -42.992)" fill="#dbdbd9"/>
    <path id="Контур_309" data-name="Контур 309" d="M258.5,128h.835v5.008H258.5a2.5,2.5,0,1,1,0-5.008Z" transform="translate(-214.958 -100.314)" fill="#e0e0de"/>
    <path id="Контур_310" data-name="Контур 310" d="M295.513,68.034A7.513,7.513,0,0,1,288,60.521V54.678A6.678,6.678,0,0,1,294.678,48h1.669a6.678,6.678,0,0,1,6.678,6.678v5.843A7.513,7.513,0,0,1,295.513,68.034Z" transform="translate(-243.619 -28.661)" fill="#fff"/>
    <path id="Контур_311" data-name="Контур 311" d="M272,33.182v2.5c10.852-.835,14.191-5.843,14.191-5.843l2.5,5.008,1.669.835v-2.5a9.182,9.182,0,0,0-18.364,0Z" transform="translate(-229.288 -7.165)" fill="#dbdbd9"/>
    <path id="Контур_312" data-name="Контур 312" d="M432,128h.835a2.5,2.5,0,1,1,0,5.008H432Z" transform="translate(-372.593 -100.314)" fill="#e0e0de"/>
    <rect id="Прямоугольник_527" data-name="Прямоугольник 527" width="28" height="20" rx="10" transform="translate(17.085 37.919)" fill="#d5d5d3"/>
    <path id="Контур_313" data-name="Контур 313" d="M128,456h10.017v3.339H128Z" transform="translate(-100.314 -394.089)" fill="#d5d5d3"/>
    <path id="Контур_314" data-name="Контур 314" d="M104.347,373.356H96L99.339,360h6.678Z" transform="translate(-71.653 -308.106)" fill="#dfdfdd"/>
    <path id="Контур_316" data-name="Контур 316" d="M46.538,55.025H37.356l-2.5,5.008-2.5-5.008H27.339A3.339,3.339,0,0,1,24,51.686V43.339A3.339,3.339,0,0,1,27.339,40h19.2a3.339,3.339,0,0,1,3.339,3.339v8.347A3.339,3.339,0,0,1,46.538,55.025Z" transform="translate(-7.165 -21.496)" fill="#348ed8"/>
    <path id="Контур_317" data-name="Контур 317" d="M256,456h10.852v3.339H256Z" transform="translate(-214.958 -394.089)" fill="#dfdfdd"/>
    <path id="Контур_318" data-name="Контур 318" d="M58.9,36.418a6.689,6.689,0,0,0,6.354,4.625.835.835,0,0,0,.835-.835V26.852a6.674,6.674,0,0,0-6.032-6.645,10.015,10.015,0,0,0-15.241-1.272c-.225.225-.441.463-.644.708l1.287,1.064c.169-.2.349-.4.537-.591a8.347,8.347,0,0,1,12.885,1.328l.016.026a8.3,8.3,0,0,1,1.348,4.548v.835h-.319L57.649,22.3a.835.835,0,0,0-1.441-.09c-.026.039-2.71,3.933-11.116,5.2l.249,1.651c.372-.056.733-.118,1.086-.183a1.252,1.252,0,1,0,1.322-.277,18.665,18.665,0,0,0,8.961-4.447l1.863,3.726V31.86a6.644,6.644,0,0,1-3.711,5.984,6.86,6.86,0,0,1-5.193.314A6.741,6.741,0,0,1,45.6,34.086l-1.574.557a8.308,8.308,0,0,0,4.533,4.868v2.367a.836.836,0,0,1-.835.835v1.669a2.507,2.507,0,0,0,2.5-2.5V40.04c0,.326,4.174.164,4.174-.214v2.051a2.507,2.507,0,0,0,2.187,2.483,5.416,5.416,0,0,1-1.714,2.533,4.311,4.311,0,0,1-3.833.636,4.38,4.38,0,0,1-2.582-2.116l-1.471.788A6.051,6.051,0,0,0,49.9,48.888a6.167,6.167,0,0,0,5.945-.64,6.012,6.012,0,0,0,2.2-2.992l.292-.875h1.9a3.343,3.343,0,0,1,3.339,3.339v5.843H61.762a6.667,6.667,0,0,0-1.52-2.837V49.39H58.572v1.669a.835.835,0,0,0,.244.59,5.222,5.222,0,0,1,.32,6.813L50.37,56.915a.835.835,0,0,0-.145-.013H46.886v1.67h3.266L62.02,60.667a1.889,1.889,0,0,1-.328,3.749,10.981,10.981,0,0,1-4.1-.789l-6-2.4a2.1,2.1,0,0,0-.851-.148c-1.865,0-9.7,0-9.7,0a.835.835,0,0,0-.835.835v2.5h-1.67v-2.5a.835.835,0,0,0-.835-.835H34.058l.209-1.669h8.445a3.434,3.434,0,0,0,2.226-.851,3.341,3.341,0,0,0,1.113-2.488V41.042A3.343,3.343,0,0,0,42.712,37.7H30.191v1.669H42.712a1.671,1.671,0,0,1,1.669,1.669V56.068a1.723,1.723,0,0,1-1.669,1.669H34.475L35.193,52a.835.835,0,0,0-.828-.938H27.686a.835.835,0,0,0-.81.632l-1.511,6.046H19.339a1.671,1.671,0,0,1-1.669-1.669V41.042a1.671,1.671,0,0,1,1.669-1.669h5.843V37.7H19.339A3.343,3.343,0,0,0,16,41.042V56.068a3.343,3.343,0,0,0,3.339,3.339h5.609L23.7,64.415H16v1.669H66.085V64.415h-1.38a3.536,3.536,0,0,0,.545-1.889V47.72a5.014,5.014,0,0,0-5.008-5.008H56.9a.836.836,0,0,1-.835-.835V39.09A8.326,8.326,0,0,0,58.9,36.418Zm3.015-6.227a1.671,1.671,0,0,1-1.669,1.669V28.521a1.671,1.671,0,0,1,1.669,1.669Zm-.775-8.04a5.009,5.009,0,0,1,3.279,4.7V39.3a5.017,5.017,0,0,1-4.174-4.939V33.53A3.338,3.338,0,0,0,61.911,27.3V26.017A9.99,9.99,0,0,0,61.137,22.151ZM55.072,64.415H51.894V63.144Zm-29.656,0,2.922-11.686h5.081L31.958,64.415Zm8.224,0,.209-1.669h3.019v1.669Zm8.237,0V62.746h8.347v1.669ZM62.31,59.022l-1.353-.239c.022-.035.045-.069.066-.1a6.726,6.726,0,0,0,.947-3.446h1.61V59.51A3.558,3.558,0,0,0,62.31,59.022Z" transform="translate(0 0)"/>
    <path id="Контур_319" data-name="Контур 319" d="M378.5,137.252a1.252,1.252,0,1,0-1.252,1.252A1.252,1.252,0,0,0,378.5,137.252Z" transform="translate(-322.436 -107.479)"/>
    <path id="Контур_320" data-name="Контур 320" d="M331.508,339.959l-1.285-1.066a4.2,4.2,0,0,1-3.43,1.368,4.478,4.478,0,0,1-3.178-1.1l-1.156,1.2a6.03,6.03,0,0,0,4.335,1.563A5.807,5.807,0,0,0,331.508,339.959Z" transform="translate(-274.482 -289.201)"/>
    <path id="Контур_321" data-name="Контур 321" d="M333.008,184h-1.669a.835.835,0,0,1-1.669,0H328a2.5,2.5,0,0,0,5.008,0Z" transform="translate(-279.445 -150.47)"/>
    <path id="Контур_322" data-name="Контур 322" d="M48,256h3.339v1.669H48Z" transform="translate(-28.661 -214.958)"/>
    <path id="Контур_323" data-name="Контур 323" d="M96,256h3.339v1.669H96Z" transform="translate(-71.653 -214.958)"/>
    <path id="Контур_324" data-name="Контур 324" d="M144,256h3.339v1.669H144Z" transform="translate(-114.644 -214.958)"/>
    <path id="Контур_325" data-name="Контур 325" d="M192,256h3.339v1.669H192Z" transform="translate(-157.636 -214.958)"/>
    <path id="Контур_326" data-name="Контур 326" d="M240,256h3.339v1.669H240Z" transform="translate(-200.627 -214.958)"/>
    <path id="Контур_327" data-name="Контур 327" d="M20.174,48.695h4.493l2.274,4.547a.835.835,0,0,0,1.493,0l2.274-4.547h8.666a4.178,4.178,0,0,0,4.174-4.174V36.174A4.178,4.178,0,0,0,39.373,32h-19.2A4.178,4.178,0,0,0,16,36.174v8.347a4.178,4.178,0,0,0,4.174,4.174Zm-2.5-12.521a2.507,2.507,0,0,1,2.5-2.5h19.2a2.507,2.507,0,0,1,2.5,2.5v8.347a2.507,2.507,0,0,1-2.5,2.5H30.191a.835.835,0,0,0-.747.461L27.686,51l-1.758-3.515a.835.835,0,0,0-.747-.461H20.174a2.507,2.507,0,0,1-2.5-2.5Z" transform="translate(0 -14.331)"/>
    <path id="Контур_328" data-name="Контур 328" d="M200,72h4.174v1.669H200Z" transform="translate(-164.801 -50.157)"/>
    <path id="Контур_329" data-name="Контур 329" d="M56,104H74.364v1.669H56Z" transform="translate(-35.826 -78.818)"/>
    <path id="Контур_330" data-name="Контур 330" d="M56,136H74.364v1.669H56Z" transform="translate(-35.826 -107.479)"/>
    <path id="Контур_331" data-name="Контур 331" d="M56,72H69.356v1.669H56Z" transform="translate(-35.826 -50.157)"/>
  </g>
</svg>
