<svg id="dog" xmlns="http://www.w3.org/2000/svg" width="25" height="25" viewBox="0 0 25 25">
  <path id="Контур_101" data-name="Контур 101" d="M24.4,16.974c-.141-.425-.287-.864-.431-1.41a39.584,39.584,0,0,1-.649-4.556c-.068-.627-.132-1.219-.2-1.723A7.7,7.7,0,0,0,19.6,4.175a8.423,8.423,0,0,0-1.326-1.738,8.066,8.066,0,0,0-11.554,0A8.423,8.423,0,0,0,5.4,4.175a7.7,7.7,0,0,0-3.52,5.109c-.063.5-.127,1.1-.2,1.723a39.584,39.584,0,0,1-.649,4.556c-.145.546-.29.985-.431,1.41A9.053,9.053,0,0,0,0,20.207a4.793,4.793,0,0,0,9.416,1.268,3.349,3.349,0,0,0,.76.091h.017A3.217,3.217,0,0,0,12.5,20.6a3.216,3.216,0,0,0,2.307.966h.017a3.349,3.349,0,0,0,.76-.091A4.8,4.8,0,0,0,20.207,25,4.821,4.821,0,0,0,25,20.207,9.053,9.053,0,0,0,24.4,16.974Zm-19.6,6.562a3.356,3.356,0,0,1-3.328-3.328,7.653,7.653,0,0,1,.528-2.772c.141-.425.3-.907.457-1.5a39.994,39.994,0,0,0,.689-4.774c.067-.621.131-1.207.192-1.7A4.833,4.833,0,0,1,4.409,7.057a10.937,10.937,0,0,0-.078,1.29h0A12.254,12.254,0,0,0,5.207,13.3l1.569,3.826.084,1.35v.013a3.334,3.334,0,0,0,1.059,2.182c.048.044.1.086.147.128a3.333,3.333,0,0,1-3.274,2.733Zm6.859-5.973a.761.761,0,0,1,.392-1.414h.912a.761.761,0,0,1,.392,1.414l-.847.508Zm5.124-.766-.1,1.584a1.866,1.866,0,0,1-1.861,1.72h-.009a1.757,1.757,0,0,1-1.487-.814l.781-.468a2.226,2.226,0,0,0-1.145-4.135h-.912A2.226,2.226,0,0,0,10.9,18.818l.781.468a1.757,1.757,0,0,1-1.487.814h-.009a1.866,1.866,0,0,1-1.861-1.72l-.1-1.584L6.57,12.767a11.125,11.125,0,0,1-.775-4.4h0a7.225,7.225,0,0,1,1.968-4.9,6.6,6.6,0,0,1,9.472,0A6.736,6.736,0,0,1,19.2,8.159h0a11.973,11.973,0,0,1-.773,4.608Zm5.782,5.75a3.3,3.3,0,0,1-2.352.989A3.333,3.333,0,0,1,16.933,20.8c.05-.041.1-.083.147-.128a3.334,3.334,0,0,0,1.059-2.182l.085-1.363,1.564-3.813.005-.013a13.27,13.27,0,0,0,.875-5.144h0a7.988,7.988,0,0,0-.077-1.1,4.833,4.833,0,0,1,1.078,2.409c.061.492.125,1.078.192,1.7a40,40,0,0,0,.689,4.774c.156.589.316,1.071.457,1.5a7.653,7.653,0,0,1,.528,2.772,3.307,3.307,0,0,1-.977,2.34Z" transform="translate(0 0)"/>
  <path id="Контур_102" data-name="Контур 102" d="M159.221,195.665h-.747v1.493h1.493v-1.493Z" transform="translate(-150.745 -186.122)"/>
  <path id="Контур_103" data-name="Контур 103" d="M325.019,197.158v-1.493h-1.493v1.493Z" transform="translate(-307.748 -186.122)"/>
</svg>
