<svg id="info" xmlns="http://www.w3.org/2000/svg" width="22.036" height="22.036" viewBox="0 0 22.036 22.036">
  <g id="Сгруппировать_517" data-name="Сгруппировать 517">
    <g id="Сгруппировать_516" data-name="Сгруппировать 516">
      <path id="Контур_345" data-name="Контур 345" d="M18.809,3.227A11.018,11.018,0,0,0,3.227,18.809,11.018,11.018,0,0,0,18.809,3.227ZM11.018,20.745a9.727,9.727,0,1,1,9.727-9.727A9.738,9.738,0,0,1,11.018,20.745Z"/>
    </g>
  </g>
  <g id="Сгруппировать_519" data-name="Сгруппировать 519" transform="translate(8.651 3.443)">
    <g id="Сгруппировать_518" data-name="Сгруппировать 518">
      <path id="Контур_346" data-name="Контур 346" d="M203.367,80a2.367,2.367,0,1,0,2.367,2.367A2.37,2.37,0,0,0,203.367,80Zm0,3.443a1.076,1.076,0,1,1,1.076-1.076A1.077,1.077,0,0,1,203.367,83.443Z" transform="translate(-201 -80)"/>
    </g>
  </g>
  <g id="Сгруппировать_521" data-name="Сгруппировать 521" transform="translate(8.005 9.469)">
    <g id="Сгруппировать_520" data-name="Сгруппировать 520">
      <path id="Контур_347" data-name="Контур 347" d="M191.165,227.747V220H186v1.291h.861v6.456H186v1.291h6.026v-1.291Zm-1.291,0h-1.722v-6.456h1.722Z" transform="translate(-186 -220)"/>
    </g>
  </g>
</svg>
