<svg id="Speech_Bubble_48_" xmlns="http://www.w3.org/2000/svg" width="10.641" height="9.369" viewBox="0 0 10.641 9.369">
  <g id="Сгруппировать_140" data-name="Сгруппировать 140" transform="translate(0 0)">
    <path id="Контур_92" data-name="Контур 92" d="M1.549,39.905H.795l.533-.533A1.8,1.8,0,0,0,1.843,38.3,4.063,4.063,0,0,1,.251,36.422,3.687,3.687,0,0,1,.144,34.06a4.626,4.626,0,0,1,1.772-2.475,5.791,5.791,0,0,1,3.421-1.049,5.736,5.736,0,0,1,3.955,1.348A4.046,4.046,0,0,1,10.3,36.519,4.162,4.162,0,0,1,9.29,37.927,5.722,5.722,0,0,1,5.338,39.28a7.191,7.191,0,0,1-1.789-.228,2.794,2.794,0,0,1-2,.852Z" transform="translate(0 -30.536)" fill="#fff"/>
  </g>
</svg>
