<svg xmlns="http://www.w3.org/2000/svg" width="73.313" height="73.281" viewBox="0 0 73.313 73.281">
  <g id="Сгруппировать_259" data-name="Сгруппировать 259" transform="translate(0)">
    <path id="Контур_162" data-name="Контур 162" d="M65692.734,59148.656a36.641,36.641,0,1,1-36.641,36.641A36.679,36.679,0,0,1,65692.734,59148.656Z" transform="translate(-65656.094 -59148.656)" fill="#077bff" fill-rule="evenodd"/>
    <path id="Контур_163" data-name="Контур 163" d="M67547.016,61012.484c-5.781-4.75.922-8.719,4.2-12.125,1.188-1.2,2.438-2.172,3.578-3.328l10.719-10.125a5.779,5.779,0,0,1,4.047-1.578,5.628,5.628,0,0,1,4,1.578l10.734,10.125c1.141,1.156,2.391,2.125,3.578,3.328,3.313,3.406,9.984,7.375,4.188,12.125-.469-.219-14.875-14.516-16.8-16.3-1.094-1.016-4.7-4.922-5.7-5.422-1.047.5-4.641,4.406-5.719,5.422C67561.922,60997.969,67547.516,61012.266,67547.016,61012.484Zm40.2,14.719c.422-1.422.2-9.5.234-12.078.016-2-.312-1.766-1.3-2.781-1.141-1.125-15.766-15.844-16.594-16.375-.844.531-15.469,15.25-16.594,16.375-1.016,1.016-1.312.781-1.3,2.781,0,2.578-.234,10.656.219,12.078C67554.047,61035.531,67585.063,61035.625,67587.219,61027.2Z" transform="translate(-67532.922 -60973.813)" fill="#fefefe" fill-rule="evenodd"/>
    <path id="Контур_164" data-name="Контур 164" d="M69601.906,64712.75l3.844-3.875,4.484,4.438,12.391-12.391,3.875,3.875-12.422,12.406-3.844,3.875-3.891-3.875Z" transform="translate(-69577.203 -64666.125)" fill="#077bff" fill-rule="evenodd"/>
  </g>
</svg>
