<svg xmlns="http://www.w3.org/2000/svg" width="302.253" height="607.02" viewBox="0 0 302.253 607.02">
  <g id="Сгруппировать_257" data-name="Сгруппировать 257" transform="translate(-154.527 -2533.564)">
    <g id="Сгруппировать_255" data-name="Сгруппировать 255">
      <path id="Контур_165" data-name="Контур 165" d="M319.192,805.295H91.85a35.652,35.652,0,0,1-35.61-35.612V401.416H53.549V361.744H56.24v-6.6H53.549V315.467H56.24V294.736H53.549V269.2H56.24V234.885a35.652,35.652,0,0,1,35.61-35.61H319.192a35.651,35.651,0,0,1,35.61,35.61v534.8A35.651,35.651,0,0,1,319.192,805.295Z" transform="translate(101.478 2334.789)" fill="rgba(224,224,222,0.15)" stroke="#d6d6d4" stroke-miterlimit="10" stroke-width="1"/>
      <g id="Сгруппировать_252" data-name="Сгруппировать 252" transform="translate(261.32 2550.174)">
        <path id="Контур_166" data-name="Контур 166" d="M137.56,215.466a3.717,3.717,0,1,1,3.718-3.716A3.72,3.72,0,0,1,137.56,215.466Zm0-6.514a2.8,2.8,0,1,0,2.8,2.8A2.8,2.8,0,0,0,137.56,208.953Z" transform="translate(-92.438 -208.033)" fill="#d6d6d4"/>
        <path id="Контур_167" data-name="Контур 167" d="M116.448,226.858a5.113,5.113,0,1,1,5.114-5.114A5.119,5.119,0,0,1,116.448,226.858Zm0-9.306a4.193,4.193,0,1,0,4.194,4.192A4.2,4.2,0,0,0,116.448,217.552Z" transform="translate(-111.334 -200.814)" fill="#d6d6d4"/>
        <path id="Контур_168" data-name="Контур 168" d="M162.192,223.109H127.535a2.669,2.669,0,1,1,0-5.338h34.657a2.669,2.669,0,1,1,0,5.338Zm-34.657-4.418a1.749,1.749,0,1,0,0,3.5h34.657a1.749,1.749,0,1,0,0-3.5Z" transform="translate(-99.974 -199.858)" fill="#d6d6d4"/>
      </g>
      <g id="Сгруппировать_253" data-name="Сгруппировать 253" transform="translate(286.127 3082.556)">
        <path id="Контур_169" data-name="Контур 169" d="M144.129,534.207a17.445,17.445,0,1,1,17.444-17.444A17.465,17.465,0,0,1,144.129,534.207Zm0-33.969a16.525,16.525,0,1,0,16.524,16.526A16.544,16.544,0,0,0,144.129,500.238Z" transform="translate(-123.256 -495.891)" fill="#d6d6d4"/>
        <path id="Контур_170" data-name="Контур 170" d="M145.692,539.2a20.872,20.872,0,1,1,20.872-20.871A20.9,20.9,0,0,1,145.692,539.2Zm0-40.823a19.952,19.952,0,1,0,19.953,19.953A19.975,19.975,0,0,0,145.692,498.375Z" transform="translate(-124.82 -497.455)" fill="#d6d6d4"/>
      </g>
      <g id="Сгруппировать_254" data-name="Сгруппировать 254" transform="translate(155.486 2604.445)">
        <path id="Контур_171" data-name="Контур 171" d="M57.38,262.156H53.8V237.537H57.38Zm-2.662-.92h1.742v-22.78H54.719Z" transform="translate(-53.799 -237.537)" fill="#d6d6d4"/>
        <path id="Контур_172" data-name="Контур 172" d="M57.38,301.447H53.8V262.691H57.38Zm-2.662-.92h1.742V263.611H54.719Z" transform="translate(-53.799 -216.421)" fill="#d6d6d4"/>
        <path id="Контур_173" data-name="Контур 173" d="M57.38,326.6H53.8V287.849H57.38Zm-2.662-.92h1.742V288.769H54.719Z" transform="translate(-53.799 -195.302)" fill="#d6d6d4"/>
      </g>
    </g>
  </g>
</svg>
