<svg id="pin" xmlns="http://www.w3.org/2000/svg" width="11.792" height="16.771" viewBox="0 0 11.792 16.771">
  <g id="Сгруппировать_2" data-name="Сгруппировать 2" transform="translate(0)">
    <g id="Сгруппировать_1" data-name="Сгруппировать 1">
      <path id="Контур_4" data-name="Контур 4" d="M81.9,0A5.9,5.9,0,0,0,76.88,9l4.68,7.542a.491.491,0,0,0,.417.232h0a.491.491,0,0,0,.418-.239L86.96,8.917A5.9,5.9,0,0,0,81.9,0Zm4.221,8.412L81.97,15.335,77.715,8.479a4.917,4.917,0,1,1,8.4-.066Z" transform="translate(-76)" fill="#fff"/>
    </g>
  </g>
  <g id="Сгруппировать_4" data-name="Сгруппировать 4" transform="translate(2.948 2.948)">
    <g id="Сгруппировать_3" data-name="Сгруппировать 3" transform="translate(0)">
      <path id="Контур_5" data-name="Контур 5" d="M168.948,90a2.948,2.948,0,1,0,2.948,2.948A2.951,2.951,0,0,0,168.948,90Zm0,4.92a1.972,1.972,0,1,1,1.969-1.972A1.973,1.973,0,0,1,168.948,94.92Z" transform="translate(-166 -90)" fill="#fff"/>
    </g>
  </g>
</svg>
