<svg id="Сгруппировать_243" data-name="Сгруппировать 243" xmlns="http://www.w3.org/2000/svg" width="50.182" height="50.18" viewBox="0 0 50.182 50.18">
  <path id="Контур_56" data-name="Контур 56" d="M144.146,44.063c0,.124,0,.248,0,.371A20.073,20.073,0,0,1,104,44.063q0-.884.075-1.749a20.073,20.073,0,0,1,40.071,1.749Z" transform="translate(-94.8 -23.157)" fill="#86bfff"/>
  <g id="Сгруппировать_240" data-name="Сгруппировать 240" transform="translate(9.275 0.834)">
    <path id="Контур_57" data-name="Контур 57" d="M128.9,89.2h-3.345v5.855h-7.527v5.018l-13.307-7.6A20.006,20.006,0,0,1,110.55,80h3.3l3.345,6.691h3.345V83.345h5.018Z" transform="translate(-104.72 -74.145)" fill="#fff"/>
    <path id="Контур_58" data-name="Контур 58" d="M232,272h9.2v2.509h5.018l-4.182,8.364h-6.691v-5.855H232Z" transform="translate(-218.693 -246.072)" fill="#e0e0de"/>
    <path id="Контур_59" data-name="Контур 59" d="M272.87,26.7l-5.037,5.666-2.509-4.182h-4.182l-2.2-3.808A20.131,20.131,0,0,1,272.87,26.7Z" transform="translate(-242.817 -24)" fill="#fff"/>
    <path id="Контур_60" data-name="Контур 60" d="M402.036,100.988c0,.124,0,.248,0,.371l-4.178,5.483h-2.509V99.315H392V93.461l4.883-5.9A20,20,0,0,1,402.036,100.988Z" transform="translate(-361.966 -80.915)" fill="#fff"/>
  </g>
  <path id="Контур_61" data-name="Контур 61" d="M81.455,203.345v20.909a2.51,2.51,0,0,1-2.509,2.509H50.509A2.51,2.51,0,0,1,48,224.255V203.345A3.345,3.345,0,0,1,51.345,200H78.109a3.261,3.261,0,0,1,.418.026A3.346,3.346,0,0,1,81.455,203.345Z" transform="translate(-44.655 -180.766)" fill="#86bfff"/>
  <path id="Контур_62" data-name="Контур 62" d="M81.455,203.569v20.909a2.51,2.51,0,0,1-2.509,2.509H50.509A2.51,2.51,0,0,1,48,224.479v-2.67c12.178-2.557,23.686-8.892,30.528-21.559A3.346,3.346,0,0,1,81.455,203.569Z" transform="translate(-44.655 -180.99)" fill="#5faaff"/>
  <path id="Контур_63" data-name="Контур 63" d="M47.418,440.836a2.856,2.856,0,0,1-2.019.836H41.074a2.856,2.856,0,0,1-2.019-.836A2.856,2.856,0,0,0,37.036,440H24v2.509a2.509,2.509,0,0,0,2.509,2.509H59.964a2.509,2.509,0,0,0,2.509-2.509V440H48.6A7.014,7.014,0,0,0,47.418,440.836Z" transform="translate(-23.164 -395.675)" fill="#e0e0de"/>
  <path id="Контур_64" data-name="Контур 64" d="M314.509,440v2.509A2.509,2.509,0,0,1,312,445.018h5.855a2.509,2.509,0,0,0,2.509-2.509V440Z" transform="translate(-281.054 -395.675)" fill="#d6d6d4"/>
  <path id="Контур_65" data-name="Контур 65" d="M166.218,232v18.4l-4.966-3.16a17.227,17.227,0,0,0-8.971-2.691c-.094,0-.187,0-.281,0v-6.691a17.226,17.226,0,0,0,9.255-2.7Z" transform="translate(-137.782 -209.42)" fill="#fff"/>
  <path id="Контур_66" data-name="Контур 66" d="M96,288h5.855v6.691H96Z" transform="translate(-87.636 -259.566)" fill="#348fd9"/>
  <path id="Контур_67" data-name="Контур 67" d="M291.346,300.182l-3.345.836V296l3.345.836Z" transform="translate(-259.563 -266.73)" fill="#cfcfcd"/>
  <path id="Контур_68" data-name="Контур 68" d="M117.018,357.855h-3.345L112,352h3.345Z" transform="translate(-101.964 -316.875)" fill="#d6d6d4"/>
  <path id="Контур_70" data-name="Контур 70" d="M136.344,22.945a20.915,20.915,0,0,0-36,9.632l1.636.347a19.144,19.144,0,0,1,5-9.374h2.429l3.114,6.229a.836.836,0,0,0,.748.462h3.345a.836.836,0,0,0,.836-.836V26.9h3.7l2.39,4.182h-1.9a.836.836,0,0,0-.836.836v.836h4.182a.836.836,0,0,0,.726-1.251l-3.345-5.855a.836.836,0,0,0-.726-.421h-5.018a.836.836,0,0,0-.836.836v2.509h-1.992l-3.114-6.229a.836.836,0,0,0-.748-.462h-1.1a19.079,19.079,0,0,1,7.682-3.7l1.9,3.282a.836.836,0,0,0,.724.418h3.708l2.265,3.776a.836.836,0,0,0,.639.4c.026,0,.052,0,.078,0a.836.836,0,0,0,.625-.281l4.575-5.147a19.234,19.234,0,0,1,3.588,2.906l-4.414,5.334a.836.836,0,0,0-.192.533V35.26a.836.836,0,0,0,.836.836h2.509v6.691a.836.836,0,0,0,.836.836h2.509a.836.836,0,0,0,.665-.329l2.413-3.167a19.224,19.224,0,0,1-8.55,12.979l.907,1.405a20.886,20.886,0,0,0,9.578-17.187c0-.13,0-.261,0-.393a20.862,20.862,0,0,0-5.368-13.988Zm-10.392.872-1.924-3.206a.836.836,0,0,0-.717-.406h-3.7l-1.353-2.341a19.253,19.253,0,0,1,11.273,1.925ZM136.28,41.951h-1.259V35.26a.836.836,0,0,0-.836-.836h-2.509V29.707l4.058-4.9a19.192,19.192,0,0,1,4.306,12.129v.084Z" transform="translate(-91.53 -16.026)"/>
  <path id="Контур_71" data-name="Контур 71" d="M164.435,98.185,163.254,97a17.718,17.718,0,0,0-1.654,1.9l1.337,1A16.03,16.03,0,0,1,164.435,98.185Z" transform="translate(-146.378 -88.534)"/>
  <path id="Контур_72" data-name="Контур 72" d="M133.3,132.322l1.62.417a15.785,15.785,0,0,1,1.883-4.4l-1.421-.883a17.452,17.452,0,0,0-2.082,4.867Z" transform="translate(-121.032 -115.805)"/>
  <path id="Контур_73" data-name="Контур 73" d="M55.31,217.091H53.637V196.182A4.187,4.187,0,0,0,49.455,192H22.691a4.187,4.187,0,0,0-4.182,4.182v20.909H16.836a.836.836,0,0,0-.836.836v2.509a3.349,3.349,0,0,0,3.345,3.345H52.8a3.349,3.349,0,0,0,3.345-3.345v-2.509A.836.836,0,0,0,55.31,217.091ZM20.182,196.182a2.512,2.512,0,0,1,2.509-2.509H49.455a2.512,2.512,0,0,1,2.509,2.509v20.909H41.438a.832.832,0,0,0-.521.182l0,0a5.536,5.536,0,0,0-1.249.9,2.006,2.006,0,0,1-1.428.591H33.91a2.006,2.006,0,0,1-1.428-.591,3.668,3.668,0,0,0-2.611-1.081h-9.69Zm34.291,24.255a1.675,1.675,0,0,1-1.673,1.673H19.345a1.675,1.675,0,0,1-1.673-1.673v-1.673h12.2a2.006,2.006,0,0,1,1.428.591,3.668,3.668,0,0,0,2.61,1.081h4.326a3.668,3.668,0,0,0,2.61-1.081,3.879,3.879,0,0,1,.832-.591h12.8Z" transform="translate(-16 -173.602)"/>
  <path id="Контур_74" data-name="Контур 74" d="M242.41,284.91l-.884-1.42c-.389.242-.791.474-1.2.688l.783,1.478C241.552,285.424,241.988,285.173,242.41,284.91Z" transform="translate(-216.877 -255.527)"/>
  <path id="Контур_75" data-name="Контур 75" d="M187.942,298.218l-.661-1.537a19.715,19.715,0,0,1-4.582,1.34l.272,1.651A21.385,21.385,0,0,0,187.942,298.218Z" transform="translate(-165.272 -267.339)"/>
  <path id="Контур_76" data-name="Контур 76" d="M96.2,243.737a.836.836,0,0,0,.136-.733l-1.367-4.784a16.367,16.367,0,0,1,8.529,2.559l4.966,3.16a.836.836,0,0,0,1.286-.706V237.2l2.712-.678a.836.836,0,0,0,.634-.811V232.36a.836.836,0,0,0-.634-.811l-2.712-.678v-6.038a.836.836,0,0,0-1.286-.706l-4.966,3.16a16.37,16.37,0,0,1-8.8,2.563H88.836a.836.836,0,0,0-.836.836v6.691a.836.836,0,0,0,.836.836h1.042l1.5,5.248a.836.836,0,0,0,.8.606h3.346a.836.836,0,0,0,.668-.333Zm15.223-10.723v2.04l-1.673.418V232.6Zm-7.026-4.314,3.681-2.342V241.71l-3.681-2.342a18.038,18.038,0,0,0-8.865-2.806V231.5A18.038,18.038,0,0,0,104.392,228.7Zm-14.719,2.825h4.182v5.018H89.673Zm3.14,10.873-1.195-4.182h1.606l1.2,4.182Z" transform="translate(-80.473 -202.253)"/>
  <path id="Контур_77" data-name="Контур 77" d="M72,224h1.673v1.673H72Z" transform="translate(-66.145 -202.257)"/>
  <path id="Контур_78" data-name="Контур 78" d="M104,224h1.673v1.673H104Z" transform="translate(-94.8 -202.257)"/>
  <path id="Контур_79" data-name="Контур 79" d="M136,224h1.673v1.673H136Z" transform="translate(-123.454 -202.257)"/>
</svg>
