<svg id="Сгруппировать_241" data-name="Сгруппировать 241" xmlns="http://www.w3.org/2000/svg" width="50.056" height="50.054" viewBox="0 0 50.056 50.054">
  <path id="Контур_102" data-name="Контур 102" d="M84.708,179.337V202.7a2.5,2.5,0,0,1-2.5,2.5H50.5a2.5,2.5,0,0,1-2.5-2.5v-23.36A3.337,3.337,0,0,1,51.337,176H81.371a3.406,3.406,0,0,1,.614.056A3.338,3.338,0,0,1,84.708,179.337Z" transform="translate(-44.663 -159.317)" fill="#86bfff"/>
  <path id="Контур_104" data-name="Контур 104" d="M216,176v7.508a1.669,1.669,0,0,0,1.669,1.669h5.84v4.171l5.006-4.171h6.674V176Z" transform="translate(-195.143 -159.316)" fill="#4887d0"/>
  <path id="Контур_105" data-name="Контур 105" d="M49.028,440.834a2.849,2.849,0,0,1-2.014.834H42.7a2.849,2.849,0,0,1-2.014-.834A2.848,2.848,0,0,0,38.671,440H24v2.5a2.5,2.5,0,0,0,2.5,2.5H63.211a2.5,2.5,0,0,0,2.5-2.5V440H51.042a2.849,2.849,0,0,0-2.014.834Z" transform="translate(-23.166 -395.786)" fill="#e0e0de"/>
  <rect id="Прямоугольник_395" data-name="Прямоугольник 395" width="26" height="19" rx="9.5" transform="translate(18.334 4.366)" fill="#fff"/>
  <path id="Контур_106" data-name="Контур 106" d="M192,165.006,200.343,160l7.508,5.006,5.006-2.5,5.006,3.337v.834a1.669,1.669,0,0,1-1.669,1.669h-11.68l-5.006,4.171v-4.171h-5.84A1.669,1.669,0,0,1,192,166.674Z" transform="translate(-173.646 -144.984)" fill="#5faaff"/>
  <ellipse id="Эллипс_1" data-name="Эллипс 1" cx="2.5" cy="2" rx="2.5" ry="2" transform="translate(21.334 8.366)" fill="#fff"/>
  <path id="Контур_107" data-name="Контур 107" d="M280.343,28.171l-4.157,4.157a2.065,2.065,0,0,0,2.92,2.92l4.574-4.574.451.3a8.145,8.145,0,0,0,10.277-1.018l.117-.117V24H276.865a4.171,4.171,0,0,0-3.577,2.025L272,28.171Z" transform="translate(-245.303 -23.166)" fill="#dbdbd9"/>
  <path id="Контур_108" data-name="Контур 108" d="M300.022,293.348H285.006a1.669,1.669,0,0,1-1.669-1.669v-1.669H280l3.337-3.337v-5.006A1.669,1.669,0,0,1,285.006,280h15.017a1.669,1.669,0,0,1,1.669,1.669V291.68A1.669,1.669,0,0,1,300.022,293.348Z" transform="translate(-252.469 -252.471)" fill="#fff"/>
  <path id="Контур_109" data-name="Контур 109" d="M40.685,293.348H25.669A1.669,1.669,0,0,1,24,291.68V281.669A1.669,1.669,0,0,1,25.669,280H40.685a1.669,1.669,0,0,1,1.669,1.669v2.5l3.337,3.337H42.354v4.171A1.669,1.669,0,0,1,40.685,293.348Z" transform="translate(-23.166 -252.471)" fill="#fff"/>
  <path id="Контур_110" data-name="Контур 110" d="M338.5,440v2.5a2.5,2.5,0,0,1-2.5,2.5h6.674a2.5,2.5,0,0,0,2.5-2.5V440Z" transform="translate(-302.629 -395.786)" fill="#d6d6d4"/>
  <path id="Контур_111" data-name="Контур 111" d="M41.669,172.171a2.506,2.506,0,0,1,2.5-2.5h9.177V168H44.171A4.176,4.176,0,0,0,40,172.171v5.006h1.669Z" transform="translate(-37.497 -152.15)"/>
  <path id="Контур_112" data-name="Контур 112" d="M218.92,88a2.92,2.92,0,1,0,2.92,2.92A2.92,2.92,0,0,0,218.92,88Zm0,4.171a1.251,1.251,0,1,1,1.251-1.251A1.251,1.251,0,0,1,218.92,92.171Z" transform="translate(-195.143 -80.492)"/>
  <path id="Контур_113" data-name="Контур 113" d="M215.7,16H198.042a5.031,5.031,0,0,0-4.292,2.43L192.7,20.171h-6.2a2.506,2.506,0,0,0-2.5,2.5V37.691a2.506,2.506,0,0,0,2.5,2.5h5.006v3.337a.834.834,0,0,0,1.368.641l4.774-3.978h11.377a2.506,2.506,0,0,0,2.5-2.5V25.849a8.915,8.915,0,0,0,4.644-2.468l.117-.117a.834.834,0,0,0,.244-.59v-5.84A.834.834,0,0,0,215.7,16Zm-5.84,21.691a.835.835,0,0,1-.834.834h-11.68a.834.834,0,0,0-.534.193l-3.637,3.031V39.36a.834.834,0,0,0-.834-.834H186.5a.835.835,0,0,1-.834-.834v-1.2L193.153,32l7.069,4.713a.834.834,0,0,0,.836.052l4.573-2.286,4.231,2.821Zm0-2.393-3.709-2.472a.834.834,0,0,0-.836-.052l-4.573,2.286-7.106-4.737a.834.834,0,0,0-.892-.021l-7.079,4.247V22.674a.835.835,0,0,1,.834-.834h13l-2.732,2.732a2.9,2.9,0,1,0,4.1,4.1l4.091-4.091a8.95,8.95,0,0,0,4.862,1.43h.037Zm5.006-12.972a7.311,7.311,0,0,1-9.1.789l-.451-.3a.834.834,0,0,0-1.053.1l-4.574,4.573a1.23,1.23,0,1,1-1.74-1.74L202.11,21.6l1.669-1.669-1.18-1.18-1.424,1.424H194.65l.529-.883a3.354,3.354,0,0,1,2.862-1.62h16.826Z" transform="translate(-166.48 -16)"/>
  <path id="Контур_114" data-name="Контур 114" d="M292.856,272H277.839a2.506,2.506,0,0,0-2.5,2.5v4.66l-3.093,3.093a.834.834,0,0,0,.59,1.424h2.5v.834a2.506,2.506,0,0,0,2.5,2.5h15.017a2.506,2.506,0,0,0,2.5-2.5V274.5A2.506,2.506,0,0,0,292.856,272Zm.834,12.514a.835.835,0,0,1-.834.834H277.839a.835.835,0,0,1-.834-.834v-1.669a.834.834,0,0,0-.834-.834h-1.323l1.913-1.913a.834.834,0,0,0,.244-.59V274.5a.835.835,0,0,1,.834-.834h15.017a.835.835,0,0,1,.834.834Z" transform="translate(-245.303 -245.305)"/>
  <path id="Контур_115" data-name="Контур 115" d="M336,304h8.343v1.669H336Z" transform="translate(-302.629 -273.968)"/>
  <path id="Контур_116" data-name="Контур 116" d="M432,304h3.337v1.669H432Z" transform="translate(-388.618 -273.968)"/>
  <path id="Контур_117" data-name="Контур 117" d="M336,368h13.348v1.669H336Z" transform="translate(-302.629 -331.294)"/>
  <path id="Контур_118" data-name="Контур 118" d="M336,336h13.348v1.669H336Z" transform="translate(-302.629 -302.631)"/>
  <path id="Контур_119" data-name="Контур 119" d="M72,200h1.669v1.669H72Z" transform="translate(-66.16 -180.813)"/>
  <path id="Контур_120" data-name="Контур 120" d="M104,200h1.669v1.669H104Z" transform="translate(-94.823 -180.813)"/>
  <path id="Контур_121" data-name="Контур 121" d="M136,200h1.669v1.669H136Z" transform="translate(-123.486 -180.813)"/>
  <path id="Контур_122" data-name="Контур 122" d="M72,232H82.011v1.669H72Z" transform="translate(-66.16 -209.476)"/>
  <path id="Контур_123" data-name="Контур 123" d="M18.5,287.017H33.52a2.506,2.506,0,0,0,2.5-2.5v-3.337h2.5a.834.834,0,0,0,.59-1.424l-3.093-3.093V274.5a2.506,2.506,0,0,0-2.5-2.5H18.5a2.506,2.506,0,0,0-2.5,2.5v10.011A2.506,2.506,0,0,0,18.5,287.017ZM17.669,274.5a.835.835,0,0,1,.834-.834H33.52a.835.835,0,0,1,.834.834v2.5a.834.834,0,0,0,.244.59l1.913,1.913H35.188a.834.834,0,0,0-.834.834v4.171a.835.835,0,0,1-.834.834H18.5a.835.835,0,0,1-.834-.834Z" transform="translate(-16 -245.305)"/>
  <path id="Контур_124" data-name="Контур 124" d="M48,304h1.669v1.669H48Z" transform="translate(-44.663 -273.968)"/>
  <path id="Контур_125" data-name="Контур 125" d="M48,336h1.669v1.669H48Z" transform="translate(-44.663 -302.631)"/>
  <path id="Контур_126" data-name="Контур 126" d="M48,368h1.669v1.669H48Z" transform="translate(-44.663 -331.294)"/>
  <path id="Контур_127" data-name="Контур 127" d="M80,304H90.011v1.669H80Z" transform="translate(-73.326 -273.968)"/>
  <path id="Контур_128" data-name="Контур 128" d="M80,336H90.011v1.669H80Z" transform="translate(-73.326 -302.631)"/>
  <path id="Контур_129" data-name="Контур 129" d="M80,368H90.011v1.669H80Z" transform="translate(-73.326 -331.294)"/>
  <path id="Контур_130" data-name="Контур 130" d="M58.548,432H43.876a3.658,3.658,0,0,0-2.6,1.079,2,2,0,0,1-1.424.59H35.534a2,2,0,0,1-1.424-.59,3.658,3.658,0,0,0-2.6-1.079H16.834a.834.834,0,0,0-.834.834v2.5a3.341,3.341,0,0,0,3.337,3.337H56.045a3.341,3.341,0,0,0,3.337-3.337v-2.5A.834.834,0,0,0,58.548,432Zm-.834,3.337a1.671,1.671,0,0,1-1.669,1.669H19.337a1.671,1.671,0,0,1-1.669-1.669v-1.669H31.506a2,2,0,0,1,1.424.59,3.658,3.658,0,0,0,2.6,1.079h4.315a3.658,3.658,0,0,0,2.6-1.079,2,2,0,0,1,1.424-.59H57.713Z" transform="translate(-16 -388.62)"/>
</svg>
