<svg xmlns="http://www.w3.org/2000/svg" width="50.046" height="49.965" viewBox="0 0 50.046 49.965">
  <g id="Filled_outline" data-name="Filled outline" transform="translate(-16 -16.085)">
    <path id="Контур_334" data-name="Контур 334" d="M228.775,156.3a1.475,1.475,0,0,0-1.861.184l-22.485,22.485a1.474,1.474,0,0,0,2.085,2.085L229,158.573a1.475,1.475,0,0,0-.224-2.27Z" transform="translate(-168.397 -125.45)" fill="#86bfff"/>
    <path id="Контур_335" data-name="Контур 335" d="M78.277,261.646a1.492,1.492,0,0,1,2.009-.452l7.121,4.273,7.507,4.171,5.3,3.094a1.473,1.473,0,0,1-1.473,2.551L87.407,268.8l-8.641-5.04a1.492,1.492,0,0,1-.49-2.117Z" transform="translate(-55.559 -219.435)" fill="#86bfff"/>
    <path id="Контур_336" data-name="Контур 336" d="M234.851,38.333l-3.5-5.993-2.5,2.5,4.17,10.843-2.5-.834-6.673-4.17-5-4.171-5-5.839-1.668-2.5,12.512,3.336,2.5-3.336-12.7-3.97a4.415,4.415,0,0,0-4.438,1.092,6.011,6.011,0,0,0-1.275,6.618l.9,2.1,4.17,5.839L208,45.686l7.507,7.507,5.839-5.839,5,1.668,5.142,1.928a4.22,4.22,0,0,0,5.7-3.951,17.2,17.2,0,0,0-2.343-8.667Z" transform="translate(-171.982 -7.162)" fill="#fff"/>
    <path id="Контур_337" data-name="Контур 337" d="M321.266,60.446l2.5-3.336-2.566-.8L315.826,59Z" transform="translate(-268.566 -36.102)" fill="#e0e0de"/>
    <path id="Контур_338" data-name="Контур 338" d="M312,79.507l3.336-3.336L313.668,74.5l5.839-2.5,5,5-2.5,2.5-5,4.171Z" transform="translate(-265.139 -50.158)" fill="#fff"/>
    <path id="Контур_339" data-name="Контур 339" d="M379.583,54.184l.834-4.17-3.336-3.336-.362-.362a1.515,1.515,0,0,1,2.069-2.211l3.116,2.727a3.336,3.336,0,0,1,.162,4.87Z" transform="translate(-322.713 -24.835)" fill="#dbdbd9"/>
    <path id="Контур_340" data-name="Контур 340" d="M369.251,98.5a1.251,1.251,0,1,1,1.251-1.251,1.251,1.251,0,0,1-1.251,1.251Z" transform="translate(-315.3 -71.656)" fill="#dbdbd9"/>
    <path id="Контур_341" data-name="Контур 341" d="M332.011,114.832l-.489-.489-1.18,1.18.489.489a4.829,4.829,0,0,0,3.438,1.424v-1.668A3.172,3.172,0,0,1,332.011,114.832Z" transform="translate(-281.569 -88.086)" fill="#fcb079"/>
    <path id="Контур_342" data-name="Контур 342" d="M336,368h15.848v8.341H336Z" transform="translate(-286.636 -315.296)" fill="#dbdbd9"/>
    <path id="Контур_343" data-name="Контур 343" d="M378.514,293.976l-.718-4.308H376V288h2.5a.834.834,0,0,1,.823.7l.834,5Z" transform="translate(-322.466 -243.637)" fill="#d5d5d3"/>
    <path id="Контур_344" data-name="Контур 344" d="M374.673,365.839H370.5L368,362.5V360h9.175v2.5Z" transform="translate(-315.3 -308.13)" fill="#5faaff"/>
    <path id="Контур_345" data-name="Контур 345" d="M368,331.336,369.668,328h5.839l1.668,3.336Z" transform="translate(-315.3 -279.467)" fill="#dfdfdd"/>
    <path id="Контур_346" data-name="Контур 346" d="M336,448h3.336v4.17H336Z" transform="translate(-286.636 -386.955)" fill="#dbdbd9"/>
    <path id="Контур_347" data-name="Контур 347" d="M456,448h3.336v4.17H456Z" transform="translate(-394.125 -386.955)" fill="#dbdbd9"/>
    <path id="Контур_348" data-name="Контур 348" d="M165,210.5l-2.5-2.5-2.5,4.171,3.336,1.668-2.5,4.171,4.767,2.676a4.171,4.171,0,0,0,4.946-.712l1.964-1.964Z" transform="translate(-128.986 -171.978)" fill="#077bff"/>
    <path id="Контур_349" data-name="Контур 349" d="M40.682,189.45,39.5,188.268a3.336,3.336,0,0,0-4.5-.2l-7.669,6.39-1.5-.375a1.476,1.476,0,0,0-1.4,2.476l3.738,3.738,4.17-4.171,3.336-3.336,2.5.834Z" transform="translate(-7.166 -153.428)" fill="#e0e0de"/>
    <path id="Контур_350" data-name="Контур 350" d="M87.507,247.34v10.843H81.454a1.454,1.454,0,0,1-.46-2.834l1.508-.5v-9.513a3.657,3.657,0,0,1,5.293-3.272L91.677,244l-2.5,4.171Z" transform="translate(-57.327 -202.143)" fill="#e0e0de"/>
    <path id="Контур_351" data-name="Контур 351" d="M0,0H1.668V3.73H0Z" transform="translate(33.961 42.61) rotate(-63.435)" fill="#c7483c"/>
    <path id="Контур_352" data-name="Контур 352" d="M34.009,434.919a2.919,2.919,0,0,1-2.919,2.919h-4.17a2.919,2.919,0,0,1,0-5.839h4.17a2.92,2.92,0,0,1,2.919,2.919Z" transform="translate(-7.166 -372.623)" fill="#86bfff"/>
    <path id="Контур_353" data-name="Контур 353" d="M46.293,437.839H44.625a2.367,2.367,0,0,0-.6-1.83,1.594,1.594,0,0,0-.984-.367c-.08.005-.162.007-.245.007a.834.834,0,0,1-.1-1.663,2.63,2.63,0,0,1,.3-.014,1.427,1.427,0,0,0,1.261-.854A3.416,3.416,0,0,0,44.511,432h1.672a4.568,4.568,0,0,1-1.061,2.747l.017.015A3.925,3.925,0,0,1,46.293,437.839Z" transform="translate(-23.255 -372.623)" fill="#ffb431"/>
    <path id="Контур_354" data-name="Контур 354" d="M161.048,418.361a2.919,2.919,0,0,1-3.991,1.055l-.766-.446-1.442-.838-1.4-.813a2.919,2.919,0,1,1,2.937-5.046l1.331.775,1.526.888.747.434A2.919,2.919,0,0,1,161.048,418.361Z" transform="translate(-121.821 -354.597)" fill="#86bfff"/>
    <path id="Контур_355" data-name="Контур 355" d="M173.672,425.772c0,.007.005.015.007.022a3.922,3.922,0,0,1-.549,3.239l-1.442-.838a2.386,2.386,0,0,0,.411-1.867,1.6,1.6,0,0,0-.682-.831c-.068-.034-.136-.072-.2-.113a.834.834,0,0,1,.752-1.486,2.92,2.92,0,0,1,.27.141,1.425,1.425,0,0,0,1.518-.1,4.116,4.116,0,0,0,.807-.825l1.526.888A4.158,4.158,0,0,1,173.672,425.772Z" transform="translate(-138.66 -364.66)" fill="#ffb431"/>
    <path id="Контур_356" data-name="Контур 356" d="M45.079,52.575l-1.735-1.012L52.7,42.21c2.158.752,4.34,1.541,6.521,2.359a5.212,5.212,0,0,0,6.829-4.731c0-4.967-2.424-9.08-4.769-13.058l-.418-.711a4.163,4.163,0,0,0-1.119-4.7l-3.117-2.727a2.35,2.35,0,0,0-3.682.787L42.749,16.243a6.12,6.12,0,0,0-6.655,3.274c.036-.107.056-.2,0,0l1.445.7a4.546,4.546,0,0,1,4.711-2.379l10.6,3.311a2.333,2.333,0,0,0,.16.372l-2.941,1.26L40.4,20.2a.834.834,0,0,0-.909,1.269,85.386,85.386,0,0,0,7.033,8.693A47.257,47.257,0,0,0,50.772,33.7a50.072,50.072,0,0,0,9.907,5.581,1.1,1.1,0,0,0,.988-.133.8.8,0,0,0,.153-.925l-3.513-9.132,1.508-1.508.025.042c1.79,3.033,3.676,6.166,4.3,9.685.266,1.509.525,3.357-.519,4.628A3.436,3.436,0,0,1,59.8,43.007c-3.421-1.282-6.845-2.5-10.176-3.606a.834.834,0,0,0-.854.2l-5.248,5.249L37.2,38.524l5.249-5.249c.5-.5.114-1.071-.074-1.343-1.05-1.522-2.285-2.913-3.278-4.476a10.175,10.175,0,0,1-1.959-5.074,5.155,5.155,0,0,1,.405-2.168l-1.445-.7a6.9,6.9,0,0,0-.628,2.865,11.606,11.606,0,0,0,2.22,5.969c.2.318,3.175,4.154,3.1,4.225l-4.768,4.768L32.924,34.25A4.15,4.15,0,0,0,27.3,34l-7.343,6.119-1.091-.273a2.31,2.31,0,0,0-2.194,3.875l3.738,3.738a.834.834,0,0,0,1.18,0l2.5-2.5-1.18-1.18L21,45.686l-3.149-3.149a.642.642,0,0,1,.61-1.077l1.5.375a.834.834,0,0,0,.736-.168l7.669-6.39a2.49,2.49,0,0,1,3.371.153l.721.721L30.694,39.1a4.491,4.491,0,0,0-6.353,4.087v5.831l-3.912,3.911a2.308,2.308,0,0,0,1.632,3.941h8.118a.834.834,0,0,0,.834-.834V49.883l4.78,2.7-.351.351a2.308,2.308,0,0,0,1.632,3.94,2.42,2.42,0,0,0,1.633-.676l1.241-1.241,2.823,1.613a2.307,2.307,0,0,0,2.307-4ZM42.108,22.383l5.713,1.524a.833.833,0,0,0,.12,1.028l1.078,1.078-2.11,2.11Zm5.989,6.91,1.269-1.269A4.826,4.826,0,0,0,52.7,29.349V27.681a3.17,3.17,0,0,1-2.154-.837l.242-.242a.834.834,0,0,0,0-1.18l-.8-.8,4.188-1.794L56.8,25.453,56.11,28.9l-4.244,3.536ZM57,30.331l.294.756-2.966,2.966-1.038-.63Zm1.46,3.76-1.537,1.538-1.127-.684,2.158-2.158Zm-.07,2.429.73-.73.6,1.535Zm.378-10.244-.535.535.294-1.469a.834.834,0,0,0-.228-.753l-3.337-3.337c-.253-.229-.6-.516-.557-.909a.671.671,0,0,1,.3-.5.686.686,0,0,1,.826.054l3.116,2.727a2.5,2.5,0,0,1,.122,3.653ZM21.92,55.192a.635.635,0,0,1-.451-.381.628.628,0,0,1,.139-.7l.4-.4a2.289,2.289,0,0,0-.092,1.483ZM49.589,41.147q.674.226,1.353.458l-9.088,9.088-1.143-.667Zm-15.907-3.78,8.664,8.664-1.374,1.374a3.356,3.356,0,0,1-3.629.724l-4.336-2.408,1.661-2.769,2.645,1.323.746-1.492-5.867-2.934ZM23.248,52.474l1.093-1.093V52.1l-.938.313C23.35,52.433,23.3,52.453,23.248,52.474Zm7.3-8.023a.843.843,0,0,0-1.207.746V55.206H24.127a.62.62,0,0,1-.2-1.208l1.508-.5a.834.834,0,0,0,.57-.791V43.191a2.865,2.865,0,0,1,4.086-2.525L33.172,42.2,31.53,44.939Zm6.976,10.568a.64.64,0,1,1-.906-.905l.672-.672,1.153.659Zm6.99-.289a.627.627,0,0,1-.919.392l-12.586-7.1V46.546l13.225,7.47a.587.587,0,0,1,.28.713Z" transform="translate(0 0)"/>
    <circle id="Эллипс_42" data-name="Эллипс 42" cx="1" cy="1" r="1" transform="translate(52.63 24.634)"/>
    <path id="Контур_357" data-name="Контур 357" d="M344.682,295.507h-.834v8.341h-14.18v-6.673h1.668v.834a.834.834,0,0,0,.167.5l2.5,3.336a.834.834,0,0,0,.667.334h4.171a.834.834,0,0,0,.667-.334l2.5-3.336a.834.834,0,0,0,.167-.5v-2.5a.863.863,0,0,0-.088-.373l-1.668-3.336a.834.834,0,0,0-.746-.461h-2.908l-.44-2.639a.834.834,0,0,0-.823-.7H333v1.668h1.8l.278,1.668h-1.239a.834.834,0,0,0-.746.461l-1.668,3.336a.852.852,0,0,0-.088.373h-2.5a.834.834,0,0,0-.834.834v12.511a.834.834,0,0,0,.834.834h3.336a.834.834,0,0,0,.834-.834v-3.336h7.507v3.336a.834.834,0,0,0,.834.834h3.336a.834.834,0,0,0,.834-.834V296.341A.834.834,0,0,0,344.682,295.507ZM334.354,293h4.808l.834,1.668H333.52ZM333,296.341h7.507v1.39l-2.085,2.78H335.09L333,297.731Zm-1.668,11.677h-1.668v-2.5h1.668Zm12.512,0H342.18v-2.5h1.668Z" transform="translate(-279.47 -243.637)"/>
    <path id="Контур_358" data-name="Контур 358" d="M23.924,424h-4.17a3.753,3.753,0,1,0,0,7.507h4.17a3.753,3.753,0,1,0,0-7.507Zm-4.17,5.839a2.085,2.085,0,1,1,0-4.171h1.374a2.333,2.333,0,0,1-.116.285,1.427,1.427,0,0,1-1.26.854,2.487,2.487,0,0,0-.3.014.834.834,0,0,0,.1,1.662q.125,0,.245-.007a1.6,1.6,0,0,1,.985.367,1.777,1.777,0,0,1,.517,1Zm4.17,0h-.942a3.529,3.529,0,0,0-1.1-2.242l-.017-.015a3.751,3.751,0,0,0,.992-1.913h1.065a2.085,2.085,0,0,1,0,4.171Z" transform="translate(0 -365.457)"/>
    <path id="Контур_359" data-name="Контур 359" d="M153.243,406.481l-3.6-2.1a3.754,3.754,0,1,0-3.775,6.489l3.6,2.1a3.753,3.753,0,1,0,3.775-6.489Zm-5.018.328a2.553,2.553,0,0,0-.27-.141.834.834,0,0,0-.752,1.486q.1.06.205.112a1.6,1.6,0,0,1,.681.832,1.788,1.788,0,0,1-.058,1.106l-1.33-.774a2.085,2.085,0,1,1,2.1-3.6l1.188.691a2.323,2.323,0,0,1-.243.188A1.427,1.427,0,0,1,148.225,406.809Zm4.933,3.965a2.088,2.088,0,0,1-2.851.754l-.814-.474a3.527,3.527,0,0,0,.177-2.491l-.007-.021a3.753,3.753,0,0,0,1.82-1.155l.921.536a2.085,2.085,0,0,1,.754,2.851Z" transform="translate(-114.652 -347.43)"/>
  </g>
</svg>
