<svg xmlns="http://www.w3.org/2000/svg" width="50.094" height="48.478" viewBox="0 0 50.094 48.478">
  <g id="Filled_outline" data-name="Filled outline" transform="translate(0.002 -16)">
    <path id="Контур_175" data-name="Контур 175" d="M56,344H96.4v11.311H56Z" transform="translate(-50.346 -294.873)" fill="#dbdbd9"/>
    <path id="Контур_176" data-name="Контур 176" d="M56,344h3.232v11.311H56Z" transform="translate(-50.346 -294.873)" fill="#f9e4c8"/>
    <path id="Контур_177" data-name="Контур 177" d="M168,344h3.232v11.311H168Z" transform="translate(-151.034 -294.873)" fill="#e0e0de"/>
    <path id="Контур_178" data-name="Контур 178" d="M312,344h3.232v11.311H312Z" transform="translate(-280.491 -294.873)" fill="#e0e0de"/>
    <path id="Контур_179" data-name="Контур 179" d="M424,344h3.232v11.311H424Z" transform="translate(-381.179 -294.873)" fill="#dbdbd9"/>
    <path id="Контур_180" data-name="Контур 180" d="M56,344h3.232v1.616H56Z" transform="translate(-50.346 -294.873)" fill="#f1ddc1"/>
    <path id="Контур_181" data-name="Контур 181" d="M168,344h3.232v1.616H168Z" transform="translate(-151.034 -294.873)" fill="#f1ddc1"/>
    <path id="Контур_182" data-name="Контур 182" d="M312,344h3.232v1.616H312Z" transform="translate(-280.491 -294.873)" fill="#f1ddc1"/>
    <path id="Контур_183" data-name="Контур 183" d="M424,344h3.232v1.616H424Z" transform="translate(-381.179 -294.873)" fill="#dbdbd9"/>
    <path id="Контур_184" data-name="Контур 184" d="M56,456H96.4v3.232H56Z" transform="translate(-50.346 -395.562)" fill="#dfdfdd"/>
    <path id="Контур_185" data-name="Контур 185" d="M200,456h11.312v3.232H200Z" transform="translate(-179.802 -395.562)" fill="#cececc"/>
    <path id="Контур_186" data-name="Контур 186" d="M88,401.616h3.232v4.04h1.616v-4.04H96.08V400H88Z" transform="translate(-79.114 -345.218)" fill="#f1ddc1"/>
    <path id="Контур_187" data-name="Контур 187" d="M352.08,400H344v1.616h3.232v4.04h1.616v-4.04h3.232Z" transform="translate(-309.259 -345.218)" fill="#f1ddc1"/>
    <path id="Контур_188" data-name="Контур 188" d="M82.014,280h-40.4L40,286.464H83.63Z" transform="translate(-35.962 -237.337)" fill="#5faaff"/>
    <path id="Контур_189" data-name="Контур 189" d="M232,376h4.848v8.08H232Z" transform="translate(-208.571 -323.642)" fill="#5faaff"/>
    <path id="Контур_190" data-name="Контур 190" d="M232,376h4.848v1.616H232Z" transform="translate(-208.571 -323.642)" fill="#e0e0de"/>
    <path id="Контур_191" data-name="Контур 191" d="M256,408h1.616v1.616H256Z" transform="translate(-230.147 -352.41)" fill="#7d8fa6"/>
    <path id="Контур_192" data-name="Контур 192" d="M256,424h1.616v1.616H256Z" transform="translate(-230.147 -366.794)" fill="#e0e0de"/>
    <path id="Контур_193" data-name="Контур 193" d="M96.4,65.7V78.623H56V65.7l1.078-6.464L57.616,56H94.782l.538,3.232Z" transform="translate(-50.346 -35.96)" fill="#e0e0de"/>
    <path id="Контур_194" data-name="Контур 194" d="M96.4,65.7v1.616H83.471L76.2,61.656l-7.272,5.656H56V65.7L57.616,56H94.782Z" transform="translate(-50.346 -35.96)" fill="#dbdbd9"/>
    <path id="Контур_195" data-name="Контур 195" d="M83.63,65.7H69.087L61.815,60.04,54.543,65.7H40L43.232,56H80.4Z" transform="translate(-35.962 -35.96)" fill="#5faaff"/>
    <path id="Контур_196" data-name="Контур 196" d="M224,184h6.464v6.464H224Z" transform="translate(-201.378 -151.033)" fill="#6a7e99"/>
    <path id="Контур_197" data-name="Контур 197" d="M248,184h1.616v6.464H248Z" transform="translate(-222.955 -151.033)" fill="#57687f"/>
    <path id="Контур_198" data-name="Контур 198" d="M230.464,147.232v.808H224v-.808a3.232,3.232,0,1,1,6.464,0Z" transform="translate(-201.378 -115.073)" fill="#6a7e99"/>
    <path id="Контур_199" data-name="Контур 199" d="M224,208h6.464v1.616H224Z" transform="translate(-201.378 -172.609)" fill="#57687f"/>
    <path id="Контур_200" data-name="Контур 200" d="M352,24h4.848v8.888H352Z" transform="translate(-316.451 -7.192)" fill="#dbdbd9"/>
    <path id="Контур_201" data-name="Контур 201" d="M352,24h4.848v3.232H352Z" transform="translate(-316.451 -7.192)" fill="#dbdbd9"/>
    <g id="Сгруппировать_264" data-name="Сгруппировать 264" transform="translate(8.886 23.272)">
      <path id="Контур_202" data-name="Контур 202" d="M88,88h3.232v1.616H88Z" transform="translate(-88 -88)" fill="#57687f"/>
      <path id="Контур_203" data-name="Контур 203" d="M120,104h3.232v1.616H120Z" transform="translate(-116.768 -102.384)" fill="#57687f"/>
      <path id="Контур_204" data-name="Контур 204" d="M184,88h3.232v1.616H184Z" transform="translate(-174.304 -88)" fill="#57687f"/>
      <path id="Контур_205" data-name="Контур 205" d="M296,88h3.232v1.616H296Z" transform="translate(-274.993 -88)" fill="#57687f"/>
      <path id="Контур_206" data-name="Контур 206" d="M416,312h3.232v1.616H416Z" transform="translate(-382.873 -289.377)" fill="#57687f"/>
      <path id="Контур_207" data-name="Контур 207" d="M328,304h3.232v1.616H328Z" transform="translate(-303.761 -282.185)" fill="#57687f"/>
      <path id="Контур_208" data-name="Контур 208" d="M88,304h3.232v1.616H88Z" transform="translate(-88 -282.185)" fill="#dbdbd9"/>
      <path id="Контур_209" data-name="Контур 209" d="M192,296h3.232v1.616H192Z" transform="translate(-181.496 -274.993)" fill="#57687f"/>
    </g>
    <path id="Контур_210" data-name="Контур 210" d="M120,184h3.232v6.464H120Z" transform="translate(-107.882 -151.033)" fill="#fff"/>
    <path id="Контур_211" data-name="Контур 211" d="M120,208h3.232v1.616H120Z" transform="translate(-107.882 -172.609)" fill="#57687f"/>
    <path id="Контур_212" data-name="Контур 212" d="M88,184h3.232v6.464H88Z" transform="translate(-79.114 -151.033)" fill="#fff"/>
    <path id="Контур_213" data-name="Контур 213" d="M152,184h3.232v6.464H152Z" transform="translate(-136.65 -151.033)" fill="#fff"/>
    <path id="Контур_217" data-name="Контур 217" d="M360,184h3.232v6.464H360Z" transform="translate(-323.643 -151.033)" fill="#fff"/>
    <path id="Контур_218" data-name="Контур 218" d="M360,208h3.232v1.616H360Z" transform="translate(-323.643 -172.609)" fill="#57687f"/>
    <path id="Контур_219" data-name="Контур 219" d="M328,184h3.232v6.464H328Z" transform="translate(-294.875 -151.033)" fill="#fff"/>
    <path id="Контур_220" data-name="Контур 220" d="M392,184h3.232v6.464H392Z" transform="translate(-352.411 -151.033)" fill="#fff"/>
    <path id="Контур_225" data-name="Контур 225" d="M16.925,254.36a1.883,1.883,0,0,1,0-2.031,4.846,4.846,0,0,0-.586-5.982,1.946,1.946,0,0,1-.451-2.009,3.232,3.232,0,1,0-6.085,0,1.9,1.9,0,0,1-.423,1.985,4.846,4.846,0,0,0-.613,6.009,1.913,1.913,0,0,1-.018,2.059,4.848,4.848,0,1,0,8.174-.027Z" transform="translate(-7.193 -201.39)" fill="#fff"/>
    <path id="Контур_226" data-name="Контур 226" d="M32.333,287.843,31.191,286.7l-1.045,1.045V280H28.53v5.321l-1.045-1.045-1.143,1.143,2.187,2.187v4.986l-1.045-1.045-1.143,1.143,2.187,2.187v6.937h1.616V290.03Z" transform="translate(-23.684 -237.337)" fill="#74a550"/>
    <path id="Контур_227" data-name="Контур 227" d="M16,480H64.478v1.616H16Z" transform="translate(-14.386 -417.138)" fill="#7eb357"/>
    <path id="Контур_228" data-name="Контур 228" d="M363.311,411.228h-.138a2.424,2.424,0,0,0-4.305-2.148,2.424,2.424,0,0,0-4.305,2.148h-.138a2.424,2.424,0,1,0,0,4.848h8.888a2.424,2.424,0,1,0,0-4.848Z" transform="translate(-316.451 -352.406)" fill="#fff"/>
    <path id="Контур_229" data-name="Контур 229" d="M216,140.04v7.272a.808.808,0,0,0,.808.808h6.464a.808.808,0,0,0,.808-.808V140.04a4.04,4.04,0,0,0-8.08,0Zm6.464,3.232h-1.616v-1.616h1.616Zm-3.232,0h-1.616v-1.616h1.616Zm-1.616,1.616h1.616V146.5h-1.616Zm3.232,1.616v-1.616h1.616V146.5Zm1.616-6.464h-4.848a2.424,2.424,0,0,1,4.848,0Z" transform="translate(-194.186 -107.881)"/>
    <path id="Контур_230" data-name="Контур 230" d="M320.808,176a.808.808,0,0,0-.808.808v6.464a.808.808,0,0,0,.808.808h9.7a.808.808,0,0,0,.808-.808v-6.464A.808.808,0,0,0,330.5,176Zm5.656,3.232h-1.616v-1.616h1.616Zm-4.848-1.616h1.616v4.848h-1.616Zm3.232,3.232h1.616v1.616h-1.616Zm4.848,1.616H328.08v-4.848H329.7Z" transform="translate(-287.683 -143.841)"/>
    <path id="Контур_231" data-name="Контур 231" d="M88,88h3.232v1.616H88Z" transform="translate(-79.114 -64.728)"/>
    <path id="Контур_232" data-name="Контур 232" d="M120,104h3.232v1.616H120Z" transform="translate(-107.882 -79.112)"/>
    <path id="Контур_233" data-name="Контур 233" d="M184,88h3.232v1.616H184Z" transform="translate(-165.418 -64.728)"/>
    <path id="Контур_234" data-name="Контур 234" d="M296,88h3.232v1.616H296Z" transform="translate(-266.107 -64.728)"/>
    <path id="Контур_235" data-name="Контур 235" d="M416,312h3.232v1.616H416Z" transform="translate(-373.987 -266.105)"/>
    <path id="Контур_236" data-name="Контур 236" d="M328,304h3.232v1.616H328Z" transform="translate(-294.875 -258.913)"/>
    <path id="Контур_237" data-name="Контур 237" d="M192,296h3.232v1.616H192Z" transform="translate(-172.61 -251.721)"/>
    <path id="Контур_238" data-name="Контур 238" d="M50.092,205.087a3.238,3.238,0,0,0-2.426-3.13c0-.034,0-.068,0-.1a3.218,3.218,0,0,0-.808-2.134v-4.329H45.244v3.334a3.242,3.242,0,0,0-1.616,0v-4.95h4.04a.808.808,0,0,0,.784-1L46.86,186.4V176H45.244v9.7H9.693c0-.1,0-.206-.01-.31a3.979,3.979,0,0,0-.328-1.306h9.227a.808.808,0,0,0,.808-.808v-6.464a.808.808,0,0,0-.808-.808h-9.7a.808.808,0,0,0-.808.808v5.661a4.037,4.037,0,0,0-6.227,4.589,1.1,1.1,0,0,1-.24,1.147,5.689,5.689,0,0,0-.669.826l1.345.9a4.077,4.077,0,0,1,.479-.591,2.7,2.7,0,0,0,.606-2.823,2.424,2.424,0,1,1,4.564,0,2.741,2.741,0,0,0,.629,2.843,4.038,4.038,0,0,1,.489,4.983,2.688,2.688,0,0,0,0,2.906,4.041,4.041,0,0,1-2.592,6.141v-6.856l2.187-2.187L7.507,193.2l-1.045,1.045V186.5H4.846v5.321L3.8,190.78l-1.143,1.143,2.187,2.187V199.1L3.8,198.052l-1.143,1.143,2.187,2.187v2.006a4.083,4.083,0,0,1-3.229-3.809,4.019,4.019,0,0,1,.624-2.306,2.727,2.727,0,0,0,.015-2.929,4.046,4.046,0,0,1-.411-3.529l-1.524-.539A5.662,5.662,0,0,0,.9,195.217a1.107,1.107,0,0,1-.02,1.188,5.666,5.666,0,0,0,3.97,8.623V206.7H1.614v1.616H50.092V206.7h-.434a3.211,3.211,0,0,0,.434-1.616Zm-8.08-6.464H35.549v-4.848h6.464Zm-4.846,3.334a3.237,3.237,0,0,0-1.618,1v-2.713H37.6a3.211,3.211,0,0,0-.435,1.616C37.165,201.889,37.165,201.923,37.166,201.957Zm-9.7-.91v2.424H24.237v-6.464h3.232v2.424H25.853v1.616Zm.808-5.656H23.429a.808.808,0,0,0-.808.808v7.272H21.006v-9.7h9.7v9.7H29.085V196.2A.808.808,0,0,0,28.277,195.391Zm-14.543,8.08v-3.232h2.424v3.232Zm-2.481-4.848a5.626,5.626,0,0,0-.841-2.25,1.069,1.069,0,0,1,0-1.156,5.622,5.622,0,0,0,.663-1.442h5.083v4.848Zm6.521-4.848H19.39v9.7H17.774Zm16.159,9.7H32.317v-9.7h1.616Zm-1.616,1.616h2.424a3.211,3.211,0,0,0,.435,1.616H32.317ZM12.926,180.848h1.616v1.616H12.926Zm4.848,1.616H16.158v-4.848h1.616Zm-3.232-3.232H12.926v-1.616h1.616Zm-4.848-1.616H11.31v4.848H9.694Zm-.295,9.7H45.422l1.212,4.848H11.31a5.627,5.627,0,0,0-1.581-3.922A1.157,1.157,0,0,1,9.4,187.311Zm1.853,12.927h.866v3.232H9.611l.034-.032a5.612,5.612,0,0,0,1.608-3.2Zm-4.79,4.848H19.39V206.7H6.462ZM21.006,206.7v-1.616h9.7V206.7Zm16.967,0a1.616,1.616,0,1,1,0-3.232h.138a.808.808,0,0,0,.762-1.077,1.616,1.616,0,0,1,2.871-1.431.808.808,0,0,0,1.346,0,1.616,1.616,0,0,1,2.871,1.431.808.808,0,0,0,.762,1.077h.138a1.616,1.616,0,1,1,0,3.232Z" transform="translate(0 -143.841)"/>
    <path id="Контур_239" data-name="Контур 239" d="M32.807,30.543h.808V36.2h1.616V30.543H47.351a.808.808,0,0,0,.5-.17l6.776-5.27,6.776,5.27a.808.808,0,0,0,.5.17H76.437A.808.808,0,0,0,77.2,29.48l-3.232-9.7a.808.808,0,0,0-.767-.552H71.59v1.616h1.033l2.693,8.08H62.171l-7.053-5.486a.808.808,0,0,0-.992,0l-7.053,5.486H33.928l2.693-8.08H63.51V25.7a.808.808,0,0,0,.808.808h4.848a.808.808,0,0,0,.808-.808V16.808A.808.808,0,0,0,69.166,16H64.318a.808.808,0,0,0-.808.808v2.424H36.039a.808.808,0,0,0-.767.553l-3.232,9.7a.808.808,0,0,0,.767,1.063Zm32.319-5.656v-4.04h3.232v4.04Zm0-7.272h3.232v1.616H65.126Z" transform="translate(-28.769)"/>
  </g>
</svg>
