<svg xmlns="http://www.w3.org/2000/svg" width="50.057" height="50.054" viewBox="0 0 50.057 50.054">
  <g id="Сгруппировать_242" data-name="Сгруппировать 242" transform="translate(0)">
    <path id="Контур_80" data-name="Контур 80" d="M80.194,24,56,48.194l2.772,2.772L71.017,63.211,95.211,39.017V24Zm10.011,6.674a1.664,1.664,0,1,1,1.181-.487A1.669,1.669,0,0,1,90.205,30.674Z" transform="translate(-51.828 -23.166)" fill="#5faaff"/>
    <path id="Контур_81" data-name="Контур 81" d="M116.693,24q-.942,1.816-1.968,3.5a1.669,1.669,0,1,1-1.8,2.771C105.01,41.641,94.1,47.957,82.58,50.966L94.825,63.211l24.194-24.194V24Z" transform="translate(-75.636 -23.166)" fill="#86bfff"/>
    <path id="Контур_82" data-name="Контур 82" d="M252.526,94.674a1.811,1.811,0,0,0-1.117-3.318,1.868,1.868,0,0,0-2.925-2.051,1.9,1.9,0,0,0-3.616,0,1.868,1.868,0,0,0-2.925,2.051,1.811,1.811,0,0,0-1.117,3.318,1.811,1.811,0,0,0,1.117,3.318,1.868,1.868,0,0,0,2.925,2.051,1.9,1.9,0,0,0,3.616,0,1.868,1.868,0,0,0,2.925-2.051A1.811,1.811,0,0,0,252.526,94.674Z" transform="translate(-216.642 -80.491)" fill="#fff"/>
    <path id="Контур_83" data-name="Контур 83" d="M104,28.171A5.733,5.733,0,0,0,108.171,24a5.733,5.733,0,0,0,4.171,4.171,5.733,5.733,0,0,0-4.171,4.171A5.733,5.733,0,0,0,104,28.171Z" transform="translate(-94.823 -23.166)" fill="#5faaff"/>
    <path id="Контур_84" data-name="Контур 84" d="M416,344h7.508v15.017H416Z" transform="translate(-374.286 -309.797)" fill="#86bfff"/>
    <path id="Контур_85" data-name="Контур 85" d="M64.877,339.337v12.514H38.921a6.661,6.661,0,0,1-2.985-.7L25.7,346.028a3.079,3.079,0,0,1,1.4-5.833l.359,0a3.079,3.079,0,0,1,1.346.322l9.375,4.657h3.337a3.337,3.337,0,1,1,0-6.674h7.23l1.652-.929a12.256,12.256,0,0,1,13.064.661c.2.144.4.294.6.451Z" transform="translate(-23.163 -302.632)" fill="#e0e0de"/>
    <path id="Контур_86" data-name="Контур 86" d="M225.508,358.532v12.514H203.33a42.754,42.754,0,0,0,20.764-13.616c.2.144.4.294.6.451Z" transform="translate(-183.794 -321.827)" fill="#dbdbd9"/>
    <path id="Контур_87" data-name="Контур 87" d="M58.255,51.629l1.18-1.18-9.421-9.421,23.36-23.36H87.21v3.337H85.4a2.5,2.5,0,1,0,0,1.669H87.21v8.831L70.769,47.947l1.18,1.18L88.635,32.441a.834.834,0,0,0,.244-.59V27.68h2.5a3.337,3.337,0,0,0,0-6.674h-2.5V16.834A.834.834,0,0,0,88.045,16H73.028a.834.834,0,0,0-.59.244L48.244,40.438a.834.834,0,0,0,0,1.18ZM82.2,21.84a.835.835,0,0,1,.834-.834v1.669A.835.835,0,0,1,82.2,21.84Zm9.177.834a1.669,1.669,0,0,1,0,3.337h-2.5V22.674Z" transform="translate(-44.662 -16)"/>
    <path id="Контур_88" data-name="Контур 88" d="M232.089,89.788a2.659,2.659,0,0,0,1.7,1.73,2.588,2.588,0,0,0,1.068,2.022,2.747,2.747,0,0,0,2.448.44,2.783,2.783,0,0,0,4.334,0,2.748,2.748,0,0,0,2.448-.44,2.588,2.588,0,0,0,1.068-2.022,2.659,2.659,0,0,0,1.7-1.73,2.552,2.552,0,0,0-.347-2.279,2.552,2.552,0,0,0,.347-2.279,2.659,2.659,0,0,0-1.7-1.73,2.588,2.588,0,0,0-1.068-2.022,2.747,2.747,0,0,0-2.448-.44,2.783,2.783,0,0,0-4.334,0,2.748,2.748,0,0,0-2.448.44,2.588,2.588,0,0,0-1.068,2.022,2.659,2.659,0,0,0-1.7,1.73,2.552,2.552,0,0,0,.347,2.279A2.552,2.552,0,0,0,232.089,89.788Zm1.994-2.975a.921.921,0,0,1-.4-1.081,1.011,1.011,0,0,1,1.038-.707.834.834,0,0,0,.805-1.123.925.925,0,0,1,.335-1.089,1.064,1.064,0,0,1,1.31,0,.834.834,0,0,0,1.3-.426,1.071,1.071,0,0,1,2.02,0,.834.834,0,0,0,1.3.426,1.064,1.064,0,0,1,1.31,0,.925.925,0,0,1,.335,1.089.834.834,0,0,0,.805,1.123,1.013,1.013,0,0,1,1.038.707.921.921,0,0,1-.4,1.081.834.834,0,0,0,0,1.392.921.921,0,0,1,.4,1.081,1.012,1.012,0,0,1-1.038.707.834.834,0,0,0-.805,1.123.925.925,0,0,1-.335,1.089,1.064,1.064,0,0,1-1.31,0,.834.834,0,0,0-1.3.426,1.071,1.071,0,0,1-2.02,0,.834.834,0,0,0-1.3-.426,1.065,1.065,0,0,1-1.31,0,.925.925,0,0,1-.335-1.089.834.834,0,0,0-.805-1.123,1.01,1.01,0,0,1-1.038-.707.921.921,0,0,1,.4-1.081.834.834,0,0,0,0-1.392Z" transform="translate(-209.44 -73.326)"/>
    <path id="Контур_89" data-name="Контур 89" d="M0,0H7.079V1.669H0Z" transform="translate(7.75 25.27) rotate(-45)"/>
    <path id="Контур_90" data-name="Контур 90" d="M0,0H7.079V1.669H0Z" transform="translate(10.252 27.772) rotate(-45)"/>
    <path id="Контур_91" data-name="Контур 91" d="M0,0H7.079V1.669H0Z" transform="translate(12.754 30.275) rotate(-45)"/>
    <path id="Контур_92" data-name="Контур 92" d="M0,0H7.079V1.669H0Z" transform="translate(15.256 32.778) rotate(-45)"/>
    <path id="Контур_93" data-name="Контур 93" d="M0,0H3.539V1.669H0Z" transform="translate(20.261 32.778) rotate(-45)"/>
    <path id="Контур_94" data-name="Контур 94" d="M0,0H1.669V2.876H0Z" transform="translate(17.76 17.275) rotate(-45)"/>
    <path id="Контур_95" data-name="Контур 95" d="M0,0H1.669V7.374H0Z" transform="translate(20.888 20.403) rotate(-45)"/>
    <path id="Контур_96" data-name="Контур 96" d="M96.633,21.816A4.89,4.89,0,0,1,100.2,25.38a.834.834,0,0,0,1.619,0,4.89,4.89,0,0,1,3.564-3.564.834.834,0,0,0,0-1.619,4.89,4.89,0,0,1-3.564-3.564.834.834,0,0,0-1.619,0A4.89,4.89,0,0,1,96.633,20.2a.834.834,0,0,0,0,1.619Zm4.374-2.876a6.548,6.548,0,0,0,2.067,2.067,6.548,6.548,0,0,0-2.067,2.067,6.548,6.548,0,0,0-2.067-2.067,6.548,6.548,0,0,0,2.067-2.067Z" transform="translate(-87.658 -16.001)"/>
    <path id="Контур_97" data-name="Контур 97" d="M0,0H8.9V1.669H0Z" transform="translate(33.609 29.443) rotate(-45)"/>
    <path id="Контур_98" data-name="Контур 98" d="M0,0H2.36V1.669H0Z" transform="translate(41.117 21.936) rotate(-45)"/>
    <path id="Контур_99" data-name="Контур 99" d="M65.218,328.834H57.709a.834.834,0,0,0-.834.834v.791a13.086,13.086,0,0,0-14.052-.778l-1.461.822H34.35a4.17,4.17,0,0,0-3.443,6.524l-8.9-4.421A3.937,3.937,0,0,0,20.3,332.2l-.359,0a3.913,3.913,0,0,0-1.78,7.413L28.4,344.727a7.545,7.545,0,0,0,3.358.793H65.218a.834.834,0,0,0,.834-.834V329.668A.834.834,0,0,0,65.218,328.834Zm-36.075,14.4-10.237-5.119a2.245,2.245,0,0,1,1-4.252h.018l.358,0a2.26,2.26,0,0,1,.982.234l9.375,4.658a.835.835,0,0,0,.371.087H41.858a.834.834,0,0,0,0-1.669H34.35a2.5,2.5,0,0,1,0-5.006h7.23a.834.834,0,0,0,.409-.107l1.652-.929a11.42,11.42,0,0,1,12.733,1.036l.5.4v11.279H31.754a5.87,5.87,0,0,1-2.612-.617Zm35.241.617h-5.84V330.5h5.84Z" transform="translate(-15.996 -295.466)"/>
    <path id="Контур_100" data-name="Контур 100" d="M441.251,434.5A1.251,1.251,0,1,0,440,433.251,1.251,1.251,0,0,0,441.251,434.5Z" transform="translate(-395.783 -388.621)"/>
    <path id="Контур_101" data-name="Контур 101" d="M0,0H1.669V9.439H0Z" transform="translate(16.092 20.611) rotate(-45)"/>
  </g>
</svg>
