<svg xmlns="http://www.w3.org/2000/svg" width="253.333" height="253.333" viewBox="0 0 253.333 253.333">
  <g id="Сгруппировать_250" data-name="Сгруппировать 250" transform="translate(-110.333 -1808.333)">
    <rect id="Прямоугольник_521" data-name="Прямоугольник 521" width="216" height="160" rx="24" transform="translate(129 1892)" fill="#86bfff" stroke="#000" stroke-width="2"/>
    <path id="Контур_132" data-name="Контур 132" d="M408,176h13V336.333H408Z" transform="translate(-88.667 1715.667)" fill="#5faaff"/>
    <path id="Контур_133" data-name="Контур 133" d="M268.667,125V302.667H104V125a13,13,0,0,1,13-13H255.667A13,13,0,0,1,268.667,125Z" transform="translate(50.667 1745)" fill="#fff" stroke="#000" stroke-width="2"/>
    <path id="Контур_135" data-name="Контур 135" d="M370.667,41.333V149.667A17.333,17.333,0,0,1,353.333,167H336l-30.333,30.333V167H249.333A17.333,17.333,0,0,1,232,149.667V41.333A17.333,17.333,0,0,1,249.333,24h104a17.316,17.316,0,0,1,17.333,17.333Z" transform="translate(-8 1785.333)" fill="#077bff" stroke="#000" stroke-width="2"/>
    <path id="Контур_137" data-name="Контур 137" d="M322,129.883a29.917,29.917,0,0,1,8.821-21.3l13.433-13.433a12.783,12.783,0,0,0-9.038-21.822h-9.1a12.8,12.8,0,0,0-12.783,12.783V95H296V86.117A30.15,30.15,0,0,1,326.117,56h9.1a30.117,30.117,0,0,1,21.295,51.411l-13.433,13.433a12.7,12.7,0,0,0-3.745,9.039Z" transform="translate(-37.333 1770.667)" fill="#fff"/>
    <path id="Контур_138" data-name="Контур 138" d="M344,224h17.333v17.333H344Z" transform="translate(-59.333 1693.667)" fill="#fff"/>
    <path id="Контур_139" data-name="Контур 139" d="M175.667,444.333a14.8,14.8,0,0,1-10.462,4.333H134.128a14.8,14.8,0,0,1-10.462-4.333A14.8,14.8,0,0,0,113.2,440H24v13a13,13,0,0,0,13,13H262.333a13,13,0,0,0,13-13V440h-89.2a14.8,14.8,0,0,0-10.462,4.333Z" transform="translate(87.333 1594.667)" fill="#e0e0de" stroke="#000" stroke-width="2"/>
    <path id="Контур_140" data-name="Контур 140" d="M395.97,440v11.97A11.97,11.97,0,0,1,384,463.94h39.9c7.171,0,13.207-4.374,13.207-11.97V440Z" transform="translate(-75.435 1595.697)" fill="#d6d6d4"/>
    <g id="Контур_144" data-name="Контур 144" transform="translate(39.667 1734)">
      <path d="M 135.1666717529297 143.1666717529297 L 129.5 143.1666717529297 L 129.5 137.5 L 135.1666717529297 137.5 L 135.1666717529297 143.1666717529297 Z" stroke="none"/>
      <path d="M 131 139 L 131 141.6666717529297 L 133.6666717529297 141.6666717529297 L 133.6666717529297 139 L 131 139 M 128 136 L 136.6666717529297 136 L 136.6666717529297 144.6666717529297 L 128 144.6666717529297 L 128 136 Z" stroke="none" fill="#fff"/>
    </g>
    <g id="Контур_145" data-name="Контур 145" transform="translate(25 1734)">
      <path d="M 167.1666717529297 143.1666717529297 L 161.5 143.1666717529297 L 161.5 137.5 L 167.1666717529297 137.5 L 167.1666717529297 143.1666717529297 Z" stroke="none"/>
      <path d="M 163 139 L 163 141.6666717529297 L 165.6666717529297 141.6666717529297 L 165.6666717529297 139 L 163 139 M 160 136 L 168.6666717529297 136 L 168.6666717529297 144.6666717529297 L 160 144.6666717529297 L 160 136 Z" stroke="none" fill="#fff"/>
    </g>
    <g id="Контур_146" data-name="Контур 146" transform="translate(10.333 1734)">
      <path d="M 199.1666717529297 143.1666717529297 L 193.5 143.1666717529297 L 193.5 137.5 L 199.1666717529297 137.5 L 199.1666717529297 143.1666717529297 Z" stroke="none"/>
      <path d="M 195 139 L 195 141.6666717529297 L 197.6666717529297 141.6666717529297 L 197.6666717529297 139 L 195 139 M 192 136 L 200.6666717529297 136 L 200.6666717529297 144.6666717529297 L 192 144.6666717529297 L 192 136 Z" stroke="none" fill="#fff"/>
    </g>
    <g id="Контур_147" data-name="Контур 147" transform="translate(39.667 1697.333)">
      <path d="M 141 240.5 C 137.9282379150391 240.5 135.0403442382812 239.3037872314453 132.8682708740234 237.1317291259766 C 130.6962127685547 234.9596557617188 129.5 232.0717620849609 129.5 229 C 129.5 225.9282379150391 130.6962127685547 223.0403442382812 132.8682708740234 220.8682861328125 C 135.0403442382812 218.6962127685547 137.9282379150391 217.5 141 217.5 C 144.0691070556641 217.5034484863281 146.9561004638672 218.7011871337891 149.1274719238281 220.8725433349609 C 151.2988433837891 223.0439147949219 152.4965667724609 225.9308929443359 152.5 229.0016784667969 C 152.5 232.0717620849609 151.3037872314453 234.9596557617188 149.1317291259766 237.1317291259766 C 146.9596557617188 239.3037872314453 144.0717620849609 240.5 141 240.5 Z M 141 223.1666717529297 C 137.7834930419922 223.1666717529297 135.1666717529297 225.7834930419922 135.1666717529297 229 C 135.1666717529297 232.2165069580078 137.7834930419922 234.8333435058594 141 234.8333435058594 C 144.2136688232422 234.8297424316406 146.8297424316406 232.2136688232422 146.8333435058594 229.0016784667969 C 146.8333435058594 225.7834930419922 144.2165069580078 223.1666717529297 141 223.1666717529297 Z" stroke="none"/>
      <path d="M 140.9973449707031 219 C 135.4847106933594 219.0016479492188 131 223.4869842529297 131 229 C 131 234.5140228271484 135.4859771728516 239 141 239 C 146.5140228271484 239 151 234.5140228271484 151 229.0033569335938 C 150.9970092773438 226.3326110839844 149.9553070068359 223.8217163085938 148.0668029785156 221.9332122802734 C 146.1784210205078 220.0448150634766 143.6679229736328 219.0031280517578 140.9973449707031 219 M 141.0033569335938 236.3333435058594 L 141.0016784667969 236.3333435058594 L 141 236.3333435058594 C 136.9563903808594 236.3333435058594 133.6666717529297 233.0436248779297 133.6666717529297 229 C 133.6666717529297 224.9563903808594 136.9563903808594 221.6666717529297 141 221.6666717529297 C 145.0436248779297 221.6666717529297 148.3333435058594 224.9563903808594 148.3333435058594 229.0033569335938 C 148.3288269042969 233.0406036376953 145.0406036376953 236.3288269042969 141.0033569335938 236.3333435058594 M 141 216 C 148.1763763427734 216.008056640625 153.9919586181641 221.8236389160156 154 229 C 154 236.1797027587891 148.1797027587891 242 141 242 C 133.8202972412109 242 128 236.1797027587891 128 229 C 128 221.8203125 133.8202972412109 216 141 216 Z M 141 233.3333435058594 L 141 233.3333282470703 C 143.3921203613281 233.3306579589844 145.3306579589844 231.3921203613281 145.3333435058594 229 C 145.3333435058594 226.6067810058594 143.3932342529297 224.6666717529297 141 224.6666717529297 C 138.6067657470703 224.6666717529297 136.6666717529297 226.6067810058594 136.6666717529297 229 C 136.6666717529297 231.3932342529297 138.6067657470703 233.3333435058594 141 233.3333435058594 Z" stroke="none" fill="#fff"/>
    </g>
    <g id="Контур_148" data-name="Контур 148" transform="translate(10.333 1682.667)">
      <path d="M 199.1666717529297 255.1666564941406 L 193.5 255.1666564941406 L 193.5 249.5 L 199.1666717529297 249.5 L 199.1666717529297 255.1666564941406 Z" stroke="none"/>
      <path d="M 195 251 L 195 253.6666564941406 L 197.6666717529297 253.6666564941406 L 197.6666717529297 251 L 195 251 M 192 248 L 200.6666717529297 248 L 200.6666717529297 256.6666564941406 L 192 256.6666564941406 L 192 248 Z" stroke="none" fill="#fff"/>
    </g>
    <g id="Контур_149" data-name="Контур 149" transform="translate(39.667 1668)">
      <path d="M 141 304.5 C 137.9282379150391 304.5 135.0403442382812 303.3038024902344 132.8682708740234 301.1317138671875 C 130.6962127685547 298.9596557617188 129.5 296.0717468261719 129.5 293 C 129.5 289.9282531738281 130.6962127685547 287.0403442382812 132.8682708740234 284.8682861328125 C 135.0403442382812 282.6961975097656 137.9282379150391 281.5 141 281.5 C 144.0691070556641 281.5034484863281 146.9560852050781 282.701171875 149.1274566650391 284.8725280761719 C 151.298828125 287.0439147949219 152.4965515136719 289.9308776855469 152.5 293.0016784667969 C 152.5 296.0717468261719 151.3037872314453 298.9596557617188 149.1317291259766 301.1317138671875 C 146.9596557617188 303.3038024902344 144.0717620849609 304.5 141 304.5 Z M 141 287.1666870117188 C 137.7834930419922 287.1666870117188 135.1666717529297 289.7835083007812 135.1666717529297 293 C 135.1666717529297 296.2164916992188 137.7834930419922 298.8333129882812 141 298.8333129882812 C 144.2136688232422 298.8297119140625 146.8297424316406 296.2136535644531 146.8333435058594 293.0016784667969 C 146.8333435058594 289.7835083007812 144.2165069580078 287.1666870117188 141 287.1666870117188 Z" stroke="none"/>
      <path d="M 140.9973449707031 283 C 135.4847106933594 283.0016479492188 131 287.4869995117188 131 293 C 131 298.5140075683594 135.4859771728516 303 141 303 C 146.5140228271484 303 151 298.5140075683594 151 293.0033569335938 C 150.9969940185547 290.3326110839844 149.9553070068359 287.8216857910156 148.0668029785156 285.9331970214844 C 146.1784210205078 284.0447998046875 143.6679229736328 283.0031127929688 140.9973449707031 283 M 141.0033569335938 300.3333129882812 L 141.0016784667969 300.3333129882812 L 141 300.3333129882812 C 136.9563903808594 300.3333129882812 133.6666717529297 297.0436096191406 133.6666717529297 293 C 133.6666717529297 288.9563903808594 136.9563903808594 285.6666870117188 141 285.6666870117188 C 145.0436248779297 285.6666870117188 148.3333435058594 288.9563903808594 148.3333435058594 293.0033569335938 C 148.3288269042969 297.0405883789062 145.0406036376953 300.3287963867188 141.0033569335938 300.3333129882812 M 141 280 C 148.1763763427734 280.008056640625 153.991943359375 285.8236083984375 154 293 C 154 300.1796875 148.1797027587891 306 141 306 C 133.8202972412109 306 128 300.1796875 128 293 C 128 285.8203125 133.8202972412109 280 141 280 Z M 141 297.3333129882812 C 143.3921203613281 297.3306274414062 145.3306579589844 295.3921203613281 145.3333435058594 293 C 145.3333435058594 290.6067504882812 143.3932342529297 288.6666870117188 141 288.6666870117188 C 138.6067657470703 288.6666870117188 136.6666717529297 290.6067504882812 136.6666717529297 293 C 136.6666717529297 295.3932495117188 138.6067657470703 297.3333129882812 141 297.3333129882812 Z" stroke="none" fill="#fff"/>
    </g>
    <g id="Контур_150" data-name="Контур 150" transform="translate(10.333 1668)">
      <path d="M 203.5 287.1666870117188 L 193.5 287.1666870117188 L 193.5 281.5 L 203.5 281.5 L 203.5 287.1666870117188 Z" stroke="none"/>
      <path d="M 195 283 L 195 285.6666870117188 L 202 285.6666870117188 L 202 283 L 195 283 M 192 280 L 205 280 L 205 288.6666870117188 L 192 288.6666870117188 L 192 280 Z" stroke="none" fill="#fff"/>
    </g>
    <g id="Контур_151" data-name="Контур 151" transform="translate(10.333 1653.333)">
      <path d="M 272.8333435058594 319.1666870117188 L 193.5 319.1666870117188 L 193.5 313.5 L 272.8333435058594 313.5 L 272.8333435058594 319.1666870117188 Z" stroke="none"/>
      <path d="M 195 315 L 195 317.6666870117188 L 271.3333435058594 317.6666870117188 L 271.3333435058594 315 L 195 315 M 192 312 L 274.3333435058594 312 L 274.3333435058594 320.6666870117188 L 192 320.6666870117188 L 192 312 Z" stroke="none" fill="#fff"/>
    </g>
    <g id="Контур_152" data-name="Контур 152" transform="translate(39.667 1638.667)">
      <path d="M 141 368.5 C 137.9282379150391 368.5 135.0403442382812 367.3038024902344 132.8682708740234 365.1317138671875 C 130.6962127685547 362.9596557617188 129.5 360.0717468261719 129.5 357 C 129.5 353.9282531738281 130.6962127685547 351.0403442382812 132.8682708740234 348.8682861328125 C 135.0403442382812 346.6961975097656 137.9282379150391 345.5 141 345.5 C 144.0691070556641 345.5034484863281 146.9560852050781 346.701171875 149.1274719238281 348.87255859375 C 151.2988433837891 351.0439147949219 152.4965667724609 353.930908203125 152.5 357.0016784667969 C 152.5 360.0717468261719 151.3037872314453 362.9596557617188 149.1317291259766 365.1317138671875 C 146.9596557617188 367.3038024902344 144.0717620849609 368.5 141 368.5 Z M 141 351.1666870117188 C 137.7834930419922 351.1666870117188 135.1666717529297 353.7835083007812 135.1666717529297 357 C 135.1666717529297 360.2165222167969 137.7834930419922 362.8333435058594 141 362.8333435058594 C 144.2136688232422 362.8297424316406 146.8297424316406 360.2136840820312 146.8333435058594 357.0016784667969 C 146.8333435058594 353.7835083007812 144.2165069580078 351.1666870117188 141 351.1666870117188 Z" stroke="none"/>
      <path d="M 140.9973449707031 347 C 135.4847106933594 347.0016479492188 131 351.4869995117188 131 357 C 131 362.5140075683594 135.4859771728516 367 141 367 C 146.5140228271484 367 151 362.5140075683594 151 357.0033569335938 C 150.9970092773438 354.3326110839844 149.9553070068359 351.8217163085938 148.0668029785156 349.9332275390625 C 146.1784057617188 348.0448303222656 143.6679229736328 347.0031127929688 140.9973449707031 347 M 141.0033569335938 364.3333435058594 L 141.0016784667969 364.3333435058594 L 141 364.3333435058594 C 136.9563903808594 364.3333435058594 133.6666717529297 361.0436096191406 133.6666717529297 357 C 133.6666717529297 352.9563903808594 136.9563903808594 349.6666870117188 141 349.6666870117188 C 145.0436248779297 349.6666870117188 148.3333435058594 352.9563903808594 148.3333435058594 357.0033569335938 C 148.3288269042969 361.0405883789062 145.0406036376953 364.3288269042969 141.0033569335938 364.3333435058594 M 141 344 C 148.1763763427734 344.008056640625 153.9919586181641 349.8236694335938 154 357 C 154 364.1796875 148.1797027587891 370 141 370 C 133.8202972412109 370 128 364.1796875 128 357 C 128 349.8203125 133.8202972412109 344 141 344 Z M 141 361.3333435058594 C 143.3921356201172 361.3306579589844 145.3306579589844 359.3921203613281 145.3333435058594 357 C 145.3333435058594 354.6067810058594 143.3932342529297 352.6666870117188 141 352.6666870117188 C 138.6067657470703 352.6666870117188 136.6666717529297 354.6067810058594 136.6666717529297 357 C 136.6666717529297 359.3932495117188 138.6067657470703 361.3333435058594 141 361.3333435058594 Z" stroke="none" fill="#fff"/>
    </g>
    <g id="Контур_153" data-name="Контур 153" transform="translate(10.333 1638.667)">
      <path d="M 272.8333435058594 351.1666870117188 L 193.5 351.1666870117188 L 193.5 345.5 L 272.8333435058594 345.5 L 272.8333435058594 351.1666870117188 Z" stroke="none"/>
      <path d="M 195 347 L 195 349.6666870117188 L 271.3333435058594 349.6666870117188 L 271.3333435058594 347 L 195 347 M 192 344 L 274.3333435058594 344 L 274.3333435058594 352.6666870117188 L 192 352.6666870117188 L 192 344 Z" stroke="none" fill="#fff"/>
    </g>
    <g id="Контур_154" data-name="Контур 154" transform="translate(10.333 1624)">
      <path d="M 251.1666717529297 383.1666870117188 L 193.5 383.1666870117188 L 193.5 377.5 L 251.1666717529297 377.5 L 251.1666717529297 383.1666870117188 Z" stroke="none"/>
      <path d="M 195 379 L 195 381.6666870117188 L 249.6666717529297 381.6666870117188 L 249.6666717529297 379 L 195 379 M 192 376 L 252.6666717529297 376 L 252.6666717529297 384.6666870117188 L 192 384.6666870117188 L 192 376 Z" stroke="none" fill="#fff"/>
    </g>
    <g id="Контур_155" data-name="Контур 155" transform="translate(-48.333 1624)">
      <path d="M 344.5 383.1666870117188 L 321.5 383.1666870117188 L 321.5 377.5 L 344.5 377.5 L 344.5 383.1666870117188 Z" stroke="none"/>
      <path d="M 323 379 L 323 381.6666870117188 L 343 381.6666870117188 L 343 379 L 323 379 M 320 376 L 346 376 L 346 384.6666870117188 L 320 384.6666870117188 L 320 376 Z" stroke="none" fill="#fff"/>
    </g>
    <g id="Контур_156" data-name="Контур 156" transform="translate(10.333 1697.333)">
      <path d="M 199.1666717529297 223.1666717529297 L 193.5 223.1666717529297 L 193.5 217.5 L 199.1666717529297 217.5 L 199.1666717529297 223.1666717529297 Z" stroke="none"/>
      <path d="M 195 219 L 195 221.6666717529297 L 197.6666717529297 221.6666717529297 L 197.6666717529297 219 L 195 219 M 192 216 L 200.6666717529297 216 L 200.6666717529297 224.6666717529297 L 192 224.6666717529297 L 192 216 Z" stroke="none" fill="#fff"/>
    </g>
    <g id="Контур_157" data-name="Контур 157" transform="translate(39.667 1719.333)">
      <path d="M 169.8333435058594 175.1666717529297 L 129.5 175.1666717529297 L 129.5 169.5 L 169.8333435058594 169.5 L 169.8333435058594 175.1666717529297 Z" stroke="none"/>
      <path d="M 131 171 L 131 173.6666717529297 L 168.3333435058594 173.6666717529297 L 168.3333435058594 171 L 131 171 M 128 168 L 171.3333435058594 168 L 171.3333435058594 176.6666717529297 L 128 176.6666717529297 L 128 168 Z" stroke="none" fill="#fff"/>
    </g>
  </g>
</svg>
