<?xml version="1.0"?>
<svg xmlns="http://www.w3.org/2000/svg" viewBox="0 0 512 512" width="512" height="512"><g id="outline"><path d="M472,32H40A24.028,24.028,0,0,0,16,56V168a24.028,24.028,0,0,0,24,24H472a24.028,24.028,0,0,0,24-24V56A24.028,24.028,0,0,0,472,32ZM432,144H80V128H432ZM80,176V160H432v16Zm400-8a8.009,8.009,0,0,1-8,8H448V128a16.019,16.019,0,0,0-16-16H80a16.019,16.019,0,0,0-16,16v48H40a8.009,8.009,0,0,1-8-8V56a8.009,8.009,0,0,1,8-8H472a8.009,8.009,0,0,1,8,8Z"/><path d="M192.827,422.265a8,8,0,0,0,11.084,2.268l10.8-7.133,8.307,4.8V441.8l-8.307,4.8-10.8-7.133a8,8,0,0,0-8.816,13.352l11.59,7.653.833,13.864a8,8,0,0,0,7.977,7.521c.162,0,.324-.005.487-.015a8,8,0,0,0,7.506-8.465l-.776-12.921,8.308-4.8,16.98,9.8v9.593l-11.578,5.789a8,8,0,0,0,7.156,14.31L256,488.944l12.422,6.211a8,8,0,0,0,7.156-14.31L264,475.056v-9.593l16.98-9.8,8.308,4.8-.776,12.921a8,8,0,0,0,7.506,8.465c.163.01.325.015.487.015a8,8,0,0,0,7.977-7.521l.833-13.864,11.59-7.653a8,8,0,1,0-8.816-13.352l-10.8,7.133-8.307-4.8V422.2l8.307-4.8,10.8,7.133a8,8,0,1,0,8.816-13.352l-11.59-7.653-.833-13.864a8,8,0,1,0-15.97.959l.776,12.921-8.308,4.8-16.98-9.8v-9.593l11.578-5.789a8,8,0,1,0-7.156-14.31L256,375.056l-12.422-6.211a8,8,0,1,0-7.156,14.31L248,388.944v9.593l-16.98,9.8-8.308-4.8.776-12.921a8,8,0,1,0-15.97-.959l-.833,13.864-11.59,7.653A8,8,0,0,0,192.827,422.265Zm46.193-.068,16.98-9.8,16.98,9.8V441.8l-16.98,9.8-16.98-9.8Z"/><path d="M95.769,362.713l-4.753,2.743-7.6-5.019A8,8,0,0,0,74.6,373.789l8.391,5.54.6,10.037a8,8,0,0,0,7.977,7.522c.161,0,.325,0,.488-.015a8,8,0,0,0,7.506-8.465l-.546-9.1,4.753-2.744,11.627,6.713v5.488l-8.15,4.075a8,8,0,0,0,7.156,14.31l8.994-4.5,8.995,4.5a8,8,0,0,0,7.154-14.312L131.4,388.77v-5.488l11.627-6.713,4.753,2.744-.546,9.1a8,8,0,0,0,7.506,8.465c.163.01.326.015.488.015a8,8,0,0,0,7.977-7.522l.6-10.037,8.391-5.54a8,8,0,1,0-8.816-13.352l-7.6,5.019-4.753-2.743V349.287l4.753-2.743,7.6,5.019a8,8,0,1,0,8.816-13.352l-8.391-5.54-.6-10.037a8,8,0,1,0-15.971.958l.546,9.1-4.753,2.744L131.4,328.718V323.23l8.149-4.074a8,8,0,0,0-7.154-14.312l-8.995,4.5-8.994-4.5a8,8,0,0,0-7.156,14.31l8.15,4.075v5.488l-11.627,6.713-4.753-2.744.546-9.1a8,8,0,1,0-15.971-.958l-.6,10.037-8.391,5.54a8,8,0,1,0,8.816,13.352l7.6-5.019,4.753,2.743Zm16-13.426,11.627-6.713,11.627,6.713v13.426L123.4,369.426l-11.627-6.713Z"/><path d="M357.051,323.127a8,8,0,0,0-8.465,7.507l-.6,10.037-8.391,5.54a8,8,0,1,0,8.816,13.352l7.6-5.019,4.753,2.743v13.426l-4.753,2.743-7.6-5.019a8,8,0,0,0-8.816,13.352l8.391,5.54.6,10.037a8,8,0,0,0,7.977,7.522c.162,0,.325,0,.488-.015a8,8,0,0,0,7.506-8.465l-.546-9.1,4.753-2.744,11.627,6.713v5.488l-8.15,4.075a8,8,0,0,0,7.156,14.31l8.994-4.5,8.993,4.5a8,8,0,0,0,7.156-14.31l-8.149-4.075v-5.488l11.627-6.713,4.753,2.744-.546,9.1a8,8,0,0,0,7.5,8.465c.164.01.326.015.488.015a8,8,0,0,0,7.977-7.521l.6-10.038,8.39-5.54a8,8,0,1,0-8.816-13.352l-7.6,5.02-4.753-2.744V357.287l4.753-2.744,7.6,5.02a8,8,0,1,0,8.816-13.352l-8.39-5.54-.6-10.038a8,8,0,1,0-15.97.959l.546,9.1-4.753,2.744-11.627-6.713V331.23l8.149-4.075a8,8,0,1,0-7.156-14.31l-8.993,4.5-8.994-4.5a8,8,0,0,0-7.156,14.31l8.15,4.075v5.488l-11.627,6.713-4.753-2.744.546-9.1A8,8,0,0,0,357.051,323.127Zm19.713,34.16,11.627-6.713,11.627,6.713v13.426l-11.627,6.713-11.627-6.713Z"/><circle cx="362.408" cy="88" r="8"/><circle cx="392" cy="88" r="8"/><circle cx="424" cy="88" r="8"/><path d="M256,232a8,8,0,0,0,8-8v-8a8,8,0,0,0-16,0v8A8,8,0,0,0,256,232Z"/><path d="M248,296a8,8,0,0,0,16,0V248a8,8,0,0,0-16,0Z"/><path d="M179.42,266.4a72.315,72.315,0,0,1-8.22,7.2,8,8,0,1,0,9.6,12.8,88.522,88.522,0,0,0,10.046-8.8,8,8,0,0,0-11.426-11.2Z"/><path d="M198.121,255.332a7.993,7.993,0,0,0,10.532-4.132A87.475,87.475,0,0,0,216,216a8,8,0,0,0-16,0,71.563,71.563,0,0,1-6.011,28.8A8,8,0,0,0,198.121,255.332Z"/><path d="M340.8,273.6A71.6,71.6,0,0,1,321.646,252a8,8,0,0,0-13.856,8,87.511,87.511,0,0,0,23.41,26.4,8,8,0,0,0,9.6-12.8Z"/><path d="M312,216a8,8,0,0,0-16,0,88.293,88.293,0,0,0,1.776,17.6,8,8,0,0,0,15.678-3.2A72.164,72.164,0,0,1,312,216Z"/></g></svg>
