<?xml version="1.0" encoding="iso-8859-1"?>
<!-- Generator: Adobe Illustrator 19.0.0, SVG Export Plug-In . SVG Version: 6.00 Build 0)  -->
<svg version="1.1" id="Capa_1" xmlns="http://www.w3.org/2000/svg" xmlns:xlink="http://www.w3.org/1999/xlink" x="0px" y="0px"
	 viewBox="0 0 512 512" style="enable-background:new 0 0 512 512;" xml:space="preserve">
<g>
	<g>
		<path d="M0,58.5v200h60v30h392v-30h60v-200H0z M422,258.5H90v-30h332V258.5z M482,228.5h-30v-30H60v30H30v-140h452V228.5z"/>
	</g>
</g>
<g>
	<g>
		<circle cx="432" cy="138.5" r="20"/>
	</g>
</g>
<g>
	<g>
		<circle cx="362" cy="138.5" r="20"/>
	</g>
</g>
<g>
	<g>
		<path d="M241,318.5v60c0,24.813-20.187,45-45,45v30c41.355,0,75-33.645,75-75v-60H241z"/>
	</g>
</g>
<g>
	<g>
		<path d="M331,318.5v60c0,24.813-20.187,45-45,45v30c41.355,0,75-33.645,75-75v-60H331z"/>
	</g>
</g>
<g>
	<g>
		<path d="M151,318.5v60c0,24.813-20.187,45-45,45v30c41.355,0,75-33.645,75-75v-60H151z"/>
	</g>
</g>
<g>
</g>
<g>
</g>
<g>
</g>
<g>
</g>
<g>
</g>
<g>
</g>
<g>
</g>
<g>
</g>
<g>
</g>
<g>
</g>
<g>
</g>
<g>
</g>
<g>
</g>
<g>
</g>
<g>
</g>
</svg>
