<svg id="Capa_1" enable-background="new 0 0 511.69 511.69" height="512" viewBox="0 0 511.69 511.69" width="512" xmlns="http://www.w3.org/2000/svg"><g id="XMLID_968_"><path id="XMLID_969_" d="m199.142 335.312c-7.846 0-15.363 6.899-15 15 .364 8.127 6.591 15 15 15 7.846 0 15.363-6.899 15-15-.364-8.127-6.591-15-15-15z"/><path id="XMLID_997_" d="m292.274 350.312c.364 8.127 6.591 15 15 15 7.846 0 15.363-6.899 15-15-.364-8.127-6.591-15-15-15-7.847 0-15.363 6.899-15 15z"/><path id="XMLID_1016_" d="m437.823 253.664v-30h-46.099v-56.606c0-23.021-18.729-41.75-41.75-41.75h-188.258c-23.021 0-41.75 18.729-41.75 41.75v56.606h-46.098v30h46.099v255.336h30v-26.729h181.956c7.525 17.293 24.77 29.42 44.802 29.42 26.93 0 48.838-21.909 48.838-48.839 0-21.698-14.226-40.126-33.838-46.472v-162.716zm-287.857-86.606c0-6.479 5.271-11.75 11.75-11.75h188.258c6.479 0 11.75 5.271 11.75 11.75v56.606h-211.758zm211.758 249.321c-16.327 5.283-28.911 18.943-32.671 35.891h-60.845v-148.596c20.48-6.112 35.458-25.11 35.458-47.55v-2.46h58.059v162.715zm-128.974-162.715h40.915v2.46c0 10.819-8.803 19.621-19.622 19.621h-1.672c-10.819 0-19.621-8.802-19.621-19.621zm-82.784 0h52.784v2.46c0 22.44 14.977 41.438 35.457 47.55v148.596h-88.241zm226.758 228.026c-10.388 0-18.839-8.451-18.839-18.839s8.451-18.839 18.839-18.839 18.838 8.451 18.838 18.839-8.45 18.839-18.838 18.839z"/><path id="XMLID_1310_" d="m164.767 89.477h30c0-2.763.381-3.313 2.497-6.363 3.126-4.505 7.849-11.313 7.849-23.464s-4.723-18.958-7.849-23.463c-2.116-3.051-2.497-3.601-2.497-6.363s.381-3.312 2.497-6.361c3.126-4.505 7.849-11.313 7.849-23.462h-30c0 2.762-.381 3.311-2.497 6.36-3.125 4.505-7.849 11.313-7.849 23.463s4.723 18.958 7.849 23.463c2.116 3.051 2.497 3.601 2.497 6.363 0 2.764-.382 3.313-2.498 6.364-3.125 4.505-7.848 11.313-7.848 23.463z"/><path id="XMLID_1479_" d="m233.035 89.477h30c0-2.763.381-3.313 2.498-6.362 3.125-4.506 7.849-11.313 7.849-23.465 0-12.15-4.724-18.959-7.849-23.464-2.117-3.05-2.498-3.6-2.498-6.362s.381-3.312 2.497-6.361c3.126-4.505 7.85-11.313 7.85-23.462h-30c0 2.761-.381 3.311-2.497 6.36-3.126 4.505-7.85 11.313-7.85 23.463s4.724 18.959 7.849 23.464c2.116 3.05 2.498 3.6 2.498 6.362 0 2.764-.382 3.313-2.498 6.363-3.126 4.506-7.849 11.313-7.849 23.464z"/><path id="XMLID_1480_" d="m301.302 89.477h30c0-2.763.381-3.313 2.498-6.362 3.125-4.506 7.849-11.313 7.849-23.465 0-12.15-4.724-18.959-7.849-23.464-2.117-3.05-2.498-3.6-2.498-6.362s.381-3.312 2.497-6.361c3.126-4.505 7.85-11.313 7.85-23.462h-30c0 2.761-.381 3.311-2.497 6.36-3.126 4.505-7.85 11.313-7.85 23.463s4.724 18.959 7.849 23.464c2.116 3.05 2.498 3.6 2.498 6.362 0 2.764-.382 3.313-2.498 6.363-3.125 4.506-7.849 11.313-7.849 23.464z"/></g></svg>