<?xml version="1.0"?>
<svg xmlns="http://www.w3.org/2000/svg" width="512" height="512" viewBox="0 0 128 128"><g><path d="M100.812,0H27.187a6.758,6.758,0,0,0-6.75,6.75V80.372a6.758,6.758,0,0,0,6.75,6.75H44.344v7.441a1.75,1.75,0,0,0,1.75,1.75H56.437v29.934a1.75,1.75,0,0,0,1.75,1.75H69.812a1.749,1.749,0,0,0,1.75-1.75V96.313H81.906a1.75,1.75,0,0,0,1.75-1.75V87.122h17.156a6.758,6.758,0,0,0,6.75-6.75V6.747A6.758,6.758,0,0,0,100.812,0ZM68.062,124.5H59.937V96.313h8.125ZM80.156,92.813H47.844V87.122H80.156Zm23.906-12.441a3.254,3.254,0,0,1-3.25,3.25H27.187a3.254,3.254,0,0,1-3.25-3.25V6.747a3.254,3.254,0,0,1,3.25-3.25h73.625a3.254,3.254,0,0,1,3.25,3.25Z"/><path d="M97.812,8H30.187a1.75,1.75,0,0,0-1.75,1.75V77.372a1.75,1.75,0,0,0,1.75,1.75H97.812a1.749,1.749,0,0,0,1.75-1.75V9.747A1.749,1.749,0,0,0,97.812,8Zm-1.75,67.625H31.937V11.5H96.062Z"/><path d="M53.844,41.31H67.252a8.655,8.655,0,0,0,0-17.31H53.844a1.749,1.749,0,0,0-1.75,1.75V39.56A1.75,1.75,0,0,0,53.844,41.31Zm1.75-13.81H67.252a5.155,5.155,0,0,1,0,10.31H55.594Z"/><path d="M45.844,71.122h8a1.75,1.75,0,0,0,1.75-1.75V49.31H67.252a16.655,16.655,0,0,0,0-33.31H45.844a1.749,1.749,0,0,0-1.75,1.75V69.372A1.749,1.749,0,0,0,45.844,71.122ZM47.594,19.5H67.252a13.155,13.155,0,0,1,0,26.31H53.844a1.749,1.749,0,0,0-1.75,1.75V67.622h-4.5Z"/></g></svg>
