<?xml version="1.0" encoding="iso-8859-1"?>
<!-- Generator: Adobe Illustrator 19.0.0, SVG Export Plug-In . SVG Version: 6.00 Build 0)  -->
<svg version="1.1" id="Capa_1" xmlns="http://www.w3.org/2000/svg" xmlns:xlink="http://www.w3.org/1999/xlink" x="0px" y="0px"
	 viewBox="0 0 512 512" style="enable-background:new 0 0 512 512;" xml:space="preserve">
<g>
	<g>
		<g>
			<path d="M448,128H95.52c-25.549-0.071-48.667,15.135-58.72,38.624L0,252.064V400h66.272
				c8.677,34.091,43.348,54.694,77.439,46.017c22.609-5.754,40.263-23.408,46.017-46.017h132.544
				c8.677,34.091,43.348,54.694,77.439,46.017c22.609-5.754,40.263-23.408,46.017-46.017H512V192C512,156.654,483.346,128,448,128z
				 M256,160h96v64h-96V160z M128,160h96v64h-96V160z M66.24,179.2c5.029-11.691,16.554-19.248,29.28-19.2H96v80
				c0,8.837-7.163,16-16,16H33.152L66.24,179.2z M128,416c-17.673,0-32-14.327-32-32c0-17.673,14.327-32,32-32s32,14.327,32,32
				C160,401.673,145.673,416,128,416z M384,416c-17.673,0-32-14.327-32-32c0-17.673,14.327-32,32-32c17.673,0,32,14.327,32,32
				C416,401.673,401.673,416,384,416z M480,368h-34.272c-8.677-34.091-43.348-54.694-77.439-46.017
				c-22.609,5.754-40.263,23.408-46.017,46.017H189.728c-8.677-34.091-43.348-54.694-77.439-46.017
				C89.68,327.737,72.026,345.391,66.272,368H32v-80h48c20.269-0.084,38.3-12.89,45.056-32H480V368z M480,224h-96v-64h64
				c17.673,0,32,14.327,32,32V224z"/>
			<rect x="128" y="64" width="96" height="32"/>
			<rect x="352" y="64" width="96" height="32"/>
			<rect x="208" y="288" width="32" height="32"/>
			<rect x="272" y="288" width="32" height="32"/>
		</g>
	</g>
</g>
<g>
</g>
<g>
</g>
<g>
</g>
<g>
</g>
<g>
</g>
<g>
</g>
<g>
</g>
<g>
</g>
<g>
</g>
<g>
</g>
<g>
</g>
<g>
</g>
<g>
</g>
<g>
</g>
<g>
</g>
</svg>
