<svg id="Layer_1" enable-background="new 0 0 512 512" height="512" viewBox="0 0 512 512" width="512" xmlns="http://www.w3.org/2000/svg"><g><path d="m400.6 0h-289.2c-8.284 0-15 6.716-15 15v465.934c0 8.284 6.716 15 15 15h17.133v1.066c0 8.284 6.716 15 15 15s15-6.716 15-15v-1.066h194.934v1.066c0 8.284 6.716 15 15 15s15-6.716 15-15v-1.066h17.133c8.284 0 15-6.716 15-15v-465.934c0-8.284-6.716-15-15-15zm-15 465.934h-259.2v-275.267h259.2zm0-305.267h-259.2v-130.667h259.2z"/><path d="m175.667 126.4h32.133c8.284 0 15-6.716 15-15s-6.716-15-15-15h-32.133c-8.284 0-15 6.716-15 15s6.716 15 15 15z"/><path d="m175.667 254.934h32.133c8.284 0 15-6.716 15-15s-6.716-15-15-15h-32.133c-8.284 0-15 6.716-15 15s6.716 15 15 15z"/></g></svg>