<svg id="Layer_1" enable-background="new 0 0 512 512" height="512" viewBox="0 0 512 512" width="512" xmlns="http://www.w3.org/2000/svg"><g><path d="m512 248.898c0-26.361-16.629-50.17-41.379-59.245l-198.621-72.828v-23.577c18.623-6.605 32-24.39 32-45.248 0-26.467-21.533-48-48-48s-48 21.533-48 48c0 8.836 7.164 16 16 16s16-7.164 16-16c0-8.822 7.178-16 16-16s16 7.178 16 16-7.178 16-16 16c-8.836 0-16 7.164-16 16v36.825l-198.621 72.828c-24.75 9.075-41.379 32.884-41.379 59.245 0 32.392 24.538 59.15 56 62.692v184.41c0 8.836 7.164 16 16 16h304c8.836 0 16-7.164 16-16v-16h48c8.836 0 16-7.164 16-16v-152.41c31.462-3.542 56-30.3 56-62.692zm-152 231.102h-272v-216c0-8.822 7.178-16 16-16h258.742c-3.836 10.823-2.742-2.103-2.742 232zm59.316-227.316c3.021 3.02 4.684 7.039 4.684 11.316v16h-32v-16c0-14.159 17.268-21.367 27.316-11.316zm4.684 195.316h-32v-136h32zm32-168.828v-15.172c0-26.533-21.46-48-48-48h-304c-26.467 0-48 21.533-48 48v15.172c-13.737-3.222-24-15.568-24-30.274 0-12.993 8.196-24.728 20.396-29.201l203.604-74.655 203.604 74.655c12.2 4.473 20.396 16.208 20.396 29.201 0 14.706-10.263 27.052-24 30.274z"/></g></svg>