<svg id="Layer_1" enable-background="new 0 0 512 512" height="512" viewBox="0 0 512 512" width="512" xmlns="http://www.w3.org/2000/svg"><g><path d="m482 126.001h-96v-50.003c0-16.542-13.458-29.999-30-29.999h-200c-16.542 0-30 13.457-30 29.999v50.004h-96c-16.542 0-30 13.457-30 29.999v280.001c0 16.542 13.458 30 30 30h452c16.542 0 30-13.458 30-30v-280.002c0-16.542-13.458-29.999-30-29.999zm-96 20h30v30c0 5.514-4.486 10-10 10h-10c-5.514 0-10-4.486-10-10zm-230-80.002h200c5.514 0 10 4.485 10 9.999v50.004h-20v-30.003c0-5.522-4.478-10-10-10h-160c-5.522 0-10 4.478-10 10v30.003h-20v-50.004c0-5.514 4.486-9.999 10-9.999zm170 70.002c0 5.514-4.485 9.999-9.999 9.999h-120.001c-5.514 0-10-4.485-10-9.999v-30.003h140zm-200 10v30c0 5.514-4.486 10-10 10h-10c-5.514 0-10-4.486-10-10v-30zm-96 0h46v30c0 16.542 13.458 30 30 30h10c16.542 0 30-13.458 30-30v-30h21.714c4.127 11.641 15.249 19.999 28.286 19.999h120.001c13.037 0 24.158-8.358 28.285-19.999h21.714v30c0 16.542 13.458 30 30 30h10c16.542 0 30-13.458 30-30v-30h46c5.514 0 10 4.485 10 9.999v250h-471.999-.001v-250c0-5.513 4.486-9.999 10-9.999zm462 290c0 5.514-4.486 10-10 10h-452c-5.514 0-10-4.486-10-10v-10.001h.001 471.999z"/><path d="m233.5 346.001h45v-37.5h37.5v-45h-37.5v-37.5h-45v37.5h-37.5v45h37.5z"/></g></svg>