<?xml version="1.0" encoding="iso-8859-1"?>
<!-- Generator: Adobe Illustrator 19.0.0, SVG Export Plug-In . SVG Version: 6.00 Build 0)  -->
<svg version="1.1" id="Capa_1" xmlns="http://www.w3.org/2000/svg" xmlns:xlink="http://www.w3.org/1999/xlink" x="0px" y="0px"
	 viewBox="0 0 480 480" style="enable-background:new 0 0 480 480;" xml:space="preserve">
<g>
	<g>
		<g>
			<path d="M479.816,335.064c0-0.248,0.056-0.488,0-0.736l-42.56-198.744c-4.057-18.366-20.287-31.478-39.096-31.584H166.88
				c-12.631,0.013-22.867,10.249-22.88,22.88v2.24c0.013,12.631,10.249,22.867,22.88,22.88h155.056
				c3.77,0.017,7.023,2.646,7.832,6.328l8.92,41.672H320c0-13.255-10.745-24-24-24h-16c-13.255,0-24,10.745-24,24h-33.36
				c-75.816-0.263-145.18,42.625-178.824,110.568l-9.016,17.96C14.944,331.099,0.063,347.979,0,368c0,4.418,3.582,8,8,8h464
				c4.418,0,8-3.582,8-8v-32C480,335.672,479.848,335.392,479.816,335.064z M321.936,136H166.88c-3.798-0.004-6.876-3.082-6.88-6.88
				v-2.24c0.004-3.798,3.082-6.876,6.88-6.88h231.28c11.277,0.077,21.003,7.941,23.44,18.952L462.104,328h-79.632l-37.064-173.016
				C342.998,143.938,333.241,136.047,321.936,136z M280,192h16c4.418,0,8,3.582,8,8h-32C272,195.582,275.582,192,280,192z
				 M58.12,317.728C89.072,255.218,152.887,215.759,222.64,216h119.456l24,112H52.968L58.12,317.728z M464,360H17.368
				c3.403-9.582,12.464-15.988,22.632-16h424V360z"/>
			<path d="M222.64,232c-52.953-0.313-102.879,24.65-134.4,67.2c-2.651,3.535-1.935,8.549,1.6,11.2
				c3.535,2.651,8.549,1.935,11.2-1.6c28.516-38.501,73.689-61.088,121.6-60.8c4.418,0,8-3.582,8-8S227.058,232,222.64,232z"/>
		</g>
	</g>
</g>
<g>
</g>
<g>
</g>
<g>
</g>
<g>
</g>
<g>
</g>
<g>
</g>
<g>
</g>
<g>
</g>
<g>
</g>
<g>
</g>
<g>
</g>
<g>
</g>
<g>
</g>
<g>
</g>
<g>
</g>
</svg>
