<?xml version="1.0"?>
<svg xmlns="http://www.w3.org/2000/svg" id="OutLine" viewBox="0 0 512 512" width="512" height="512"><path d="M472,120a72.081,72.081,0,0,0-72-72H318.184C301.763,28.946,266.249,16,224,16c-56.094,0-100.376,22.783-103.679,52.462-8.2,8.352-15.392,20.564-21.659,35.538H48a8,8,0,0,0-7.43,10.969l32,80a7.989,7.989,0,0,0,1.28,2.139C59.263,279.848,56.2,369.521,56,375.75c0,.043.022.082.021.125S56,375.956,56,376a55.969,55.969,0,0,0,25.474,46.886A72.026,72.026,0,0,0,40,488a8,8,0,0,0,8,8H400a8,8,0,0,0,8-8,72.026,72.026,0,0,0-41.474-65.114A55.969,55.969,0,0,0,392,376c0-.044-.025-.081-.025-.125s.023-.082.021-.125c-.056-1.778-.357-10.474-1.081-23.75H400a72.081,72.081,0,0,0,72-72ZM224,32c44.609,0,77.586,15.594,85.938,32H138.062C146.414,47.594,179.391,32,224,32ZM59.816,120H92.66a445.3,445.3,0,0,0-13.275,48.921ZM391.43,480H56.57A56.088,56.088,0,0,1,112,432H336A56.088,56.088,0,0,1,391.43,480ZM336,416H112a40.069,40.069,0,0,1-39.195-32H375.2A40.069,40.069,0,0,1,336,416ZM72.328,368c.871-19.344,3.637-70.078,10.621-124.094,8.1-62.667,18.161-102.673,28.069-128.266a7.71,7.71,0,0,0,.507-1.286c6.9-17.491,13.71-28.119,19.713-34.354H316.762c14.765,15.336,34.4,56.5,48.289,163.906,6.984,54.016,9.75,104.75,10.621,124.094ZM359.884,134.239c.015-.2.116-.371.116-.575V120a24.027,24.027,0,0,1,24-24h16a24.027,24.027,0,0,1,24,24V280a24.027,24.027,0,0,1-24,24H387.555C383.265,253.46,375.092,186.021,359.884,134.239ZM456,280a56.065,56.065,0,0,1-56,56H389.955c-.325-5.012-.688-10.31-1.114-16H400a40.047,40.047,0,0,0,40-40V120a40.047,40.047,0,0,0-40-40H384a39.9,39.9,0,0,0-35.523,22c-6.062-14.065-12.972-25.565-20.8-33.54A32.466,32.466,0,0,0,326.867,64H400a56.065,56.065,0,0,1,56,56Z"/><path d="M248,448H200a8,8,0,0,0,0,16h48a8,8,0,0,0,0-16Z"/></svg>
