<svg id="Layer_1" enable-background="new 0 0 512 512" height="512" viewBox="0 0 512 512" width="512" xmlns="http://www.w3.org/2000/svg"><g><path d="m497 72.3h-482c-8.284 0-15 6.716-15 15v321.333c0 8.284 6.716 15 15 15h49.267v1.067c0 8.284 6.716 15 15 15s15-6.716 15-15v-1.067h323.467v1.067c0 8.284 6.716 15 15 15s15-6.716 15-15v-1.067h49.266c8.284 0 15-6.716 15-15v-321.333c0-8.284-6.716-15-15-15zm-143.533 257.067h-34.267v-162.8h34.267zm0-192.8h-274.2c-8.284 0-15 6.716-15 15v192.8c0 8.284 6.716 15 15 15h274.2v34.267h-323.467v-291.334h323.467zm-64.267 30v162.8h-194.933v-162.8zm192.8 227.066h-98.533v-227.066h98.533zm0-257.066h-98.533v-34.267h98.533z"/><circle cx="432.733" cy="280.1" r="15"/><circle cx="432.733" cy="215.833" r="15"/></g></svg>