<svg id="Capa_1" enable-background="new 0 0 512 512" height="512" viewBox="0 0 512 512" width="512" xmlns="http://www.w3.org/2000/svg"><g><path d="m486.333 322.568c0-82.989-63.64-151.383-144.679-158.969v-30.464h-315.987v378.865h315.988v-30.464c81.039-7.586 144.678-75.98 144.678-158.968zm-144.678-68.035c31.233 6.882 54.679 34.764 54.679 68.035s-23.446 61.153-54.679 68.034zm-30 227.467h-255.988v-318.865h255.988zm30-30.626v-30.256c47.872-7.256 84.679-48.685 84.679-98.55s-36.807-91.294-84.679-98.551v-30.256c64.464 7.46 114.679 62.375 114.679 128.806s-50.215 121.347-114.679 128.807z"/><path d="m168.661 0h30v103.135h-30z"/><path d="m108.661 30h30v73.135h-30z"/><path d="m228.661 30h30v73.135h-30z"/></g></svg>