<svg id="Capa_1" enable-background="new 0 0 512 512" height="512" viewBox="0 0 512 512" width="512" xmlns="http://www.w3.org/2000/svg"><g><path d="m15 511.99c8.284 0 15-6.716 15-15v-195h30v195c0 8.284 6.716 15 15 15s15-6.716 15-15v-15h60v15c0 8.284 6.716 15 15 15s15-6.716 15-15v-195h30v195c0 8.284 6.716 15 15 15s15-6.716 15-15v-192.933c30.756 8.747 51.059 44.193 74.079 84.396 33.046 57.709 70.966 123.54 152.811 123.54.278 0 30.11-.002 30.11-.002 8.284 0 15-6.716 15-15v-60c0-8.284-6.716-15-15-15h-30c-30.514 0-50.716-35.896-74.108-77.459-31.397-55.786-70.055-124.446-152.892-131.87v-105.672c0-4.218-1.903-8.467-5.115-11.282l-105-92c-5.675-4.97-14.187-4.897-19.77 0l-105 92c-3.283 2.877-5.115 7.103-5.115 11.282v390c0 8.284 6.716 15 15 15zm105-477.057 65.12 57.057h-130.24zm-90 87.057h180v150h-30v-60c0-33.084-26.916-60-60-60s-60 26.916-60 60v60h-30zm60 240h60v30h-60zm60-30h-60v-30h60zm0-60h-60v-60c0-16.542 13.458-30 30-30s30 13.458 30 30zm-60 180v-30h60v30zm276.748-92.746c24.347 43.262 50.794 92.746 100.252 92.746h15v30s-14.795.002-15.017.002c-64.771 0-94.939-52.683-126.87-108.447-25.967-45.348-52.738-92.095-100.113-100.29v-30.434c65.346 7.347 96.529 62.732 126.748 116.423z"/></g></svg>