<?xml version="1.0" encoding="iso-8859-1"?>
<!-- Generator: Adobe Illustrator 19.0.0, SVG Export Plug-In . SVG Version: 6.00 Build 0)  -->
<svg version="1.1" id="Capa_1" xmlns="http://www.w3.org/2000/svg" xmlns:xlink="http://www.w3.org/1999/xlink" x="0px" y="0px"
	 viewBox="0 0 480 480" style="enable-background:new 0 0 480 480;" xml:space="preserve">
<g>
	<g>
		<g>
			<path d="M344,224h-8v-16h8c13.255,0,24-10.745,24-24V46.528c12.473-4.393,19.023-18.066,14.629-30.539
				C379.249,6.393,370.174-0.019,360,0H120c-13.224-0.025-23.964,10.675-23.989,23.899C95.991,34.073,102.404,43.148,112,46.528V184
				c0,13.255,10.745,24,24,24h8v16h-8c-22.08,0.026-39.974,17.92-40,40c0,4.418,3.582,8,8,8c-0.157,53.459,31.2,101.99,80,123.816
				V472c0,4.418,3.582,8,8,8h96c4.418,0,8-3.582,8-8v-76.184c48.793-21.834,80.147-70.36,80-123.816c4.418,0,8-3.582,8-8
				C383.974,241.92,366.08,224.026,344,224z M112,24c0-4.418,3.582-8,8-8h240c4.418,0,8,3.582,8,8s-3.582,8-8,8H120
				C115.582,32,112,28.418,112,24z M136,192c-4.418,0-8-3.582-8-8V48h224v136c0,4.418-3.582,8-8,8H136z M320,208v16H160v-16H320z
				 M200,464v-61.984l0.744,0.2c0.8,0.24,1.6,0.424,2.4,0.648c2.928,0.832,5.885,1.563,8.872,2.192
				c1.432,0.304,2.872,0.552,4.312,0.8c2.472,0.432,4.96,0.8,7.464,1.08c1.52,0.184,3.024,0.376,4.56,0.504
				c3.259,0.272,6.525,0.427,9.8,0.464c0.608,0,1.2,0.088,1.808,0.088c0.608,0,1.208-0.08,1.816-0.088
				c3.275-0.037,6.539-0.192,9.792-0.464c1.536-0.128,3.056-0.328,4.584-0.504c2.48-0.296,4.944-0.648,7.4-1.072
				c1.464-0.256,2.928-0.52,4.384-0.8c2.912-0.6,5.784-1.328,8.632-2.128c0.888-0.248,1.792-0.448,2.68-0.712
				c0.232-0.072,0.48-0.12,0.712-0.192L280,464H200z M284.96,383.24c-21.533,8.683-45.117,10.956-67.912,6.544
				c-7.552-1.453-14.94-3.653-22.056-6.568C149.565,365.015,119.844,320.937,120,272h240
				C360.152,320.956,330.41,365.046,284.96,383.24z M113.368,256c3.403-9.582,12.464-15.988,22.632-16h208
				c10.168,0.012,19.229,6.418,22.632,16H113.368z"/>
			<path d="M208,72h-25.472c-4.418-12.497-18.131-19.046-30.627-14.627S132.855,75.503,137.273,88s18.131,19.046,30.627,14.627
				c6.835-2.416,12.211-7.793,14.627-14.627H208c4.418,0,8-3.582,8-8S212.418,72,208,72z M160,88c-4.418,0-8-3.582-8-8s3.582-8,8-8
				s8,3.582,8,8S164.418,88,160,88z"/>
		</g>
	</g>
</g>
<g>
</g>
<g>
</g>
<g>
</g>
<g>
</g>
<g>
</g>
<g>
</g>
<g>
</g>
<g>
</g>
<g>
</g>
<g>
</g>
<g>
</g>
<g>
</g>
<g>
</g>
<g>
</g>
<g>
</g>
</svg>
