<svg id="Capa_1" enable-background="new 0 0 512 512" height="512" viewBox="0 0 512 512" width="512" xmlns="http://www.w3.org/2000/svg"><path d="m454.646 124.364c-.001-.037-.002-.075-.003-.112-1.493-42.404-26.068-80.389-64.135-99.13l-47.893-23.58c-2.06-1.014-4.327-1.542-6.625-1.542h-159.999c-2.298 0-4.565.528-6.626 1.543l-47.882 23.577c-38.063 18.743-62.634 56.726-64.126 99.127-.001.037-.002.074-.003.111l-7.897 284.48c-.112 4.049 1.417 7.971 4.241 10.874s6.703 4.542 10.753 4.542h63.418l-6.801 71.321c-.401 4.207.991 8.388 3.834 11.515 2.842 3.127 6.872 4.91 11.098 4.91h240c4.226 0 8.256-1.783 11.099-4.909 2.843-3.127 4.234-7.308 3.834-11.515l-6.801-71.321h63.417c4.051 0 7.929-1.638 10.753-4.542s4.353-6.826 4.241-10.874zm-255.388-94.364h113.466l-56.731 125.178zm-119.385 364.255 7.467-269.001c1.118-31.321 19.276-59.373 47.396-73.22l33.986-16.735 107.399 236.964h-106.09l-9.065-135.737c-.552-8.266-7.71-14.518-15.966-13.967-8.266.552-14.519 7.7-13.967 15.966l9.919 148.525-10.223 107.205zm79.415 16.547c.001-.01.002-.02.003-.03l10.347-108.509h101.281l-56.286 82.104c-4.684 6.833-2.942 16.169 3.891 20.854 2.593 1.777 5.545 2.629 8.468 2.629 4.779 0 9.479-2.28 12.385-6.52l45.012-65.658v146.328h-131.89zm155.101 71.198v-179.737h27.973l10.347 108.506c.001.012.002.023.003.035l6.79 71.196zm66.882-87.745-10.223-107.205 9.919-148.525c.552-8.266-5.701-15.414-13.968-15.966-8.262-.547-15.414 5.702-15.966 13.967l-9.065 135.737h-32.91l-36.597-80.748 70.798-156.217 33.999 16.739c28.119 13.844 46.278 41.893 47.401 73.213l7.468 269.005z"/></svg>