<?xml version="1.0" encoding="iso-8859-1"?>
<!-- Generator: Adobe Illustrator 19.0.0, SVG Export Plug-In . SVG Version: 6.00 Build 0)  -->
<svg version="1.1" id="Capa_1" xmlns="http://www.w3.org/2000/svg" xmlns:xlink="http://www.w3.org/1999/xlink" x="0px" y="0px"
	 viewBox="0 0 480 480" style="enable-background:new 0 0 480 480;" xml:space="preserve">
<g>
	<g>
		<path d="M404,0c-13.255,0-24,10.745-24,24v8H204c-22.08,0.026-39.974,17.92-40,40v40h-16c-13.255,0-24,10.745-24,24v27.56
			C89.153,185.039,67.952,223.065,68,264v9.472C58.445,276.85,52.042,285.866,52,296v16c0,4.418,3.582,8,8,8h256
			c4.418,0,8-3.582,8-8v-16c-0.042-10.134-6.445-19.15-16-22.528V264c0.047-31.856-12.623-62.413-35.2-84.888
			c-6.274-6.05-13.259-11.318-20.8-15.688V136c0-13.255-10.745-24-24-24h-16V88c0-4.418,3.582-8,8-8h160v16
			c0,13.255,10.745,24,24,24h24V0H404z M308,296v8H68v-8c0-4.418,3.582-8,8-8h224C304.418,288,308,291.582,308,296z
			 M261.528,190.448C281.078,209.927,292.046,236.402,292,264v8H84v-8c-0.026-36.148,19.06-69.616,50.184-88h107.688
			C249.028,179.935,255.637,184.792,261.528,190.448z M228,128c4.418,0,8,3.582,8,8v24h-96v-24c0-4.418,3.582-8,8-8H228z M380,64
			H220c-13.255,0-24,10.745-24,24v24h-16V72c0-13.255,10.745-24,24-24h176V64z M412,104h-8c-4.418,0-8-3.582-8-8V24
			c0-4.418,3.582-8,8-8h8V104z"/>
	</g>
</g>
<g>
	<g>
		<path d="M188,336c-4.418,0-8,3.582-8,8v32c0,4.418,3.582,8,8,8s8-3.582,8-8v-32C196,339.582,192.418,336,188,336z"/>
	</g>
</g>
<g>
	<g>
		<path d="M188,400c-4.418,0-8,3.582-8,8v32c0,4.418,3.582,8,8,8s8-3.582,8-8v-32C196,403.582,192.418,400,188,400z"/>
	</g>
</g>
<g>
	<g>
		<path d="M284,368c-4.418,0-8,3.582-8,8v32c0,4.418,3.582,8,8,8s8-3.582,8-8v-32C292,371.582,288.418,368,284,368z"/>
	</g>
</g>
<g>
	<g>
		<path d="M220,368c-4.418,0-8,3.582-8,8v32c0,4.418,3.582,8,8,8s8-3.582,8-8v-32C228,371.582,224.418,368,220,368z"/>
	</g>
</g>
<g>
	<g>
		<path d="M156,368c-4.418,0-8,3.582-8,8v32c0,4.418,3.582,8,8,8s8-3.582,8-8v-32C164,371.582,160.418,368,156,368z"/>
	</g>
</g>
<g>
	<g>
		<path d="M92,368c-4.418,0-8,3.582-8,8v32c0,4.418,3.582,8,8,8s8-3.582,8-8v-32C100,371.582,96.418,368,92,368z"/>
	</g>
</g>
<g>
	<g>
		<path d="M124,336c-4.418,0-8,3.582-8,8v32c0,4.418,3.582,8,8,8s8-3.582,8-8v-32C132,339.582,128.418,336,124,336z"/>
	</g>
</g>
<g>
	<g>
		<path d="M252,336c-4.418,0-8,3.582-8,8v32c0,4.418,3.582,8,8,8s8-3.582,8-8v-32C260,339.582,256.418,336,252,336z"/>
	</g>
</g>
<g>
	<g>
		<path d="M252,400c-4.418,0-8,3.582-8,8v32c0,4.418,3.582,8,8,8s8-3.582,8-8v-32C260,403.582,256.418,400,252,400z"/>
	</g>
</g>
<g>
	<g>
		<path d="M124,400c-4.418,0-8,3.582-8,8v32c0,4.418,3.582,8,8,8s8-3.582,8-8v-32C132,403.582,128.418,400,124,400z"/>
	</g>
</g>
<g>
	<g>
		<path d="M156,432c-4.418,0-8,3.582-8,8v32c0,4.418,3.582,8,8,8s8-3.582,8-8v-32C164,435.582,160.418,432,156,432z"/>
	</g>
</g>
<g>
	<g>
		<path d="M220,432c-4.418,0-8,3.582-8,8v32c0,4.418,3.582,8,8,8s8-3.582,8-8v-32C228,435.582,224.418,432,220,432z"/>
	</g>
</g>
<g>
</g>
<g>
</g>
<g>
</g>
<g>
</g>
<g>
</g>
<g>
</g>
<g>
</g>
<g>
</g>
<g>
</g>
<g>
</g>
<g>
</g>
<g>
</g>
<g>
</g>
<g>
</g>
<g>
</g>
</svg>
