<?xml version="1.0"?>
<svg xmlns="http://www.w3.org/2000/svg" width="512" height="512" viewBox="0 0 512 512"><g><path d="M496,456h-8V324a28.031,28.031,0,0,0-28-28h-8a28.043,28.043,0,0,0-27.71,24H408V304a8,8,0,0,0-8-8H232a8,8,0,0,0-8,8v16H208V300a28.031,28.031,0,0,0-28-28H124a28.031,28.031,0,0,0-28,28v20H88V244a28.031,28.031,0,0,0-28-28H52a28.031,28.031,0,0,0-28,28V456H16a8,8,0,0,0,0,16H496a8,8,0,0,0,0-16ZM72,456H40V244a12.01,12.01,0,0,1,12-12h8a12.01,12.01,0,0,1,12,12ZM240,312H392V420a12.01,12.01,0,0,1-12,12H252a12.01,12.01,0,0,1-12-12ZM112,300a12.01,12.01,0,0,1,12-12h56a12.01,12.01,0,0,1,12,12v20H112ZM88,336H224v80H88ZM424,456H88V432H226.71A28.026,28.026,0,0,0,252,448H380a28.026,28.026,0,0,0,25.29-16H424Zm0-40H408V336h16Zm48,40H440V324a12.01,12.01,0,0,1,12-12h8a12.01,12.01,0,0,1,12,12Z"/><path d="M192,192a8,8,0,0,0,8,8h15.355l-21.6,27A8,8,0,0,0,200,240h32a8,8,0,0,0,0-16H216.645l21.6-27A8,8,0,0,0,232,184H200A8,8,0,0,0,192,192Z"/><path d="M272,120h15.355l-21.6,27A8,8,0,0,0,272,160h32a8,8,0,0,0,0-16H288.645l21.6-27A8,8,0,0,0,304,104H272a8,8,0,0,0,0,16Z"/><path d="M176,72h15.355l-21.6,27A8,8,0,0,0,176,112h32a8,8,0,0,0,0-16H192.645l21.6-27A8,8,0,0,0,208,56H176a8,8,0,0,0,0,16Z"/></g></svg>
