<svg id="Layer_1" enable-background="new 0 0 512 512" height="512" viewBox="0 0 512 512" width="512" xmlns="http://www.w3.org/2000/svg"><g><path d="m497 298.502h-448c-27.019 0-49 21.981-49 49v35.996c0 27.019 21.981 49 49 49h448c8.284 0 15-6.716 15-15v-103.996c0-8.284-6.716-15-15-15zm-273 30v73.996h-42v-73.996zm-72 73.996h-62v-73.996h62zm-122-19v-35.996c0-10.477 8.523-19 19-19h11v73.996h-11c-10.477 0-19-8.523-19-19zm452 19h-228v-73.996h228z"/><path d="m459.997 194.502h-218.994c-13.787 0-25.003-11.216-25.003-25.003v-14.997c0-8.284-6.716-15-15-15s-15 6.716-15 15v14.997c0 30.329 24.674 55.003 55.003 55.003h218.994c12.133 0 22.003 9.87 22.003 22.003v6.997c0 8.284 6.716 15 15 15s15-6.716 15-15v-6.997c0-28.675-23.328-52.003-52.003-52.003z"/><path d="m201 116.502c8.284 0 15-6.716 15-15v-7c0-8.284-6.716-15-15-15s-15 6.716-15 15v7c0 8.284 6.715 15 15 15z"/><path d="m330.003 156.002h87.997c8.284 0 15-6.716 15-15s-6.716-15-15-15h-87.997c-14.89 0-27.003-12.113-27.003-27.003 0-8.284-6.716-15-15-15s-15 6.716-15 15c0 31.432 25.571 57.003 57.003 57.003z"/></g></svg>