<svg id="Layer_1" enable-background="new 0 0 512 512" height="512" viewBox="0 0 512 512" width="512" xmlns="http://www.w3.org/2000/svg"><g><path d="m484 77.319v-32.319c0-24.813-20.187-45-45-45s-45 20.187-45 45v28.975h-48v-28.975c0-24.813-20.187-45-45-45s-45 20.187-45 45v28.975h-211c-24.813 0-45 20.187-45 45v348.025c0 24.813 20.187 45 45 45h422c24.813 0 45-20.187 45-45v-348.025c0-18.8-11.592-34.935-28-41.656zm-60-32.319c0-8.271 6.729-15 15-15s15 6.729 15 15v28.975h-30zm-138 157v-33.001h108v27.981c-5.468-1.793-11.282-2.98-17.499-2.98-14.194 0-26.288 6.188-36.957 11.646-8.396 4.296-16.327 8.354-23.293 8.354s-14.896-4.058-23.293-8.354c-2.255-1.154-4.578-2.338-6.966-3.491.001-.052.008-.103.008-.155zm108-63.001h-108v-35.024h108zm-108-93.999c0-8.271 6.729-15 15-15s15 6.729 15 15v28.975h-30zm196 422c0 8.271-6.729 15-15 15h-422c-8.271 0-15-6.729-15-15v-348.025c0-8.271 6.729-15 15-15h211v90.025c-14.195 0-26.288 6.188-36.958 11.646-8.396 4.296-16.326 8.354-23.292 8.354s-14.896-4.058-23.293-8.354c-10.67-5.458-22.763-11.646-36.958-11.646-22.866 0-49.334 12.96-63.554 19.923-1.168.572-2.243 1.099-3.215 1.566-7.461 3.6-10.592 12.566-6.992 20.027 2.586 5.361 7.941 8.486 13.521 8.486 2.186 0 4.406-.479 6.507-1.492 1.019-.492 2.146-1.045 3.372-1.645 11.18-5.473 34.446-16.865 50.361-16.865 6.966 0 14.896 4.058 23.293 8.354 10.67 5.459 22.763 11.646 36.958 11.646 14.194 0 26.287-6.188 36.957-11.646 8.397-4.296 16.327-8.354 23.293-8.354s14.896 4.058 23.293 8.354c10.67 5.459 22.763 11.646 36.958 11.646 14.194 0 26.288-6.188 36.957-11.646 8.396-4.296 16.327-8.354 23.293-8.354s14.896 4.058 23.293 8.354c10.67 5.459 22.763 11.646 36.958 11.646 8.284 0 15-6.716 15-15s-6.716-15-15-15c-3.968 0-8.25-1.319-12.752-3.246v-106.779h43c8.271 0 15 6.729 15 15z"/><path d="m444.286 294c-13.903 0-25.746 5.933-36.195 11.167-7.957 3.986-15.473 7.752-22.166 8.019-12.436.504-19.614-3.354-28.688-8.229-9.45-5.079-20.178-10.799-35.911-10.563-16.006.276-34.429 6.911-57.978 20.879-7.125 4.227-9.475 13.429-5.249 20.554 4.227 7.124 13.427 9.478 20.554 5.249 18.625-11.048 32.753-16.506 43.189-16.686 7.906-.126 13.492 2.854 21.194 6.992 9.881 5.31 22.045 11.847 40.781 11.847 1.079 0 2.182-.021 3.305-.066 13.153-.525 24.444-6.182 34.406-11.173 8.202-4.108 15.948-7.989 22.758-7.989 8.284 0 15-6.716 15-15s-6.716-15.001-15-15.001z"/><path d="m234.307 399.785c-1.553.774-3.102 1.566-4.651 2.359-8.397 4.297-16.329 8.355-23.297 8.355-6.966 0-14.896-4.058-23.292-8.354-10.67-5.459-22.763-11.646-36.958-11.646-23.612 0-47.063 11.201-67.188 21.701-7.345 3.831-10.193 12.892-6.361 20.236 2.676 5.13 7.9 8.065 13.312 8.065 2.337 0 4.71-.548 6.925-1.704 13.12-6.844 35.078-18.299 53.313-18.299 6.966 0 14.897 4.058 23.293 8.354 10.67 5.459 22.763 11.646 36.957 11.646 14.197 0 26.292-6.188 36.963-11.648 1.456-.746 2.913-1.491 4.372-2.219 7.414-3.696 10.427-12.703 6.73-20.117-3.697-7.411-12.702-10.422-20.118-6.729z"/></g></svg>