<svg id="Capa_1" enable-background="new 0 0 510 510" height="512" viewBox="0 0 510 510" width="512" xmlns="http://www.w3.org/2000/svg"><path d="m460.08 114.962h-3.873v-65.683c0-18.636-15.162-33.798-33.798-33.798h-53.075c-18.637 0-33.798 15.162-33.798 33.798v65.684h-3.873c-27.526 0-49.92 22.394-49.92 49.92v314.636c0 8.284 6.716 15 15 15h198.257c8.284 0 15-6.716 15-15 0-6.281 0-308.242 0-314.636 0-27.527-22.394-49.921-49.92-49.921zm-94.543-65.683c0-2.094 1.704-3.798 3.798-3.798h53.075c2.094 0 3.798 1.704 3.798 3.798v65.684h-60.671zm-33.873 95.683h128.416c10.984 0 19.92 8.936 19.92 19.92v39.816h-168.256v-39.816c0-10.984 8.936-19.92 19.92-19.92zm148.336 224.08h-168.256v-134.343h168.256zm-168.256 95.476v-65.476h168.256v65.476z"/><path d="m374.545 316.871h42.654c8.284 0 15-6.716 15-15s-6.716-15-15-15h-42.654c-8.284 0-15 6.716-15 15s6.716 15 15 15z"/><path d="m222.85 85.91h-207.85c-8.284 0-15 6.716-15 15v63.76c0 .163.067 1.431.097 1.696l26.843 235.412v55.521c0 20.523 16.701 37.22 37.23 37.22h109.51c20.529 0 37.23-16.696 37.23-37.22v-55.53l26.842-235.404c.04-.35.098-1.5.098-1.696v-63.76c0-8.284-6.716-14.999-15-14.999zm-15 30v33.757h-177.85v-33.757zm-152.52 270.047-23.522-206.29h174.234l-23.522 206.29zm118.35 78.562h-109.51c-3.987 0-7.23-3.238-7.23-7.22v-41.343h123.97v41.343c0 3.982-3.243 7.22-7.23 7.22z"/><path d="m137.088 265.485h-36.328c-8.284 0-15 6.716-15 15s6.716 15 15 15h36.328c8.284 0 15-6.716 15-15s-6.715-15-15-15z"/></svg>