<?xml version="1.0" encoding="iso-8859-1"?>
<!-- Generator: Adobe Illustrator 19.0.0, SVG Export Plug-In . SVG Version: 6.00 Build 0)  -->
<svg version="1.1" id="Capa_1" xmlns="http://www.w3.org/2000/svg" xmlns:xlink="http://www.w3.org/1999/xlink" x="0px" y="0px"
	 viewBox="0 0 372.659 372.659" style="enable-background:new 0 0 372.659 372.659;" xml:space="preserve">
<g>
	<g>
		<path d="M356.41,96.019h-152l73.6-81.6c3.545-2.637,4.281-7.648,1.644-11.194s-7.648-4.281-11.194-1.644
			c-0.78,0.58-1.448,1.298-1.971,2.118l-80,88l-80-88c-2.766-3.445-7.802-3.995-11.247-1.229c-3.445,2.766-3.995,7.802-1.229,11.247
			c0.198,0.246,0.41,0.481,0.635,0.702l73.6,81.6h-152c-8.837,0-16,7.163-16,16v244.64c0,8.837,7.163,16,16,16h340.16
			c8.837,0,16-7.163,16-16v-244.88C372.279,103.037,365.153,96.019,356.41,96.019z M356.41,356.419H17.13v-244.64h169.2h0.72h0.72
			h168.96L356.41,356.419z"/>
	</g>
</g>
<g>
	<g>
		<path d="M316.17,128.66H56.81c-8.743,0.131-15.761,7.256-15.76,16v179.12c0,8.837,7.163,16,16,16h259.12c8.837,0,16-7.163,16-16
			V144.66C332.17,135.823,325.006,128.66,316.17,128.66z M315.93,323.459H56.97v-178.8h259.2L315.93,323.459z"/>
	</g>
</g>
<g>
</g>
<g>
</g>
<g>
</g>
<g>
</g>
<g>
</g>
<g>
</g>
<g>
</g>
<g>
</g>
<g>
</g>
<g>
</g>
<g>
</g>
<g>
</g>
<g>
</g>
<g>
</g>
<g>
</g>
</svg>
