<svg id="Capa_1" enable-background="new 0 0 511.991 511.991" height="512" viewBox="0 0 511.991 511.991" width="512" xmlns="http://www.w3.org/2000/svg"><g><path d="m407.995 128.991h-64c-8.284 0-15 6.716-15 15v64c0 8.284 6.716 15 15 15h17v48.228l-98 55.125v-215.353h33c11.605 0 18.824-12.659 12.904-22.647l-48-81c-5.8-9.787-20.004-9.796-25.809 0l-48 81c-5.917 9.983 1.294 22.647 12.904 22.647h33v219.715l-82-29.286v-48.898c18.58-6.276 32-23.86 32-44.531 0-25.916-21.084-47-47-47s-47 21.084-47 47c0 20.671 13.42 38.255 32 44.531v59.469c0 6.339 3.985 11.994 9.955 14.126l102.045 36.445v24.248c-27.518 6.749-48 31.612-48 61.181 0 34.864 28.204 64 63 64 34.716 0 63-29.064 63-64 0-29.569-20.482-54.433-48-61.181v-26.046l120.354-67.699c4.724-2.657 7.646-7.655 7.646-13.074v-57h17c8.284 0 15-6.716 15-15v-64c.001-8.285-6.715-15-14.999-15zm-160-84.577 21.675 36.577h-43.35zm-112 146.577c9.374 0 17 7.626 17 17s-7.626 17-17 17-17-7.626-17-17 7.626-17 17-17zm145 257c0 18.43-15.112 34-33 34s-33-15.57-33-34c0-18.196 14.804-33 33-33s33 14.803 33 33zm112-255h-34v-34h34z"/></g></svg>