<?xml version="1.0" encoding="iso-8859-1"?>
<!-- Generator: Adobe Illustrator 19.0.0, SVG Export Plug-In . SVG Version: 6.00 Build 0)  -->
<svg version="1.1" id="Capa_1" xmlns="http://www.w3.org/2000/svg" xmlns:xlink="http://www.w3.org/1999/xlink" x="0px" y="0px"
	 viewBox="0 0 512 512" style="enable-background:new 0 0 512 512;" xml:space="preserve">
<g>
	<g>
		<path d="M465.702,0H46.298c-4.512,0-8.17,3.657-8.17,8.17v495.66c0,4.513,3.658,8.17,8.17,8.17h419.404
			c4.512,0,8.17-3.657,8.17-8.17V8.17C473.872,3.657,470.214,0,465.702,0z M54.468,16.34h114.383v81.702H54.468V16.34z
			 M457.532,430.298h-68.085c-4.512,0-8.17,3.657-8.17,8.17v32.681c0,4.513,3.658,8.17,8.17,8.17c4.512,0,8.17-3.657,8.17-8.17
			v-24.511h59.915v49.021H54.468V114.383h403.064V430.298z M457.532,98.043h-272.34V16.34h272.34V98.043z"/>
	</g>
</g>
<g>
	<g>
		<path d="M390.032,226.595c-0.107-0.387-0.237-0.764-0.398-1.125c-19.39-55.122-71.968-94.746-133.634-94.746
			c-78.088,0-141.617,63.528-141.617,141.617S177.912,413.957,256,413.957c61.668,0,114.246-39.624,133.635-94.747
			c0.159-0.361,0.29-0.736,0.397-1.124c4.914-14.357,7.585-29.745,7.585-45.746C397.617,256.34,394.946,240.952,390.032,226.595z
			 M256,397.617c-69.077,0-125.277-56.199-125.277-125.277c0-69.078,56.199-125.277,125.277-125.277
			c50.637,0,94.35,30.199,114.082,73.532h-30.828c-17.847-28.673-49.305-46.298-83.254-46.298
			c-54.061,0-98.043,43.982-98.043,98.043s43.982,98.043,98.043,98.043c33.951,0,65.407-17.626,83.254-46.298h30.828
			C350.35,367.418,306.637,397.617,256,397.617z M326.432,230.937v82.807c-14.673,24.912-41.469,40.299-70.432,40.299
			c-45.051,0-81.702-36.652-81.702-81.702c0-45.051,36.652-81.702,81.702-81.702C284.963,190.638,311.759,206.025,326.432,230.937z
			 M376.174,307.745h-33.402v-70.809h33.402c3.315,11.232,5.103,23.113,5.103,35.404
			C381.277,284.632,379.489,296.512,376.174,307.745z"/>
	</g>
</g>
<g>
	<g>
		<path d="M340.426,32.681c-13.516,0-24.511,10.996-24.511,24.511c0,13.515,10.995,24.511,24.511,24.511
			s24.511-10.996,24.511-24.511C364.936,43.677,353.941,32.681,340.426,32.681z M340.426,65.362c-4.506,0-8.17-3.665-8.17-8.17
			c0-4.506,3.665-8.17,8.17-8.17c4.506,0,8.17,3.665,8.17,8.17C348.596,61.697,344.931,65.362,340.426,65.362z"/>
	</g>
</g>
<g>
	<g>
		<path d="M405.787,32.681c-13.516,0-24.511,10.996-24.511,24.511c0,13.515,10.995,24.511,24.511,24.511
			s24.511-10.996,24.511-24.511C430.298,43.677,419.303,32.681,405.787,32.681z M405.787,65.362c-4.506,0-8.17-3.665-8.17-8.17
			c0-4.506,3.665-8.17,8.17-8.17c4.506,0,8.17,3.665,8.17,8.17C413.957,61.697,410.293,65.362,405.787,65.362z"/>
	</g>
</g>
<g>
	<g>
		<path d="M144.34,32.681H78.979c-4.512,0-8.17,3.657-8.17,8.17s3.658,8.17,8.17,8.17h65.362c4.512,0,8.17-3.657,8.17-8.17
			S148.853,32.681,144.34,32.681z"/>
	</g>
</g>
<g>
</g>
<g>
</g>
<g>
</g>
<g>
</g>
<g>
</g>
<g>
</g>
<g>
</g>
<g>
</g>
<g>
</g>
<g>
</g>
<g>
</g>
<g>
</g>
<g>
</g>
<g>
</g>
<g>
</g>
</svg>
